<?xml version="1.0" encoding="utf-8"?>
<!-- Generator: Adobe Illustrator 23.0.1, SVG Export Plug-In . SVG Version: 6.00 Build 0)  -->
<svg version="1.1" id="Layer_1" xmlns="http://www.w3.org/2000/svg" xmlns:xlink="http://www.w3.org/1999/xlink" x="0px" y="0px"
	 viewBox="0 0 1500 1500" style="enable-background:new 0 0 1500 1500;" xml:space="preserve">
<style type="text/css">
	.st0{fill:#754A1E;}
	.st1{fill:#513315;}
	.st2{fill:#B5B2A4;}
	.st3{fill:#ED1C24;}
	.st4{fill:#BE1E2D;}
	.st5{fill:#E95924;}
	.st6{fill:#EDE782;}
	.st7{fill:#5C6AB1;}
	.st8{fill:#8E90A0;}
	.st9{fill:#2798BA;}
	.st10{fill:#243E90;}
	.st11{fill:#166734;}
	.st12{fill:#636464;}
	.st13{fill:#F5EB26;}
	.st14{fill:#F19D1F;}
	.st15{fill:#F7941D;}
	.st16{fill:#F2BB72;}
</style>
<g>
	<g>
		<circle class="st2" cx="1154.5" cy="822.8" r="83.4"/>
		<path class="st5" d="M1221.2,872.2c-3,4.1-6.4,7.8-10.1,11.3c-9.7,6.2-30.1,17.3-56.8,17.6c-16.7,0.2-29.4-3.9-32.3-4.9
			c-11-3.7-19.3-8.8-24.9-12.7c-3.7-3.5-7.1-7.2-10.1-11.3c8.3-2,20.2-3.5,32.8,0.5c11.2,3.5,12.5,10.6,22.5,13
			c11.7,2.8,19.1-3.5,34.4-8.4C1186.5,874.1,1201.3,870.9,1221.2,872.2z M1237.5,817.8c-11.1,8.3-28.1,18.4-50.5,23.6
			c-57.8,13.5-105.5-16.5-116.1-23.6c0.2,2,0.3,4.2,0.3,6.4c0,2.2,0,4.3-0.1,6.3c23.6,11.7,52.2,18.6,83,18.6
			c30.9,0,59.5-6.9,83-18.6c0.3-2.6,0.4-5.3,0.4-8C1237.6,821,1237.6,819.4,1237.5,817.8z M1226.1,780.3c-1-1.7-2.1-3.4-3.2-5
			c-23.5-5.2-41.3-3.7-53.1-1.5c-20.6,3.9-31.4,11.7-51.6,10.6c-14.3-0.7-25.7-5.5-32.7-9.1c-1.1,1.6-2.2,3.3-3.2,5
			c21.2,8.6,45.8,13.6,71.9,13.6S1204.9,789,1226.1,780.3z"/>
		<path class="st4" d="M1200,859c14.9-3.1,26.7-10.4,35.6-17.8c-0.3,1.6-0.7,3.1-1.2,4.6c-0.5,1.6-0.9,3.1-1.4,4.5
			c-7.3,7.4-17.9,12.3-33.4,15.7c-15.4,3.4-20.7,6.4-46,5.3c-30.4-1.4-38.6-2.7-56.5-9.8c-10.5-4.2-17.6-6.6-21.8-11.1
			c-1-3-1.9-6-2.6-9.1c8.5,4.2,20.2,9.7,37.4,11.8c9.1,1.1,12.9,2.6,42.8,4.6C1186.9,859.8,1190.5,861,1200,859z M1236.7,810.3
			c-0.3-2.3-0.8-4.7-1.4-7.2c-1.9-7.8-4.8-14.2-7.6-19.2c-34.9,29.7-58.2,32.6-73.5,28.9c-11.4-2.7-19.9-9.4-40.9-13.8
			c-15.6-3.3-29.1-3.4-38.3-2.9c-1.5,4.6-2.7,9.3-3.4,14.2c18.6,6.3,47.3,13.6,82.7,13.6C1189.6,823.9,1218.1,816.6,1236.7,810.3z
			 M1207.4,758.3c-3.1-2.6-6.4-4.9-9.8-7c-22.2,10.4-35.3,8.7-43.4,4.7c-6.8-3.4-10.6-8.8-19.5-10.3c-9.3-1.6-17.9,2.1-23.9,5.6
			c-3.4,2.1-6.7,4.4-9.8,7c16.5,4.6,34.4,7.2,53.2,7.2C1173,765.5,1190.9,762.9,1207.4,758.3z"/>
		<path d="M1086.8,926.8h4.8v24.7c0,9.8-4.8,12.8-11.2,12.8c-1.8,0-3.9-0.4-5.1-0.9l0.7-3.9c1,0.4,2.4,0.7,4,0.7
			c4.3,0,6.8-1.9,6.8-9.2V926.8z M1121.6,937.2h-4.8v16.3c0,0.9-0.2,1.8-0.4,2.5c-0.9,2.1-3.1,4.4-6.4,4.4c-4.4,0-5.9-3.4-5.9-8.4
			v-14.7h-4.8v15.5c0,9.3,5,11.6,9.2,11.6c4.7,0,7.5-2.8,8.8-4.9h0.1l0.3,4.3h4.3c-0.2-2.1-0.2-4.5-0.2-7.2V937.2z M1154.7,950.1
			c0,9.5-5.8,14.3-12.1,14.3c-3.5,0-6.6-1.5-8.2-4.2h-0.1v14.4h-4.8v-28.7c0-3.4-0.1-6.1-0.2-8.7h4.3l0.2,4.6h0.1
			c2-3.2,5.1-5.2,9.4-5.2C1149.9,936.6,1154.7,942.1,1154.7,950.1z M1149.9,950.3c0-5.3-2.8-9.9-7.9-9.9c-3.3,0-6.4,2.4-7.3,6
			c-0.2,0.6-0.3,1.3-0.3,2v4.6c0,0.7,0.1,1.4,0.2,2c0.9,3.3,3.8,5.6,7.2,5.6C1146.9,960.6,1149.9,956.4,1149.9,950.3z M1163.2,926.8
			c-1.8,0-3,1.3-3,3c0,1.6,1.2,3,2.9,3c1.9,0,3.1-1.3,3.1-3C1166.2,928.1,1165,926.8,1163.2,926.8z M1160.8,963.8h4.8v-26.5h-4.8
			V963.8z M1179.4,929.6l-4.7,1.3v6.4h-4.1v3.7h4.1v14.5c0,3.1,0.5,5.5,1.9,6.9c1.2,1.3,3,2,5.2,2c1.9,0,3.3-0.3,4.3-0.7l-0.2-3.6
			c-0.6,0.2-1.5,0.3-2.8,0.3c-2.7,0-3.6-1.9-3.6-5.2v-14.3h6.9v-3.7h-6.9V929.6z M1212.9,949.1c0,1-0.1,1.8-0.2,2.2h-18.6
			c0.1,6.5,4.3,9.2,9.1,9.2c3.5,0,5.5-0.6,7.3-1.4l0.8,3.5c-1.7,0.8-4.6,1.6-8.8,1.6c-8.2,0-13.1-5.4-13.1-13.4
			c0-8,4.7-14.3,12.4-14.3C1210.6,936.6,1212.9,944.3,1212.9,949.1z M1208.3,947.9c0.1-3.1-1.3-7.8-6.7-7.8c-4.9,0-7,4.5-7.4,7.8
			H1208.3z M1230.6,936.6c-3.2,0-6.1,2.2-7.3,5.8h-0.2l-0.2-5.2h-4.2c0.2,2.5,0.2,5.2,0.2,8.3v18.3h4.8v-14.1c0-0.8,0.1-1.6,0.2-2.2
			c0.7-3.6,3.1-6.2,6.5-6.2c0.7,0,1.2,0.1,1.6,0.2v-4.6C1231.6,936.7,1231.2,936.6,1230.6,936.6z"/>
	</g>
</g>
</svg>
