<?xml version="1.0" encoding="utf-8"?>
<!-- Generator: Adobe Illustrator 23.0.1, SVG Export Plug-In . SVG Version: 6.00 Build 0)  -->
<svg version="1.1" id="Layer_1" xmlns="http://www.w3.org/2000/svg" xmlns:xlink="http://www.w3.org/1999/xlink" x="0px" y="0px"
	 viewBox="0 0 1500 1500" style="enable-background:new 0 0 1500 1500;" xml:space="preserve">
<style type="text/css">
	.st0{fill:#754A1E;}
	.st1{fill:#513315;}
	.st2{fill:#B5B2A4;}
	.st3{fill:#ED1C24;}
	.st4{fill:#BE1E2D;}
	.st5{fill:#E95924;}
	.st6{fill:#EDE782;}
	.st7{fill:#5C6AB1;}
	.st8{fill:#8E90A0;}
	.st9{fill:#2798BA;}
	.st10{fill:#243E90;}
	.st11{fill:#166734;}
	.st12{fill:#636464;}
	.st13{fill:#F5EB26;}
	.st14{fill:#F19D1F;}
	.st15{fill:#F7941D;}
	.st16{fill:#F2BB72;}
</style>
<g>
	<g>
		<g>
			<path class="st15" d="M1004.2,726.3c0-57-46.2-103.2-103.2-103.2c-21.7,0-41.9,6.7-58.6,18.2c-1.6-3-3.8-5.2-5.6-5.2
				c-1.3,0-3.2,2.8-6.8,8.5c-4.5,7-4.6,8.2-4.2,9.2c0.2,0.4,0.4,0.8,0.6,1.1c-17.8,18.5-28.7,43.7-28.7,71.4
				c0,13.7,2.7,26.8,7.6,38.8c-2.6,1-5.1,3.7-5,6.7c0.1,4.8,6.4,6.9,7.1,7.1c1.4,0.4,3.4,0.8,5.1,0.7c18.1,29.9,50.9,49.8,88.3,49.8
				c33.1,0,62.5-15.6,81.4-39.8c2.5,0.5,5.6,0.5,6.8-1.3c1.1-1.5,0.6-4.5-0.8-7.3C998.4,765.2,1004.2,746.4,1004.2,726.3z"/>
			<path class="st16" d="M886.8,787.9c1.4,0,2.6,0.2,3.3,0.5c-0.3,0.2-0.6,0.5-0.9,0.7c-1.8,1.4-4.6,3.6-5.9,7.2
				c-1.1,3-0.6,5.4-0.3,7c0.1,0.3,0.1,0.6,0.2,0.8c-1,0.2-3.6-0.1-6.3-1.5c-2.1-1.1-3.6-2.6-3.6-3.7c0-1,1.5-2.9,3.9-5.7
				c2-2.4,3-3.5,4.4-4.2C883.2,788.2,885.1,787.9,886.8,787.9z M950.3,769.3c0.5,0,1.2,0,1.6,0c-0.6-1.5-3.2-4.8-7.9-8
				c-6.4-4.5-12.8-6.2-16.9-4.6c-1.5,0.6-3,1.7-4.4,2.7c-2.8,2-5.9,4.4-9.5,3.1c-1.5-0.5-2.4-1.5-2.9-2.1c-0.4-0.5-0.5-0.6-0.7-0.6
				c-0.1,0-0.2,0-0.3,0c-0.8,0-2.1,0.5-3.5,1.7c-2.4,2-5,5.6-5,9c0,3.4,3,7.4,7.7,10.5c5.8,3.8,12.8,5.2,17,3.4
				c2.1-0.9,3.1-2.4,4.5-4.5c1.6-2.5,3.7-5.5,8.3-7.9C943.2,769.3,947.4,769.3,950.3,769.3z M850.8,747.2c-0.1,0-0.1,0-0.2,0
				c-0.3,0-0.6,0-0.8,0c-0.9,1.2-2,2.8-2.1,4.8c-0.1,3.3,2.7,4.2,4.9,8.8c1.6,3.4,2.4,7.8,1.8,10.9c1.8-1.7,3.9-4.2,6.7-7.7
				c2.6-3.2,3.9-4.8,3.9-6.1v0c0.1-1.7-0.9-3.7-2.6-5.6C859.4,749.2,854.9,747.2,850.8,747.2z M920.4,672c0.1-0.1,0.2-0.2,0.2-0.4
				c0.4-0.7,1.1-1.7,2.4-2.3c0.7-0.3,1.3-0.5,2-0.5c2.4,0,4.4,2,6.1,3.7c1.1,1.1,2.1,2.1,3.2,2.7c2.9,1.5,6.9-0.8,9-2.3
				c4.8-3.5,8.2-8.6,8.7-10.6c-0.2,0-0.5,0-0.7,0c-1.2,0-2.8,0-4.6-0.5c-1.4,1.6-3.8,2.4-4.1,2.5c-1.8,0.6-5.1,1-6.2-0.6
				c-1.1-1.5,0-5.1,2.1-7.4c-1.3-1.7-2.2-3.4-3-5c-1-2-1.8-3.6-3.2-4.4c-2.1-1.2-5.3-0.8-8.6,1.1c-5.2,3-8.9,8.4-9,13.1
				c0,3.6,2,7.5,4,9.6C919.5,671.6,920.1,671.9,920.4,672z M844.3,707.3c0.3,0.5,0.6,1.1,0.9,1.5c1-0.9,2.9-5,1.9-8.7
				c-0.4-1.5-1.4-2.7-3.6-5.1c-3-3.4-4.4-5-5.7-5.2c-1.7-0.3-4.2,1.2-6.3,3.6c-1.9,2.2-2.5,4.1-2.5,4.9c0.3,0,0.9,0,1.3,0.1
				c1.8,0,4.5,0.1,7.5,1.7C841.5,702.1,843.2,705.2,844.3,707.3z M902.3,711.5c-0.3-0.4-0.5-0.9-0.6-1.4c-0.3-0.6-0.7-0.7-0.7-0.8
				c-0.1,0-0.3-0.1-0.5-0.1c-0.7,0-1.8,0.3-3.1,1.2c-1.7,1.2-3.8,3.6-3.8,6.3c0,2.7,2,5.1,3.8,6.3c1.5,1.1,2.9,1.4,3.6,1.1
				c1.2-0.4,2.1-4.1,1.9-8.1C902.8,714,902.6,712.5,902.3,711.5z M966.1,695.5c-2.4,0-4.9,1.5-6.8,4.2c-1.9,2.7-2.8,6-2.2,7.9
				c0.5,1.4,2,2.6,3.4,3.6c1.7,1.3,3.9,2.9,3.1,5.4c-0.5,1.6-1.8,2.2-2.8,2.6c1.1,0.9,3.2,2,5.3,2c4.9,0,8.9-5.8,8.9-12.9
				C975.1,701.3,971.1,695.5,966.1,695.5z M1004.9,726.3c0,57-46.2,103.2-103.2,103.2c-57,0-103.2-46.2-103.2-103.2
				c0-57,46.2-103.2,103.2-103.2C958.8,623.1,1004.9,669.3,1004.9,726.3z M910.2,661.1c-0.1,5.6,3.3,11.4,6.6,13.9
				c2.1,1.6,3.8,1.5,4.9,1.2c1.4-0.4,2.1-1.5,2.6-2.2c0.3-0.4,0.4-0.6,0.6-0.7c0.5-0.2,2.2,1.5,3.1,2.4c1.2,1.2,2.6,2.6,4.2,3.5
				c1.3,0.7,2.7,1,4.2,1c3.3,0,7-1.6,10.8-4.7c4.5-3.6,10.2-10.7,9-14.9c-0.8-2.7-3.3-2.7-5-2.7c-1.2,0-2.6,0-4.1-0.5
				c-0.9-1.8-2.9-3.1-4.6-3.1c0,0-0.1,0-0.1,0c-1.4-1.5-2.2-3.2-3-4.8c-1.2-2.3-2.4-4.8-5-6.3c-3.5-2-8.2-1.6-13,1.1
				C915.9,647.4,910.3,653.8,910.2,661.1z M909.4,673.3l-2.3,1.8c2.1,2.8,4.5,5.3,7.1,7.5c1.5,1.3,3.3,2.6,5.5,2.6
				c1.9,0.1,3.6-0.8,5-1.5c1.1-0.6,2.1-1.1,3.1-1.2c1.9-0.2,3.8,1,5.8,2.3c0.4,0.3,0.8,0.5,1.2,0.8c1.7,1,3.8,1.9,5.8,1.9
				c1.5,0,2.9-0.4,4.1-1.6l-2.1-2.1c-1.4,1.4-4.1,0.6-6.3-0.7c-0.4-0.2-0.7-0.5-1.1-0.7c-2.2-1.5-4.8-3.1-7.8-2.8
				c-1.6,0.2-2.9,0.9-4.2,1.5c-1.2,0.6-2.4,1.3-3.6,1.2c-1.3-0.1-2.6-1-3.7-2C913.6,678.3,911.4,675.9,909.4,673.3z M907.2,713.9
				c2.4-0.3,4.3-2.4,4.3-4.9c0-2.7-2.2-4.9-4.9-4.9c-1.3,0-2.5,0.5-3.4,1.4c-0.2-0.1-0.4-0.2-0.6-0.3c-2.1-0.8-5-0.2-7.6,1.6
				c-2.7,1.9-5.7,5.5-5.7,10c0,4.4,2.9,8,5.7,9.9c1.9,1.3,3.9,2,5.6,2c0.7,0,1.4-0.1,2-0.3c4.7-1.7,4.9-9.2,4.8-12.4v0
				C907.3,715.5,907.3,714.7,907.2,713.9z M868,631c1.6,5.8,7.9,8.7,13.5,9.1c3,0.2,6-0.1,8.9-0.5c2.2-0.3,4.5-0.5,6.7-0.5
				c3.5,0,6.9,0.6,10.2,1.8l1-2.8c-3.6-1.4-7.3-2-11.2-2c0,0,0,0,0,0c-2.4,0-4.7,0.3-7,0.5c-2.9,0.3-5.6,0.6-8.4,0.5
				c-4.5-0.3-9.6-2.6-10.8-7L868,631z M877.6,670.5c-4-0.1-7.3,6.2-5.7,8.3c1,1.4,4.1,1,5.7,0.5c0.5-0.1,4.7-1.4,4.7-4.4
				C882.4,672.6,879.8,670.6,877.6,670.5z M826.8,687.6l5.3-2.5c1.6-0.7,3.2-1.5,4.9-1.7c3.8-0.4,7.4,2.2,10.7,4.9l1.8-2.3
				c-3.9-3-8-6-12.9-5.5c-2.1,0.2-4.1,1.1-5.8,1.9l-5.3,2.5c-4.4,2-8.5,4.5-9.3,9l2.9,0.5C819.8,691.3,823.2,689.3,826.8,687.6z
				 M830.1,702.7c1.6,0,3.4,0.1,5.5,1.2c2.6,1.4,3.8,3.6,4.8,5.5c1,1.8,2.2,3.9,4.6,3.9c0.1,0,0.2,0,0.3,0c1.5-0.1,2.9-1,4-2.6
				c1.8-2.6,3.3-7.4,2-11.8c-0.7-2.5-2.1-4-4.5-6.8c-3.5-4-5.4-6.2-8.4-6.6c-4.6-0.7-9,3.1-11.5,6.5c-1.1,1.6-3.5,5.6-1.9,8.6
				C826.2,702.6,828.4,702.7,830.1,702.7z M858.2,800.7c0-4.1-3.3-7.4-7.4-7.4c-4.1,0-7.4,3.3-7.4,7.4c0,4.1,3.3,7.4,7.4,7.4
				C854.9,808.1,858.2,804.8,858.2,800.7z M864.5,766.8c3-3.7,4.8-5.9,4.9-8.7c0.1-2.9-1.2-6-3.8-8.8c-3.8-4-9.4-6.5-14.7-6.6
				c-8.3-0.1-17.7,5.4-19.1,14.9c-0.8,5.2,1.1,10.7,5.3,15c3.6,3.7,8.3,5.9,12.4,5.9c0.5,0,0.9,0,1.4-0.1
				C855.5,777.8,858.5,774.2,864.5,766.8z M894.9,787.2c-0.2-0.8-0.9-2-2.8-2.8c-2.9-1.3-8.2-1.5-12.4,0.6c-2.2,1.1-3.5,2.6-5.8,5.3
				c-3.3,3.8-5.1,6-5,8.7c0.1,3,2.6,5.8,6.7,7.8c2,0.9,4.5,1.7,6.7,1.7c1.4,0,2.8-0.3,3.8-1.1c1.9-1.5,1.5-3.6,1.2-5.1
				c-0.3-1.4-0.6-2.7,0.1-4.6c0.9-2.4,2.8-3.9,4.4-5.2C893.6,791.2,895.6,789.7,894.9,787.2z M933.7,782.3c1.5-2.3,3.1-4.6,6.7-6.5
				c3.9-2.1,7.4-2.1,9.9-2.1c2.3,0,5,0,5.9-2.5h0c1.1-2.9-1.7-6.7-4.3-9.3c-5.7-5.7-17.4-12.9-26.3-9.5c-2,0.8-3.8,2.1-5.4,3.3
				c-2.5,1.9-4.1,2.9-5.5,2.5c-0.4-0.2-0.7-0.4-1.1-0.9c-0.6-0.6-1.4-1.6-3-2c-2.2-0.5-4.9,0.4-7.6,2.5c-3.1,2.5-6.7,7.2-6.6,12.4
				c0.1,5,3.6,10.2,9.7,14.1c4.9,3.2,10.3,4.9,15,4.9c2.2,0,4.3-0.4,6.1-1.1C930.5,787,932.1,784.6,933.7,782.3z M960.2,740.7
				c1.4-0.1,3-3.4,3-7.1c0-4.8-2.7-6.9-3-7.1c-1.1-0.8-3-1.4-3.7,0.8C955.6,730.7,957.7,740.9,960.2,740.7z M970.8,779.8
				c-6.1-0.7-12.4-1.1-17.3,2.4c-0.9,0.6-1.7,1.4-2.4,2.1c-0.8,0.7-1.5,1.4-2.3,2c-3.5,2.4-8.2,2.1-13.1,1.5l-0.3,2.9
				c2,0.2,4,0.4,5.9,0.4c3.3,0,6.5-0.6,9.2-2.4c1-0.7,1.9-1.5,2.7-2.3c0.7-0.7,1.4-1.3,2.1-1.8c4-2.9,9.5-2.5,15.2-1.9L970.8,779.8z
				 M979.5,708.4c0-9.5-6-17.3-13.3-17.3c-3.9,0-7.7,2.2-10.4,6.1c-2.8,3.9-3.9,8.6-2.8,11.9c0.9,2.7,3.2,4.5,4.9,5.7
				c0.2,0.2,0.5,0.3,0.7,0.5c-1,0.3-2.5,1-2.8,2.6c-0.2,0.8-0.1,2,1,3.4c1.7,2.1,5.5,4.3,9.4,4.3
				C973.5,725.7,979.5,717.9,979.5,708.4z"/>
		</g>
		<path d="M874.3,847.6l2.7,44h-5.6l-1.1-19.3c-0.3-6.1-0.7-13.5-0.7-19h-0.2c-1.5,5.2-3.3,10.6-5.6,16.7l-7.8,21.4h-4.3l-7.1-21
			c-2.1-6.2-3.9-11.9-5.1-17.1h-0.1c-0.1,5.5-0.5,12.9-0.8,19.5l-1.2,18.9h-5.4l3.1-44h7.3l7.5,21.3c1.8,5.4,3.3,10.3,4.4,14.8h0.2
			c1.1-4.4,2.7-9.3,4.6-14.8l7.8-21.3H874.3z M914.6,875.6c0,11.7-8.1,16.8-15.7,16.8c-8.6,0-15.2-6.3-15.2-16.3
			c0-10.6,6.9-16.8,15.7-16.8C908.5,859.3,914.6,865.9,914.6,875.6z M908.7,875.8c0-5.4-2.7-12.2-9.5-12.2s-9.7,6.3-9.7,12.3
			c0,6.9,4,12.2,9.6,12.2C904.6,888,908.7,882.9,908.7,875.8z M950.5,875.6c0,11.7-8.1,16.8-15.7,16.8c-8.6,0-15.2-6.3-15.2-16.3
			c0-10.6,6.9-16.8,15.7-16.8C944.3,859.3,950.5,865.9,950.5,875.6z M944.6,875.8c0-5.4-2.7-12.2-9.5-12.2s-9.7,6.3-9.7,12.3
			c0,6.9,4,12.2,9.6,12.2C940.5,888,944.6,882.9,944.6,875.8z M973.5,859.3c-5.2,0-8.9,2.9-10.5,5.9h-0.1l-0.3-5.2h-5.1
			c0.2,2.6,0.3,5.3,0.3,8.6v23.1h5.7v-19c0-1,0.1-2,0.4-2.7c1-3.2,3.9-5.9,7.7-5.9c5.4,0,7.3,4.2,7.3,9.3v18.2h5.7v-18.9
			C984.6,861.9,977.8,859.3,973.5,859.3z"/>
	</g>
</g>
</svg>
