<?xml version="1.0" encoding="utf-8"?>
<!-- Generator: Adobe Illustrator 23.0.1, SVG Export Plug-In . SVG Version: 6.00 Build 0)  -->
<svg version="1.1" id="Layer_1" xmlns="http://www.w3.org/2000/svg" xmlns:xlink="http://www.w3.org/1999/xlink" x="0px" y="0px"
	 viewBox="0 0 1500 1500" style="enable-background:new 0 0 1500 1500;" xml:space="preserve">
<style type="text/css">
	.st0{fill:#754A1E;}
	.st1{fill:#513315;}
	.st2{fill:#B5B2A4;}
	.st3{fill:#ED1C24;}
	.st4{fill:#BE1E2D;}
	.st5{fill:#E95924;}
	.st6{fill:#EDE782;}
	.st7{fill:#5C6AB1;}
	.st8{fill:#8E90A0;}
	.st9{fill:#2798BA;}
	.st10{fill:#243E90;}
	.st11{fill:#166734;}
	.st12{fill:#636464;}
	.st13{fill:#F5EB26;}
	.st14{fill:#F19D1F;}
	.st15{fill:#F7941D;}
	.st16{fill:#F2BB72;}
</style>
<g>
	<path class="st7" d="M1051.5,754.4"/>
	<g>
		<g>
			<polygon class="st13" points="609,597 636.4,655.4 697.4,627.1 678.3,688.4 744.4,703.5 687.8,738.9 728,790.3 660.4,783.3 
				656,847 609,800.8 562,847 557.6,783.3 490,790.3 530.2,738.9 473.6,703.5 539.7,688.4 520.7,627.1 581.7,655.4 			"/>
			<ellipse class="st14" cx="609" cy="722" rx="66.4" ry="64.3"/>
		</g>
		<path d="M589.2,888.7c0,6.6-5.1,12.4-15.5,12.4c-4.3,0-8.9-1.2-11.3-2.7l1.4-4.6c2.6,1.5,6.3,2.8,10.3,2.8c5.9,0,9.3-3,9.3-7.3
			c0-4-2.4-6.3-8.4-8.5c-7.2-2.5-11.7-6.1-11.7-12.2c0-6.7,5.7-11.7,14.3-11.7c4.5,0,7.8,1,9.8,2.1l-1.6,4.5c-1.4-0.8-4.4-2-8.4-2
			c-6.1,0-8.4,3.5-8.4,6.4c0,4,2.7,6,8.8,8.3C585.4,878.9,589.2,882.4,589.2,888.7z M623.5,869.6h-5.8v18.9c0,1-0.2,2-0.5,2.9
			c-1.1,2.5-3.7,5.1-7.6,5.1c-5.3,0-7.1-3.9-7.1-9.8v-17.1h-5.8v18c0,10.8,6,13.5,11,13.5c5.7,0,9-3.2,10.5-5.7h0.1l0.3,5h5.1
			c-0.2-2.4-0.3-5.2-0.3-8.4V869.6z M649,868.9c-5.3,0-8.9,2.9-10.5,5.8h-0.1l-0.3-5.1h-5.1c0.2,2.5,0.3,5.2,0.3,8.3v22.5h5.8v-18.5
			c0-1,0.1-1.9,0.4-2.6c1-3.1,3.9-5.7,7.8-5.7c5.5,0,7.4,4.1,7.4,9.1v17.8h5.8V882C660.2,871.5,653.4,868.9,649,868.9z"/>
	</g>
</g>
</svg>
