<?xml version="1.0" encoding="utf-8"?>
<!-- Generator: Adobe Illustrator 23.0.1, SVG Export Plug-In . SVG Version: 6.00 Build 0)  -->
<svg version="1.1" id="Layer_1" xmlns="http://www.w3.org/2000/svg" xmlns:xlink="http://www.w3.org/1999/xlink" x="0px" y="0px"
	 viewBox="0 0 1500 1500" style="enable-background:new 0 0 1500 1500;" xml:space="preserve">
<style type="text/css">
	.st0{fill:#754A1E;}
	.st1{fill:#513315;}
	.st2{fill:#B5B2A4;}
	.st3{fill:#ED1C24;}
	.st4{fill:#BE1E2D;}
	.st5{fill:#E95924;}
	.st6{fill:#EDE782;}
	.st7{fill:#5C6AB1;}
	.st8{fill:#8E90A0;}
	.st9{fill:#2798BA;}
	.st10{fill:#243E90;}
	.st11{fill:#166734;}
	.st12{fill:#636464;}
	.st13{fill:#F5EB26;}
	.st14{fill:#F19D1F;}
	.st15{fill:#F7941D;}
	.st16{fill:#F2BB72;}
</style>
<g>
	<path class="st7" d="M1051.5,754.4"/>
	<g>
		<circle class="st8" cx="714.9" cy="1057.2" r="87"/>
		<path class="st9" d="M683.9,1131.9c0,1.2-1.3,2.2-2.9,2.2s-2.9-1-2.9-2.2c0-1.2,1.3-2.2,2.9-2.2S683.9,1130.7,683.9,1131.9z
			 M754.7,991.1c1.6,0,2.9-1,2.9-2.2c0-1.2-1.3-2.2-2.9-2.2s-2.9,1-2.9,2.2C751.8,990.1,753.1,991.1,754.7,991.1z M762.7,1090.3
			c0-1.2-1.3-2.2-2.9-2.2c-1.6,0-2.9,1-2.9,2.2c0,1.2,1.3,2.2,2.9,2.2C761.4,1092.5,762.7,1091.5,762.7,1090.3z M685.1,1024.7
			c0.1-0.8-0.7-1.3-2.8-3.4c-2.5-2.5-2.4-2.9-3.4-3.2c-1.8-0.5-4,0.6-5.2,2.1c-1.4,1.8-1.1,3.9-1.1,4.5c0.4,3.3,3.2,6.3,6.2,6.6
			c0.3,0,2.5,0.2,3.3-1.1c0.7-1-0.2-1.9,0.5-3.2C683.3,1025.5,684.9,1025.7,685.1,1024.7z M755.7,1059.4c0.6,0.9,1.8,0.9,3.3,1.1
			c4.5,0.6,4.5,1.8,7.3,1.8c0.6,0,5.3-0.1,6.5-2.9c1.2-2.6-1.3-6.1-3.6-7.8c-1.9-1.3-2.3-0.4-5.1-2.1c-1.9-1.2-3.4-2.6-5.2-2.1
			c-0.9,0.3-0.9,0.7-3.4,3.2c-2.1,2.1-3,2.6-2.8,3.4c0.2,1,1.7,0.8,2.5,2.3C755.9,1057.5,755,1058.4,755.7,1059.4z M777.8,1102.7
			c-6.9,2.2-24.4-7.1-45.3-2.2c-12.2,2.9-19.6,12.3-26.3,11.7c-3.8-0.3-18.8-19-43.6-18.2c-10.2,0.3-18.2,3.4-23.1,5.8
			c0.2,1.2,0.7,2.9,1.4,4.8c2.2,3.5,4.7,6.9,7.4,10c17.7,14.8,56.8,12.1,86.7,10c10.5-0.7,24.5-2.1,41.1-5.2
			c6.3-6.3,11.6-13.5,15.7-21.5C787.5,1097.6,783.2,1101,777.8,1102.7z M786.1,1067.5c-22.2-1.7-30.4,2-51.1,0.8
			c-8.8-0.5-25.4-1.5-28-6.4c-2.3-4.5,8.4-10.4,15.5-13.2c17.2-6.8,42.7-7.6,61.7-4.6c4.9,0.8,11.6,2.1,16.6,2.7
			c-0.4-3.2-1-6.4-1.8-9.5c-17.1-4.1-53.8-1.1-67.2-0.6c-45.7,1.7-85.1,7.9-104.2,15.5c-0.1,1.9-0.2,3.8-0.2,5.7
			c0,4.3,0.3,8.5,0.9,12.6c21.4,6.4,65.6,10.1,105.1,8.6c26.4-1,56.3-4,66.9-6.7c0.2-1.1,0.4-2.2,0.5-3.4
			C796.5,1068.3,789.5,1067.7,786.1,1067.5z M795.7,1026.9C795.7,1026.9,795.7,1026.9,795.7,1026.9c-2.2-5.8-5.1-11.3-8.4-16.5
			c0,0-0.1-0.1-0.1-0.1c-0.4-0.6-0.8-1.2-1.2-1.8c0-0.1-0.1-0.1-0.1-0.2c-0.4-0.6-0.8-1.1-1.2-1.7c0-0.1-0.1-0.1-0.1-0.2
			c-0.4-0.6-0.8-1.1-1.3-1.7c0,0-0.1-0.1-0.1-0.1c-2.3-3-4.9-5.9-7.6-8.6c-48.3,6.9-67.8,1.3-76.4-5.8c-1.8-1.5-7.2-6.3-15.3-7.3
			c-9.2-1.1-17.3,3.4-22.6,7.3c-4.3,2.9-10,7.4-15.5,14c0,0,0,0.1-0.1,0.1c-3.7,4.8-7,10-9.7,15.5c21-7.2,45.3-11.3,71.2-11.3
			C740.7,1008.6,771.4,1015.4,795.7,1026.9z"/>
		<path d="M664.2,1176.7h4.8v21.5c0,11.4-6,16-14,16c-7.6,0-13.3-4.3-13.3-15.8v-21.8h4.8v21.9c0,8.3,3.7,11.8,8.6,11.8
			c5.5,0,9-3.6,9-11.8V1176.7z M681.6,1192.3h-0.2l-0.2-5.2h-4.2c0.2,2.5,0.2,5.2,0.2,8.3v18.3h4.8v-14.1c0-0.8,0.1-1.6,0.2-2.2
			c0.7-3.6,3.1-6.2,6.5-6.2c0.7,0,1.2,0.1,1.6,0.2v-4.6c-0.4-0.1-0.8-0.2-1.4-0.2C685.7,1186.5,682.8,1188.8,681.6,1192.3z
			 M713.5,1207.3c0,2.3,0.1,4.6,0.4,6.4h-4.4l-0.4-3.3H709c-1.5,2.1-4.3,3.9-8.1,3.9c-5.4,0-8.1-3.8-8.1-7.6c0-6.4,5.7-9.9,16-9.9
			v-0.5c0-2.2-0.6-6.1-6-6.1c-2.5,0-5,0.8-6.9,2l-1.1-3.2c2.2-1.4,5.4-2.4,8.7-2.4c8.1,0,10.1,5.5,10.1,10.9V1207.3z M708.8,1200.1
			c-5.3-0.1-11.2,0.8-11.2,6c0,3.1,2.1,4.6,4.6,4.6c3.5,0,5.6-2.2,6.4-4.4c0.2-0.5,0.3-1,0.3-1.5V1200.1z M734.5,1186.5
			c-4.4,0-7.5,2.5-8.8,5h-0.1l-0.3-4.4H721c0.2,2.2,0.2,4.4,0.2,7.2v19.4h4.8v-16c0-0.8,0.1-1.6,0.3-2.2c0.8-2.7,3.3-4.9,6.5-4.9
			c4.6,0,6.1,3.6,6.1,7.8v15.3h4.8v-15.8C743.8,1188.7,738.1,1186.5,734.5,1186.5z M773.9,1187.1h-4.8v16.3c0,0.9-0.2,1.8-0.4,2.5
			c-0.9,2.1-3.1,4.4-6.4,4.4c-4.4,0-5.9-3.4-5.9-8.4v-14.7h-4.8v15.5c0,9.3,5,11.6,9.2,11.6c4.7,0,7.5-2.8,8.8-4.9h0.1l0.3,4.3h4.3
			c-0.2-2.1-0.2-4.5-0.2-7.2V1187.1z M790.5,1198.2c-3.5-1.3-5-2.3-5-4.5c0-2,1.6-3.6,4.4-3.6c2.5,0,4.4,0.9,5.4,1.5l1.2-3.5
			c-1.5-0.9-3.8-1.6-6.5-1.6c-5.7,0-9.2,3.5-9.2,7.8c0,3.2,2.2,5.8,7,7.5c3.6,1.3,4.9,2.6,4.9,4.9c0,2.2-1.6,3.9-5.2,3.9
			c-2.4,0-4.9-1-6.4-1.9l-1.2,3.7c1.9,1.1,4.6,1.8,7.5,1.8c6.3,0,9.9-3.3,9.9-8C797.4,1202.3,795.1,1200,790.5,1198.2z"/>
	</g>
</g>
</svg>
