<?xml version="1.0" encoding="utf-8"?>
<!-- Generator: Adobe Illustrator 23.0.1, SVG Export Plug-In . SVG Version: 6.00 Build 0)  -->
<svg version="1.1" id="Layer_1" xmlns="http://www.w3.org/2000/svg" xmlns:xlink="http://www.w3.org/1999/xlink" x="0px" y="0px"
	 viewBox="0 0 1500 1500" style="enable-background:new 0 0 1500 1500;" xml:space="preserve">
<style type="text/css">
	.st0{fill:#754A1E;}
	.st1{fill:#513315;}
	.st2{fill:#B5B2A4;}
	.st3{fill:#ED1C24;}
	.st4{fill:#BE1E2D;}
	.st5{fill:#E95924;}
	.st6{fill:#EDE782;}
	.st7{fill:#5C6AB1;}
	.st8{fill:#8E90A0;}
	.st9{fill:#2798BA;}
	.st10{fill:#243E90;}
	.st11{fill:#166734;}
	.st12{fill:#636464;}
	.st13{fill:#F5EB26;}
	.st14{fill:#F19D1F;}
	.st15{fill:#F7941D;}
	.st16{fill:#F2BB72;}
</style>
<g>
	<g>
		<circle class="st2" cx="631.6" cy="369.2" r="88.3"/>
		<path class="st0" d="M631.3,433.9c25.6,0,49.7-4.5,71-12.4c-3.2,4.3-6.8,8.3-10.7,12c-18.5,5.6-13.8,19-35.2,19
			c-21.4,0-66.8-13.4-85.4-19c-3.9-3.7-7.5-7.7-10.7-12C581.6,429.4,605.7,433.9,631.3,433.9z M545.1,388.4c0.7,3.3,1.7,6.5,2.7,9.7
			c40.5,42.2,52.7,17.5,83.4,17.5s59.6,21.4,83.4-17.5c1.1-3.1,2-6.4,2.7-9.7c-24.6,11.9-54.3,18.8-86.2,18.8
			C599.4,407.2,569.8,400.2,545.1,388.4z M719.5,364c-20,10-43.4,16.6-68.7,18.9c-1.3-1.1-7.2-3.5-19.4-7.5
			c-30.8-10.1,62.5-7.2,87.3-19.4c-0.8-5.2-2-10.2-3.6-15c-37.6-11.9-60.4,4.9-83.8,17.7c-27.1,14.8-59.6-6.5-83.8-17.7
			c-1.6,4.8-2.8,9.8-3.6,15c19.5,8.9,82.9,24.7,101.8,27.3c-4.7,0.3-9.5,0.5-14.4,0.5c-32.8,0-63.1-7.3-88.1-19.8
			c-0.1,1.7-0.1,3.3-0.1,5c0,2.9,0.1,5.7,0.4,8.5c25,12.4,61.7,32.7,87.9,19.7c29.2-14.5,62.9-7.3,87.9-19.7
			c0.3-2.8,0.4-5.6,0.4-8.5C719.6,367.3,719.5,365.6,719.5,364z M631.3,338.6c22.2-16.5,53.7-5.2,76.1-14.4
			c-1.1-1.8-2.2-3.6-3.4-5.3c-21.7,8.3-43.6,5.4-69.9,5.4c-26.3,0-53.8,2.9-75.5-5.4c-1.2,1.7-2.3,3.5-3.4,5.3
			C577.6,333.4,590.6,368.9,631.3,338.6z M687.6,301c-3.3-2.7-6.7-5.2-10.4-7.4c-14.5,3.2-29.9,5-45.9,5s-31.4-1.7-45.9-5
			c-3.6,2.2-7.1,4.7-10.4,7.4c17.4,4.9,36.4,7.6,56.3,7.6C651.2,308.6,704,318.9,687.6,301z"/>
		<path d="M588.5,478.1h5.1l-13.2,37h-5.3l-12.1-37h5.2l5.8,18.2c1.6,5,3,9.5,3.9,13.8h0.1c1-4.3,2.6-8.9,4.2-13.8L588.5,478.1z
			 M617.2,500.4c0,1-0.1,1.8-0.2,2.2h-18.6c0.1,6.5,4.3,9.2,9.1,9.2c3.5,0,5.5-0.6,7.3-1.4l0.8,3.5c-1.7,0.8-4.6,1.6-8.8,1.6
			c-8.2,0-13-5.4-13-13.4c0-8,4.7-14.3,12.4-14.3C614.9,487.9,617.2,495.5,617.2,500.4z M612.5,499.2c0.1-3.1-1.3-7.8-6.7-7.8
			c-4.9,0-7,4.5-7.4,7.8H612.5z M636.4,487.9c-4.4,0-7.5,2.5-8.8,5h-0.1l-0.3-4.4h-4.3c0.2,2.2,0.2,4.4,0.2,7.2v19.4h4.8v-16
			c0-0.8,0.1-1.6,0.3-2.2c0.8-2.7,3.3-4.9,6.5-4.9c4.6,0,6.1,3.6,6.1,7.8v15.3h4.8v-15.8C645.7,490.1,640,487.9,636.4,487.9z
			 M675.8,488.5H671v16.3c0,0.9-0.2,1.8-0.4,2.5c-0.9,2.1-3.1,4.4-6.4,4.4c-4.4,0-5.9-3.4-5.9-8.4v-14.7h-4.8V504
			c0,9.3,5,11.6,9.2,11.6c4.7,0,7.5-2.8,8.8-4.9h0.1l0.3,4.3h4.3c-0.2-2.1-0.2-4.5-0.2-7.2V488.5z M692.3,499.7
			c-3.5-1.3-5-2.3-5-4.5c0-2,1.6-3.6,4.4-3.6c2.5,0,4.4,0.9,5.4,1.5l1.2-3.5c-1.5-0.9-3.8-1.6-6.5-1.6c-5.7,0-9.2,3.5-9.2,7.8
			c0,3.2,2.2,5.8,7,7.5c3.6,1.3,4.9,2.6,4.9,4.9c0,2.2-1.6,3.9-5.2,3.9c-2.4,0-4.9-1-6.4-1.9l-1.2,3.7c1.9,1.1,4.6,1.8,7.5,1.8
			c6.3,0,9.9-3.3,9.9-8C699.3,503.7,696.9,501.4,692.3,499.7z"/>
	</g>
</g>
</svg>
