<?xml version="1.0" encoding="utf-8"?>
<!-- Generator: Adobe Illustrator 23.0.1, SVG Export Plug-In . SVG Version: 6.00 Build 0)  -->
<svg version="1.1" id="Layer_1" xmlns="http://www.w3.org/2000/svg" xmlns:xlink="http://www.w3.org/1999/xlink" x="0px" y="0px"
	 viewBox="0 0 1500 1500" style="enable-background:new 0 0 1500 1500;" xml:space="preserve">
<style type="text/css">
	.st0{fill:#754A1E;}
	.st1{fill:#513315;}
	.st2{fill:#B5B2A4;}
	.st3{fill:#ED1C24;}
	.st4{fill:#BE1E2D;}
	.st5{fill:#E95924;}
	.st6{fill:#EDE782;}
	.st7{fill:#5C6AB1;}
	.st8{fill:#8E90A0;}
	.st9{fill:#2798BA;}
	.st10{fill:#243E90;}
	.st11{fill:#166734;}
	.st12{fill:#636464;}
	.st13{fill:#F5EB26;}
	.st14{fill:#F19D1F;}
	.st15{fill:#F7941D;}
	.st16{fill:#F2BB72;}
</style>
<g>
	<g>
	<!-- Mercury -->
		<g>
			<circle class="st0" cx="384.7" cy="460" r="88.1"/>
			<path class="st1" d="M351.7,440c0-5.2,4.6-9.5,10.4-9.5c5.7,0,10.4,4.3,10.4,9.5c0,5.2-4.6,9.5-10.4,9.5
				C356.4,449.5,351.7,445.3,351.7,440z M386.3,395.1c-3.8,0-6.9,2.3-6.9,5.2s3.1,5.2,6.9,5.2c3.8,0,6.9-2.3,6.9-5.2
				S390.1,395.1,386.3,395.1z M435.5,414.1c-4.3,0-7.8,2.7-7.8,6c0,3.3,3.5,6,7.8,6c4.3,0,7.8-2.7,7.8-6
				C443.3,416.8,439.8,414.1,435.5,414.1z M384.6,471.1c-3.3,0-6,2.3-6,5.2c0,2.9,2.7,5.2,6,5.2c3.3,0,6-2.3,6-5.2
				C390.6,473.4,387.9,471.1,384.6,471.1z M422.6,498.8c-4.8,0-8.6,3.9-8.6,8.6c0,4.8,3.9,8.6,8.6,8.6c4.8,0,8.6-3.9,8.6-8.6
				C431.2,502.6,427.4,498.8,422.6,498.8z M324.1,469.4c-4.3,0-7.8,2.3-7.8,5.2c0,2.9,3.5,5.2,7.8,5.2c4.3,0,7.8-2.3,7.8-5.2
				C331.9,471.7,328.4,469.4,324.1,469.4z M445.9,453c-2.4,0-4.3,3.5-4.3,7.8c0,4.3,1.9,7.8,4.3,7.8c2.4,0,4.3-3.5,4.3-7.8
				C450.2,456.4,448.3,453,445.9,453z M361,517.1c-8.1,0-14.7,6.8-14.7,15.1c0,2.2,0.5,4.4,1.3,6.3c6,3.2,12.4,5.8,19.2,7.6
				c5.2-2.3,8.9-7.7,8.9-13.9C375.7,523.9,369.1,517.1,361,517.1z"/>
		</g>
		<path d="M326.1,571.1l2.3,37h-4.7l-0.9-16.2c-0.3-5.2-0.6-11.4-0.5-16h-0.2c-1.3,4.3-2.8,8.9-4.7,14l-6.5,17.9h-3.6l-6-17.6
			c-1.8-5.2-3.2-10-4.3-14.4H297c-0.1,4.6-0.4,10.8-0.7,16.3l-1,15.8h-4.6l2.6-37h6.1l6.3,17.9c1.5,4.6,2.8,8.6,3.7,12.4h0.2
			c0.9-3.7,2.2-7.8,3.9-12.4l6.6-17.9H326.1z M357.4,593.4c0,1-0.1,1.8-0.2,2.2h-18.6c0.1,6.5,4.3,9.2,9.1,9.2
			c3.5,0,5.5-0.6,7.3-1.4l0.8,3.5c-1.7,0.8-4.6,1.6-8.8,1.6c-8.2,0-13.1-5.4-13.1-13.4s4.7-14.3,12.4-14.3
			C355.1,580.9,357.4,588.5,357.4,593.4z M352.8,592.2c0.1-3.1-1.3-7.8-6.7-7.8c-4.9,0-7,4.5-7.4,7.8H352.8z M367.8,586.7h-0.2
			l-0.2-5.2h-4.2c0.2,2.5,0.2,5.2,0.2,8.3V608h4.8v-14.1c0-0.8,0.1-1.6,0.2-2.2c0.7-3.6,3.1-6.2,6.5-6.2c0.7,0,1.2,0.1,1.6,0.2V581
			c-0.4-0.1-0.8-0.2-1.4-0.2C371.9,580.9,369,583.1,367.8,586.7z M393.1,584.8c2.6,0,4.4,0.6,5.6,1.3l1.1-3.7
			c-1.3-0.7-3.8-1.4-6.7-1.4c-8.7,0-14.3,5.9-14.3,14.1c0,8.1,5.2,13.5,13.2,13.5c3.6,0,6.4-0.9,7.6-1.5l-0.8-3.6
			c-1.4,0.6-3.2,1.3-5.9,1.3c-5.3,0-9.2-3.8-9.2-9.9C383.8,589.3,387.1,584.8,393.1,584.8z M427.6,581.5h-4.8v16.3
			c0,0.9-0.2,1.8-0.4,2.5c-0.9,2.1-3.1,4.4-6.4,4.4c-4.4,0-5.9-3.4-5.9-8.4v-14.7h-4.8V597c0,9.3,5,11.6,9.2,11.6
			c4.7,0,7.5-2.8,8.8-4.9h0.1l0.3,4.3h4.3c-0.2-2.1-0.2-4.5-0.2-7.2V581.5z M440,586.7h-0.2l-0.2-5.2h-4.2c0.2,2.5,0.2,5.2,0.2,8.3
			V608h4.8v-14.1c0-0.8,0.1-1.6,0.2-2.2c0.7-3.6,3.1-6.2,6.5-6.2c0.7,0,1.2,0.1,1.6,0.2V581c-0.4-0.1-0.8-0.2-1.4-0.2
			C444.1,580.9,441.2,583.1,440,586.7z M471.2,581.5l-5.3,15.6c-0.7,1.9-1.2,3.9-1.7,5.5h-0.1c-0.4-1.6-1.1-3.7-1.7-5.4l-5.8-15.7
			h-5.3l9.8,24.5c0.2,0.6,0.3,1,0.3,1.3s-0.2,0.7-0.4,1.2c-1.1,2.5-2.7,4.3-4.1,5.4c-1.4,1.2-3,2-4.2,2.4l1.2,4.1
			c1.2-0.2,3.6-1,5.9-3.1c3.3-2.9,5.6-7.5,9.1-16.6l7.2-18.9H471.2z"/>
	</g>
	<!-- Venus -->
	<g>
		<circle class="st2" cx="631.6" cy="369.2" r="88.3"/>
		<path class="st0" d="M631.3,433.9c25.6,0,49.7-4.5,71-12.4c-3.2,4.3-6.8,8.3-10.7,12c-18.5,5.6-13.8,19-35.2,19
			c-21.4,0-66.8-13.4-85.4-19c-3.9-3.7-7.5-7.7-10.7-12C581.6,429.4,605.7,433.9,631.3,433.9z M545.1,388.4c0.7,3.3,1.7,6.5,2.7,9.7
			c40.5,42.2,52.7,17.5,83.4,17.5s59.6,21.4,83.4-17.5c1.1-3.1,2-6.4,2.7-9.7c-24.6,11.9-54.3,18.8-86.2,18.8
			C599.4,407.2,569.8,400.2,545.1,388.4z M719.5,364c-20,10-43.4,16.6-68.7,18.9c-1.3-1.1-7.2-3.5-19.4-7.5
			c-30.8-10.1,62.5-7.2,87.3-19.4c-0.8-5.2-2-10.2-3.6-15c-37.6-11.9-60.4,4.9-83.8,17.7c-27.1,14.8-59.6-6.5-83.8-17.7
			c-1.6,4.8-2.8,9.8-3.6,15c19.5,8.9,82.9,24.7,101.8,27.3c-4.7,0.3-9.5,0.5-14.4,0.5c-32.8,0-63.1-7.3-88.1-19.8
			c-0.1,1.7-0.1,3.3-0.1,5c0,2.9,0.1,5.7,0.4,8.5c25,12.4,61.7,32.7,87.9,19.7c29.2-14.5,62.9-7.3,87.9-19.7
			c0.3-2.8,0.4-5.6,0.4-8.5C719.6,367.3,719.5,365.6,719.5,364z M631.3,338.6c22.2-16.5,53.7-5.2,76.1-14.4
			c-1.1-1.8-2.2-3.6-3.4-5.3c-21.7,8.3-43.6,5.4-69.9,5.4c-26.3,0-53.8,2.9-75.5-5.4c-1.2,1.7-2.3,3.5-3.4,5.3
			C577.6,333.4,590.6,368.9,631.3,338.6z M687.6,301c-3.3-2.7-6.7-5.2-10.4-7.4c-14.5,3.2-29.9,5-45.9,5s-31.4-1.7-45.9-5
			c-3.6,2.2-7.1,4.7-10.4,7.4c17.4,4.9,36.4,7.6,56.3,7.6C651.2,308.6,704,318.9,687.6,301z"/>
		<path d="M588.5,478.1h5.1l-13.2,37h-5.3l-12.1-37h5.2l5.8,18.2c1.6,5,3,9.5,3.9,13.8h0.1c1-4.3,2.6-8.9,4.2-13.8L588.5,478.1z
			 M617.2,500.4c0,1-0.1,1.8-0.2,2.2h-18.6c0.1,6.5,4.3,9.2,9.1,9.2c3.5,0,5.5-0.6,7.3-1.4l0.8,3.5c-1.7,0.8-4.6,1.6-8.8,1.6
			c-8.2,0-13-5.4-13-13.4c0-8,4.7-14.3,12.4-14.3C614.9,487.9,617.2,495.5,617.2,500.4z M612.5,499.2c0.1-3.1-1.3-7.8-6.7-7.8
			c-4.9,0-7,4.5-7.4,7.8H612.5z M636.4,487.9c-4.4,0-7.5,2.5-8.8,5h-0.1l-0.3-4.4h-4.3c0.2,2.2,0.2,4.4,0.2,7.2v19.4h4.8v-16
			c0-0.8,0.1-1.6,0.3-2.2c0.8-2.7,3.3-4.9,6.5-4.9c4.6,0,6.1,3.6,6.1,7.8v15.3h4.8v-15.8C645.7,490.1,640,487.9,636.4,487.9z
			 M675.8,488.5H671v16.3c0,0.9-0.2,1.8-0.4,2.5c-0.9,2.1-3.1,4.4-6.4,4.4c-4.4,0-5.9-3.4-5.9-8.4v-14.7h-4.8V504
			c0,9.3,5,11.6,9.2,11.6c4.7,0,7.5-2.8,8.8-4.9h0.1l0.3,4.3h4.3c-0.2-2.1-0.2-4.5-0.2-7.2V488.5z M692.3,499.7
			c-3.5-1.3-5-2.3-5-4.5c0-2,1.6-3.6,4.4-3.6c2.5,0,4.4,0.9,5.4,1.5l1.2-3.5c-1.5-0.9-3.8-1.6-6.5-1.6c-5.7,0-9.2,3.5-9.2,7.8
			c0,3.2,2.2,5.8,7,7.5c3.6,1.3,4.9,2.6,4.9,4.9c0,2.2-1.6,3.9-5.2,3.9c-2.4,0-4.9-1-6.4-1.9l-1.2,3.7c1.9,1.1,4.6,1.8,7.5,1.8
			c6.3,0,9.9-3.3,9.9-8C699.3,503.7,696.9,501.4,692.3,499.7z"/>
	</g>
	<!-- Earth -->
	<g>
		<ellipse class="st3" cx="1154" cy="533.5" rx="96" ry="95.8"/>
		<path class="st4" d="M1162.5,574.6c29.3,0,56.3,0.4,78.3,1c-1.3,2.8-2.8,5.6-4.4,8.2c-21.2,0.5-46.6,0.8-74,0.8
			c-35.3,0-67.4-0.5-91.2-1.3c-1.4-2.3-2.7-4.7-3.8-7.2C1091.7,575.2,1125.3,574.6,1162.5,574.6z M1193.2,527.7
			c0,3.1,16.6,5.6,37.2,5.6c7.2,0,13.9-0.3,19.6-0.9c-0.1-3.3-0.3-6.5-0.7-9.6c-5.5-0.5-12-0.8-18.9-0.8
			C1209.8,522,1193.2,524.6,1193.2,527.7z M1187.3,462c10.4,0,20-0.5,27.7-1.2c-5.2-4.3-10.8-8-16.8-11.1c-3.5-0.1-7.1-0.2-10.9-0.2
			c-25.6,0-46.3,2.8-46.3,6.3C1141,459.2,1161.7,462,1187.3,462z M1119.5,599.6c-13.5,0-25.7,0.7-34.4,1.7c3,3.1,6.2,6,9.6,8.7
			c7.2,0.5,15.7,0.8,24.8,0.8c26.3,0,47.6-2.5,47.6-5.6S1145.8,599.6,1119.5,599.6z M1147.5,514.5c0-10.4-25.7-18.8-57.4-18.8
			c-8.8,0-17.1,0.6-24.6,1.8c-4.3,10.1-6.8,21.1-7.4,32.6c9.1,2,20.1,3.2,32,3.2C1121.9,533.3,1147.5,524.9,1147.5,514.5z
			 M1124.1,485.7c20.2,0,36.5-2,36.5-4.4s-16.3-4.4-36.5-4.4s-36.5,2-36.5,4.4S1103.9,485.7,1124.1,485.7z M1133.2,549.6
			c0,4.8,15.8,8.8,35.2,8.8s35.2-3.9,35.2-8.8c0-4.8-15.8-8.8-35.2-8.8S1133.2,544.7,1133.2,549.6z M1186.7,495.1
			c0,2.4,7.9,4.4,17.6,4.4c9.7,0,17.6-2,17.6-4.4c0-2.4-7.9-4.4-17.6-4.4C1194.5,490.8,1186.7,492.7,1186.7,495.1z"/>
		<path d="M1138.6,650.8l2.3,37h-4.7l-0.9-16.2c-0.3-5.2-0.6-11.4-0.5-16h-0.2c-1.3,4.3-2.8,8.9-4.7,14l-6.5,17.9h-3.6l-6-17.6
			c-1.8-5.2-3.2-10-4.3-14.4h-0.1c-0.1,4.6-0.4,10.8-0.7,16.3l-1,15.8h-4.6l2.6-37h6.1l6.3,17.9c1.5,4.6,2.8,8.6,3.7,12.4h0.2
			c0.9-3.7,2.2-7.8,3.9-12.4l6.6-17.9H1138.6z M1167,681.4c0,2.3,0.1,4.6,0.4,6.4h-4.4l-0.4-3.3h-0.2c-1.5,2.1-4.3,3.9-8.1,3.9
			c-5.4,0-8.1-3.8-8.1-7.6c0-6.4,5.7-9.9,16-9.9v-0.5c0-2.2-0.6-6.1-6-6.1c-2.5,0-5,0.8-6.9,2l-1.1-3.2c2.2-1.4,5.4-2.4,8.7-2.4
			c8.1,0,10.1,5.5,10.1,10.9V681.4z M1162.4,674.3c-5.3-0.1-11.2,0.8-11.2,6c0,3.1,2.1,4.6,4.6,4.6c3.5,0,5.6-2.2,6.4-4.4
			c0.2-0.5,0.3-1,0.3-1.5V674.3z M1179.2,666.5h-0.2l-0.2-5.2h-4.2c0.2,2.5,0.2,5.2,0.2,8.3v18.3h4.8v-14.1c0-0.8,0.1-1.6,0.2-2.2
			c0.7-3.6,3.1-6.2,6.5-6.2c0.7,0,1.2,0.1,1.6,0.2v-4.6c-0.4-0.1-0.8-0.2-1.4-0.2C1183.3,660.7,1180.4,662.9,1179.2,666.5z
			 M1201.3,672.4c-3.5-1.3-5-2.3-5-4.5c0-2,1.6-3.6,4.4-3.6c2.5,0,4.4,0.9,5.4,1.5l1.2-3.5c-1.5-0.9-3.8-1.6-6.5-1.6
			c-5.7,0-9.2,3.5-9.2,7.8c0,3.2,2.2,5.8,7,7.5c3.6,1.3,4.9,2.6,4.9,4.9c0,2.2-1.6,3.9-5.2,3.9c-2.4,0-4.9-1-6.4-1.9l-1.2,3.7
			c1.9,1.1,4.6,1.8,7.5,1.8c6.3,0,9.9-3.3,9.9-8C1208.3,676.5,1205.9,674.2,1201.3,672.4z"/>
	</g>
	<!-- Mars -->
	<g>
		<circle class="st2" cx="1154.5" cy="822.8" r="83.4"/>
		<path class="st5" d="M1221.2,872.2c-3,4.1-6.4,7.8-10.1,11.3c-9.7,6.2-30.1,17.3-56.8,17.6c-16.7,0.2-29.4-3.9-32.3-4.9
			c-11-3.7-19.3-8.8-24.9-12.7c-3.7-3.5-7.1-7.2-10.1-11.3c8.3-2,20.2-3.5,32.8,0.5c11.2,3.5,12.5,10.6,22.5,13
			c11.7,2.8,19.1-3.5,34.4-8.4C1186.5,874.1,1201.3,870.9,1221.2,872.2z M1237.5,817.8c-11.1,8.3-28.1,18.4-50.5,23.6
			c-57.8,13.5-105.5-16.5-116.1-23.6c0.2,2,0.3,4.2,0.3,6.4c0,2.2,0,4.3-0.1,6.3c23.6,11.7,52.2,18.6,83,18.6
			c30.9,0,59.5-6.9,83-18.6c0.3-2.6,0.4-5.3,0.4-8C1237.6,821,1237.6,819.4,1237.5,817.8z M1226.1,780.3c-1-1.7-2.1-3.4-3.2-5
			c-23.5-5.2-41.3-3.7-53.1-1.5c-20.6,3.9-31.4,11.7-51.6,10.6c-14.3-0.7-25.7-5.5-32.7-9.1c-1.1,1.6-2.2,3.3-3.2,5
			c21.2,8.6,45.8,13.6,71.9,13.6S1204.9,789,1226.1,780.3z"/>
		<path class="st4" d="M1200,859c14.9-3.1,26.7-10.4,35.6-17.8c-0.3,1.6-0.7,3.1-1.2,4.6c-0.5,1.6-0.9,3.1-1.4,4.5
			c-7.3,7.4-17.9,12.3-33.4,15.7c-15.4,3.4-20.7,6.4-46,5.3c-30.4-1.4-38.6-2.7-56.5-9.8c-10.5-4.2-17.6-6.6-21.8-11.1
			c-1-3-1.9-6-2.6-9.1c8.5,4.2,20.2,9.7,37.4,11.8c9.1,1.1,12.9,2.6,42.8,4.6C1186.9,859.8,1190.5,861,1200,859z M1236.7,810.3
			c-0.3-2.3-0.8-4.7-1.4-7.2c-1.9-7.8-4.8-14.2-7.6-19.2c-34.9,29.7-58.2,32.6-73.5,28.9c-11.4-2.7-19.9-9.4-40.9-13.8
			c-15.6-3.3-29.1-3.4-38.3-2.9c-1.5,4.6-2.7,9.3-3.4,14.2c18.6,6.3,47.3,13.6,82.7,13.6C1189.6,823.9,1218.1,816.6,1236.7,810.3z
			 M1207.4,758.3c-3.1-2.6-6.4-4.9-9.8-7c-22.2,10.4-35.3,8.7-43.4,4.7c-6.8-3.4-10.6-8.8-19.5-10.3c-9.3-1.6-17.9,2.1-23.9,5.6
			c-3.4,2.1-6.7,4.4-9.8,7c16.5,4.6,34.4,7.2,53.2,7.2C1173,765.5,1190.9,762.9,1207.4,758.3z"/>
		<path d="M1086.8,926.8h4.8v24.7c0,9.8-4.8,12.8-11.2,12.8c-1.8,0-3.9-0.4-5.1-0.9l0.7-3.9c1,0.4,2.4,0.7,4,0.7
			c4.3,0,6.8-1.9,6.8-9.2V926.8z M1121.6,937.2h-4.8v16.3c0,0.9-0.2,1.8-0.4,2.5c-0.9,2.1-3.1,4.4-6.4,4.4c-4.4,0-5.9-3.4-5.9-8.4
			v-14.7h-4.8v15.5c0,9.3,5,11.6,9.2,11.6c4.7,0,7.5-2.8,8.8-4.9h0.1l0.3,4.3h4.3c-0.2-2.1-0.2-4.5-0.2-7.2V937.2z M1154.7,950.1
			c0,9.5-5.8,14.3-12.1,14.3c-3.5,0-6.6-1.5-8.2-4.2h-0.1v14.4h-4.8v-28.7c0-3.4-0.1-6.1-0.2-8.7h4.3l0.2,4.6h0.1
			c2-3.2,5.1-5.2,9.4-5.2C1149.9,936.6,1154.7,942.1,1154.7,950.1z M1149.9,950.3c0-5.3-2.8-9.9-7.9-9.9c-3.3,0-6.4,2.4-7.3,6
			c-0.2,0.6-0.3,1.3-0.3,2v4.6c0,0.7,0.1,1.4,0.2,2c0.9,3.3,3.8,5.6,7.2,5.6C1146.9,960.6,1149.9,956.4,1149.9,950.3z M1163.2,926.8
			c-1.8,0-3,1.3-3,3c0,1.6,1.2,3,2.9,3c1.9,0,3.1-1.3,3.1-3C1166.2,928.1,1165,926.8,1163.2,926.8z M1160.8,963.8h4.8v-26.5h-4.8
			V963.8z M1179.4,929.6l-4.7,1.3v6.4h-4.1v3.7h4.1v14.5c0,3.1,0.5,5.5,1.9,6.9c1.2,1.3,3,2,5.2,2c1.9,0,3.3-0.3,4.3-0.7l-0.2-3.6
			c-0.6,0.2-1.5,0.3-2.8,0.3c-2.7,0-3.6-1.9-3.6-5.2v-14.3h6.9v-3.7h-6.9V929.6z M1212.9,949.1c0,1-0.1,1.8-0.2,2.2h-18.6
			c0.1,6.5,4.3,9.2,9.1,9.2c3.5,0,5.5-0.6,7.3-1.4l0.8,3.5c-1.7,0.8-4.6,1.6-8.8,1.6c-8.2,0-13.1-5.4-13.1-13.4
			c0-8,4.7-14.3,12.4-14.3C1210.6,936.6,1212.9,944.3,1212.9,949.1z M1208.3,947.9c0.1-3.1-1.3-7.8-6.7-7.8c-4.9,0-7,4.5-7.4,7.8
			H1208.3z M1230.6,936.6c-3.2,0-6.1,2.2-7.3,5.8h-0.2l-0.2-5.2h-4.2c0.2,2.5,0.2,5.2,0.2,8.3v18.3h4.8v-14.1c0-0.8,0.1-1.6,0.2-2.2
			c0.7-3.6,3.1-6.2,6.5-6.2c0.7,0,1.2,0.1,1.6,0.2v-4.6C1231.6,936.7,1231.2,936.6,1230.6,936.6z"/>
	</g>
	<!-- Jupiter -->
	<g>
		<g>
			<circle class="st2" cx="1011.4" cy="1067.4" r="88.8"/>
			<path class="st0" d="M1011.1,1132.4c25.7,0,50-4.5,71.4-12.4c-3.2,4.3-6.8,8.4-10.7,12c-18.6,5.7-39.1,8.8-60.6,8.8
				c-21.5,0-42-3.1-60.6-8.8c-3.9-3.7-7.5-7.7-10.7-12C961.1,1128,985.4,1132.4,1011.1,1132.4z M924.5,1086.6
				c0.7,3.3,1.7,6.6,2.8,9.7c24.2,11.1,53,17.6,83.9,17.6s59.7-6.5,83.9-17.6c1.1-3.2,2-6.4,2.8-9.7c-24.8,11.9-54.6,18.9-86.7,18.9
				S949.2,1098.6,924.5,1086.6z M1099.8,1062.1c-25.2,12.5-55.7,19.9-88.7,19.9c-33,0-63.5-7.4-88.7-19.9c-0.1,1.7-0.1,3.4-0.1,5.1
				c0,2.9,0.1,5.7,0.4,8.5c25.1,12.5,55.6,19.8,88.4,19.8s63.3-7.3,88.4-19.8c0.3-2.8,0.4-5.6,0.4-8.5
				C1099.9,1065.5,1099.9,1063.8,1099.8,1062.1z M1099,1054.1c-0.8-5.2-2-10.2-3.6-15.1c-24.3,11.2-53.2,17.8-84.3,17.8
				c-31.1,0-60-6.5-84.3-17.8c-1.6,4.9-2.8,9.9-3.6,15.1c25,12.3,55.3,19.5,87.9,19.5C1043.7,1073.6,1074,1066.4,1099,1054.1z
				 M1087.7,1022.2c-1.1-1.8-2.2-3.6-3.4-5.4c-21.8,8.4-46.7,13.1-73.2,13.1s-51.4-4.7-73.2-13.1c-1.2,1.7-2.3,3.5-3.4,5.4
				c22.6,9.2,48.7,14.4,76.6,14.4S1065.1,1031.4,1087.7,1022.2z M1067.7,998.7c-3.3-2.7-6.8-5.2-10.5-7.5c-14.6,3.2-30.1,5-46.2,5
				c-16.1,0-31.6-1.8-46.2-5c-3.7,2.2-7.2,4.7-10.5,7.5c17.5,4.9,36.6,7.6,56.6,7.6S1050.2,1003.6,1067.7,998.7z"/>
		</g>
		<path class="st6" d="M1089.8,1024.4c1.8,3.3,3.4,6.6,4.7,10.1c21.9-4.9,36-6,37.3-2.1c1.4,4.2-11,12.8-32,23.5
			c-20.3,10.4-48.9,22.6-80.9,34.3s-61.6,20.7-83.7,25.9c-22.8,5.3-37.6,6.5-39.1,2.4c-1.3-4.1,10.4-12.4,30.4-22.7
			c-1.1-3.7-1.8-7.3-2.3-11c-35.5,18.1-57.1,34.6-54.1,43.2c2.9,8.9,31.3,7.4,71.8-2.2c23.6-5.6,51.3-14,80.5-24.7
			c29.2-10.7,55.9-22.2,77.7-33.2c37.5-18.8,60.6-36.1,57.6-45C1155,1014.3,1128.2,1015.5,1089.8,1024.4z"/>
		<path d="M964.4,1205.5c0,5.7-4.2,10.6-12.9,10.6c-3.6,0-7.5-1-9.4-2.4l1.2-4c2.1,1.3,5.3,2.4,8.6,2.4c4.9,0,7.7-2.6,7.7-6.3
			c0-3.5-2-5.4-7-7.3c-6-2.1-9.8-5.3-9.8-10.5c0-5.8,4.8-10,12-10c3.8,0,6.5,0.9,8.2,1.8l-1.3,3.9c-1.2-0.7-3.7-1.8-7-1.8
			c-5,0-7,3-7,5.5c0,3.5,2.2,5.2,7.3,7.1C961.2,1197,964.4,1200,964.4,1205.5z M989.6,1209.2c0,2.3,0.1,4.6,0.4,6.4h-4.4l-0.4-3.3
			h-0.2c-1.5,2.1-4.3,3.9-8.1,3.9c-5.4,0-8.1-3.8-8.1-7.6c0-6.4,5.7-9.9,16-9.9v-0.5c0-2.2-0.6-6.1-6-6.1c-2.5,0-5,0.8-6.9,2
			l-1.1-3.2c2.2-1.4,5.4-2.4,8.7-2.4c8.1,0,10.1,5.5,10.1,10.9V1209.2z M984.9,1202c-5.3-0.1-11.2,0.8-11.2,6c0,3.1,2.1,4.6,4.6,4.6
			c3.5,0,5.6-2.2,6.4-4.4c0.2-0.5,0.3-1,0.3-1.5V1202z M1003,1181.4l-4.7,1.3v6.4h-4.1v3.7h4.1v14.5c0,3.1,0.5,5.5,1.9,6.9
			c1.2,1.3,3,2,5.2,2c1.9,0,3.3-0.3,4.3-0.7l-0.2-3.6c-0.6,0.2-1.5,0.3-2.8,0.3c-2.7,0-3.6-1.9-3.6-5.2v-14.3h6.9v-3.7h-6.9V1181.4z
			 M1037.5,1189h-4.8v16.3c0,0.9-0.2,1.8-0.4,2.5c-0.9,2.1-3.1,4.4-6.4,4.4c-4.4,0-5.9-3.4-5.9-8.4V1189h-4.8v15.5
			c0,9.3,5,11.6,9.2,11.6c4.7,0,7.5-2.8,8.8-4.9h0.1l0.3,4.3h4.3c-0.2-2.1-0.2-4.5-0.2-7.2V1189z M1049.9,1194.2h-0.2l-0.2-5.2h-4.2
			c0.2,2.5,0.2,5.2,0.2,8.3v18.3h4.8v-14.1c0-0.8,0.1-1.6,0.2-2.2c0.7-3.6,3.1-6.2,6.5-6.2c0.7,0,1.2,0.1,1.6,0.2v-4.6
			c-0.4-0.1-0.8-0.2-1.4-0.2C1054,1188.4,1051.1,1190.7,1049.9,1194.2z M1076.9,1188.4c-4.4,0-7.5,2.5-8.8,5h-0.1l-0.3-4.4h-4.3
			c0.2,2.2,0.2,4.4,0.2,7.2v19.4h4.8v-16c0-0.8,0.1-1.6,0.3-2.2c0.8-2.7,3.3-4.9,6.5-4.9c4.6,0,6.1,3.6,6.1,7.8v15.3h4.8v-15.8
			C1086.2,1190.6,1080.5,1188.4,1076.9,1188.4z"/>
	</g>
	<!-- Saturn -->
	<path class="st7" d="M1051.5,754.4"/>
	<g>
		<circle class="st8" cx="714.9" cy="1057.2" r="87"/>
		<path class="st9" d="M683.9,1131.9c0,1.2-1.3,2.2-2.9,2.2s-2.9-1-2.9-2.2c0-1.2,1.3-2.2,2.9-2.2S683.9,1130.7,683.9,1131.9z
			 M754.7,991.1c1.6,0,2.9-1,2.9-2.2c0-1.2-1.3-2.2-2.9-2.2s-2.9,1-2.9,2.2C751.8,990.1,753.1,991.1,754.7,991.1z M762.7,1090.3
			c0-1.2-1.3-2.2-2.9-2.2c-1.6,0-2.9,1-2.9,2.2c0,1.2,1.3,2.2,2.9,2.2C761.4,1092.5,762.7,1091.5,762.7,1090.3z M685.1,1024.7
			c0.1-0.8-0.7-1.3-2.8-3.4c-2.5-2.5-2.4-2.9-3.4-3.2c-1.8-0.5-4,0.6-5.2,2.1c-1.4,1.8-1.1,3.9-1.1,4.5c0.4,3.3,3.2,6.3,6.2,6.6
			c0.3,0,2.5,0.2,3.3-1.1c0.7-1-0.2-1.9,0.5-3.2C683.3,1025.5,684.9,1025.7,685.1,1024.7z M755.7,1059.4c0.6,0.9,1.8,0.9,3.3,1.1
			c4.5,0.6,4.5,1.8,7.3,1.8c0.6,0,5.3-0.1,6.5-2.9c1.2-2.6-1.3-6.1-3.6-7.8c-1.9-1.3-2.3-0.4-5.1-2.1c-1.9-1.2-3.4-2.6-5.2-2.1
			c-0.9,0.3-0.9,0.7-3.4,3.2c-2.1,2.1-3,2.6-2.8,3.4c0.2,1,1.7,0.8,2.5,2.3C755.9,1057.5,755,1058.4,755.7,1059.4z M777.8,1102.7
			c-6.9,2.2-24.4-7.1-45.3-2.2c-12.2,2.9-19.6,12.3-26.3,11.7c-3.8-0.3-18.8-19-43.6-18.2c-10.2,0.3-18.2,3.4-23.1,5.8
			c0.2,1.2,0.7,2.9,1.4,4.8c2.2,3.5,4.7,6.9,7.4,10c17.7,14.8,56.8,12.1,86.7,10c10.5-0.7,24.5-2.1,41.1-5.2
			c6.3-6.3,11.6-13.5,15.7-21.5C787.5,1097.6,783.2,1101,777.8,1102.7z M786.1,1067.5c-22.2-1.7-30.4,2-51.1,0.8
			c-8.8-0.5-25.4-1.5-28-6.4c-2.3-4.5,8.4-10.4,15.5-13.2c17.2-6.8,42.7-7.6,61.7-4.6c4.9,0.8,11.6,2.1,16.6,2.7
			c-0.4-3.2-1-6.4-1.8-9.5c-17.1-4.1-53.8-1.1-67.2-0.6c-45.7,1.7-85.1,7.9-104.2,15.5c-0.1,1.9-0.2,3.8-0.2,5.7
			c0,4.3,0.3,8.5,0.9,12.6c21.4,6.4,65.6,10.1,105.1,8.6c26.4-1,56.3-4,66.9-6.7c0.2-1.1,0.4-2.2,0.5-3.4
			C796.5,1068.3,789.5,1067.7,786.1,1067.5z M795.7,1026.9C795.7,1026.9,795.7,1026.9,795.7,1026.9c-2.2-5.8-5.1-11.3-8.4-16.5
			c0,0-0.1-0.1-0.1-0.1c-0.4-0.6-0.8-1.2-1.2-1.8c0-0.1-0.1-0.1-0.1-0.2c-0.4-0.6-0.8-1.1-1.2-1.7c0-0.1-0.1-0.1-0.1-0.2
			c-0.4-0.6-0.8-1.1-1.3-1.7c0,0-0.1-0.1-0.1-0.1c-2.3-3-4.9-5.9-7.6-8.6c-48.3,6.9-67.8,1.3-76.4-5.8c-1.8-1.5-7.2-6.3-15.3-7.3
			c-9.2-1.1-17.3,3.4-22.6,7.3c-4.3,2.9-10,7.4-15.5,14c0,0,0,0.1-0.1,0.1c-3.7,4.8-7,10-9.7,15.5c21-7.2,45.3-11.3,71.2-11.3
			C740.7,1008.6,771.4,1015.4,795.7,1026.9z"/>
		<path d="M664.2,1176.7h4.8v21.5c0,11.4-6,16-14,16c-7.6,0-13.3-4.3-13.3-15.8v-21.8h4.8v21.9c0,8.3,3.7,11.8,8.6,11.8
			c5.5,0,9-3.6,9-11.8V1176.7z M681.6,1192.3h-0.2l-0.2-5.2h-4.2c0.2,2.5,0.2,5.2,0.2,8.3v18.3h4.8v-14.1c0-0.8,0.1-1.6,0.2-2.2
			c0.7-3.6,3.1-6.2,6.5-6.2c0.7,0,1.2,0.1,1.6,0.2v-4.6c-0.4-0.1-0.8-0.2-1.4-0.2C685.7,1186.5,682.8,1188.8,681.6,1192.3z
			 M713.5,1207.3c0,2.3,0.1,4.6,0.4,6.4h-4.4l-0.4-3.3H709c-1.5,2.1-4.3,3.9-8.1,3.9c-5.4,0-8.1-3.8-8.1-7.6c0-6.4,5.7-9.9,16-9.9
			v-0.5c0-2.2-0.6-6.1-6-6.1c-2.5,0-5,0.8-6.9,2l-1.1-3.2c2.2-1.4,5.4-2.4,8.7-2.4c8.1,0,10.1,5.5,10.1,10.9V1207.3z M708.8,1200.1
			c-5.3-0.1-11.2,0.8-11.2,6c0,3.1,2.1,4.6,4.6,4.6c3.5,0,5.6-2.2,6.4-4.4c0.2-0.5,0.3-1,0.3-1.5V1200.1z M734.5,1186.5
			c-4.4,0-7.5,2.5-8.8,5h-0.1l-0.3-4.4H721c0.2,2.2,0.2,4.4,0.2,7.2v19.4h4.8v-16c0-0.8,0.1-1.6,0.3-2.2c0.8-2.7,3.3-4.9,6.5-4.9
			c4.6,0,6.1,3.6,6.1,7.8v15.3h4.8v-15.8C743.8,1188.7,738.1,1186.5,734.5,1186.5z M773.9,1187.1h-4.8v16.3c0,0.9-0.2,1.8-0.4,2.5
			c-0.9,2.1-3.1,4.4-6.4,4.4c-4.4,0-5.9-3.4-5.9-8.4v-14.7h-4.8v15.5c0,9.3,5,11.6,9.2,11.6c4.7,0,7.5-2.8,8.8-4.9h0.1l0.3,4.3h4.3
			c-0.2-2.1-0.2-4.5-0.2-7.2V1187.1z M790.5,1198.2c-3.5-1.3-5-2.3-5-4.5c0-2,1.6-3.6,4.4-3.6c2.5,0,4.4,0.9,5.4,1.5l1.2-3.5
			c-1.5-0.9-3.8-1.6-6.5-1.6c-5.7,0-9.2,3.5-9.2,7.8c0,3.2,2.2,5.8,7,7.5c3.6,1.3,4.9,2.6,4.9,4.9c0,2.2-1.6,3.9-5.2,3.9
			c-2.4,0-4.9-1-6.4-1.9l-1.2,3.7c1.9,1.1,4.6,1.8,7.5,1.8c6.3,0,9.9-3.3,9.9-8C797.4,1202.3,795.1,1200,790.5,1198.2z"/>
	</g>
	<!-- Uranus -->
	<g>
		<ellipse class="st10" cx="919.4" cy="372.6" rx="91.7" ry="94.5"/>
		<path class="st11" d="M878.6,332.2c-0.1,0.8-0.2,1.6-0.3,2.4c-4.1-0.6-8.1-1.2-13-1.9C870.9,326.8,874.1,335.4,878.6,332.2z
			 M917.8,279.1c-0.3-0.4-0.6-0.8-0.8-1c-31.9,0.7-59.8,18.3-75.7,44.4c0.2,0.7,0.4,1.4,0.5,2.1c0.1-0.2,0.2-0.3,0.3-0.5
			c0.5,3,0.2,6.2,1.5,8.4c1.4,2.4,4.2,3.9,5.8,5.9c2.5,4.5,4.3,9.5,7.6,13.2c2.5,2.9,3.1,5.1,1.8,8.2c-0.7,1.7-1.9,3.1-2.9,4.6
			c-4.9,7-4.7,14.8,0.5,21.3c1.3,1.6,3,3,4.2,4.7c1,1.4,1.3,3.3,2.2,4.8c4,7.1-0.7,14.5,0.9,21.7c0.4,1.7-0.6,3.6-0.5,5.4
			c0.1,7.9,0.4,15.8,6.1,22.1c1.6,1.8,3.8,3.1,6.5,4.1c-0.3-1.8-0.5-3.6-1-5.3c-1.8-6.4,0.5-11.8,5.6-15.1c5.8-3.9,9.8-9,13.6-14.6
			c0.9-1.3,2.4-2.6,3.8-2.9c5.5-1.3,8.2-5.4,10.6-10c1.7-3.2,3.3-6.4,5.4-9.3c3.3-4.6,2.9-8.3-1.7-11.4c-1.3-0.8-2.7-1.8-4.1-2
			c-5.7-0.9-7.5-5.4-9.9-9.7c-1.4-2.5-3-5.4-5.2-7c-6.9-4.6-14.2-8.6-21.5-12.6c-0.8-0.4-2.5,0.9-3.8,1.3c-1.9,0.7-4.4,2.3-5.7,1.7
			c-2.1-1-3.8-3.3-4.9-5.5c-1.1-2.2-1.3-4.8-1.5-7.3c-0.1-0.8,1-1.8,1.5-2.7c0.6-1.1,1.2-2.3,1.8-3.4c-1.1-0.3-2.3-0.9-3.3-0.8
			c-3.4,0.4-4.6-1.3-4.4-4.4c0.3-7.1,10.4-13.1,16.7-9.8c1.3,0.7,2.1,2.4,2.9,3.8c0.9,1.6,1.4,3.3,2.2,5.2c0.8-0.6,1-0.7,1-0.8
			c-0.1-7.4,3.9-11.8,10.4-14.1c4.9-1.7,10-2.8,15-4.3c2.3-0.7,4.4-1.8,6.7-2.4c1.3-0.3,2.8,0.4,4.1,0.1c1.6-0.3,3.7-0.8,4.6-2
			c1-1.5,2.6-4-1.1-5.2c2.9-3.1,1.9-5.6-1-7.6c-0.5-0.4-1.4-1-1.8-0.8c-2.9,1.3-5.7,2.8-8.5,4.2c-1.9,1-3.9,1.9-5.9,2.7
			c-0.1,0-1.1-1.5-1.2-2.4c-0.4-2.5,0.7-4.1,2.9-5.5c5.5-3.6,12.4-3.9,16.9-0.3c0.1,0.1,4.7-3.8,5-4.1c0.2-0.1,0.3-0.3,0.4-0.4
			c0.1-0.2,0-0.4,0-0.6C919.4,281.9,918.7,280.4,917.8,279.1z M968.4,293c-0.1,0.1-0.2,0.3-0.4,0.5c-0.3,0.3-0.8,0.5-1.3,0.6
			c-2.3,0.5-2.4,0.2-2.8,2.2c-0.2,1.1-0.1,2.7,0.1,3.8c0.5,3,2.4,4.2,5.1,4.9c2,0.4,3.7,2.7,6,4.5c0.1,0.9,0.3,2.6,0.6,4.4
			c0.4,2.7-3.1,6.3-6.6,6.9c-2.4,0.5-4.7,1.2-7.5,2c3,4.3,3.6,9.7,9.8,9.5c5.1-0.2,5.5-3.8,5.2-8c3,1,5.5,1.9,8.2,2.9
			c1.1,5,1.2,5.1,5.2,2.6c0.7,1.3,1.4,2.6,2.2,4.2c1-0.7,1.8-1.3,2.6-1.9c1,5.7,11,3.1,9.6,10.8c-4.8,0.5-8.7-1-13-3.8
			c-8.2-5.4-17.6-6.3-26.7-2.3c-4,1.8-7.3,5.3-10.7,8.3c-1.1,0.9-1.8,2.6-2,4c-0.8,4.5-1.1,9.2-2.1,13.7c-1.2,5.4-0.5,9.6,4.1,13.5
			c5.5,4.6,10.9,8.3,18.5,6.8c1.8-0.4,3.8,0.5,5.7,0.9c1.5,0.3,2.9,0.7,5.4,1.3c-0.3,2.1-0.2,5-1.1,7.4c-1.4,3.9-1.8,7.6-0.1,11.5
			c1.7,3.7,0.7,6.9-2,9.7c-4.2,4.2-5.9,8.8-4.4,15c0.6,2.2-1,5-1.8,7.5c-1.2,3.9-3.7,6.5-3.2,10.8c0.1,0.5,0.1,1.1,0.6,1.5
			c0.4,0.3,1,0.3,1.4,0.1c0.7-0.3,1.4-0.8,2.1-1.3c21.6-17.3,35.5-44.3,35.5-74.7C1010.7,339.2,993.8,309.8,968.4,293z M963.1,313.5
			c0.9,0.8,2.7,1.2,3.9,0.8c0.9-0.3,2-2.2,1.7-3.1c-1.3-4.2-4.6-6.5-8.4-8.6c-0.3,1.7-0.4,2.8-0.7,3.9c-0.2,0.9-0.7,1.8-1,2.6
			c1.1,0.2,2.1,0.4,3.3,0.7C962.2,311,962.2,312.7,963.1,313.5z M933.2,295.2c2,0.8,4,1.5,6.8,2.6c0.3-2.3,0.5-3.9,0.8-5.5
			c-2.5,0.4-5,0.7-7.4,1.1C933.2,294,933.2,294.6,933.2,295.2z M921.5,291.7c0.4,3.1,2.2,4.6,4.6,6.2c1.7-2.1,3.4-4.4,5.3-6.4
			c1.4-1.4,3.4-2.1,5-3.3c2.1-1.6,3.6-5.1,6.2-5.8c0.2,0,0.4-0.1,0.5-0.2c0.1-0.1,0.1-0.2,0.2-0.4c0-0.1,0-0.2,0-0.4
			c-6.2-1.8-12.7-2.9-19.3-3.2C921,280.8,921,288,921.5,291.7z"/>
		<path d="M867.7,517.3h16v4h-20.8v-37h20v4h-15.2V500H882v3.9h-14.4V517.3z M908.4,515c0,2.3,0.1,4.6,0.4,6.4h-4.4L904,518h-0.2
			c-1.5,2.1-4.3,3.9-8.1,3.9c-5.4,0-8.1-3.8-8.1-7.6c0-6.4,5.7-9.9,16-9.9v-0.5c0-2.2-0.6-6.1-6-6.1c-2.5,0-5,0.8-6.9,2l-1.1-3.2
			c2.2-1.4,5.4-2.4,8.7-2.4c8.1,0,10.1,5.5,10.1,10.9V515z M903.7,507.8c-5.3-0.1-11.2,0.8-11.2,6c0,3.1,2.1,4.6,4.6,4.6
			c3.5,0,5.6-2.2,6.4-4.4c0.2-0.5,0.3-1,0.3-1.5V507.8z M920.5,500h-0.2l-0.2-5.2h-4.2c0.2,2.5,0.2,5.2,0.2,8.3v18.3h4.8v-14.1
			c0-0.8,0.1-1.6,0.2-2.2c0.7-3.6,3.1-6.2,6.5-6.2c0.7,0,1.2,0.1,1.6,0.2v-4.6c-0.4-0.1-0.8-0.2-1.4-0.2
			C924.7,494.2,921.8,496.4,920.5,500z M941.2,487.2l-4.7,1.3v6.4h-4.1v3.7h4.1v14.5c0,3.1,0.5,5.5,1.9,6.9c1.2,1.3,3,2,5.2,2
			c1.9,0,3.3-0.3,4.3-0.7l-0.2-3.6c-0.6,0.2-1.5,0.3-2.8,0.3c-2.7,0-3.6-1.9-3.6-5.2v-14.3h6.9v-3.7h-6.9V487.2z M966.9,494.2
			c-1.8,0-3.5,0.5-4.9,1.4c-1.5,0.8-2.7,2-3.5,3.4h-0.1v-16.6h-4.8v38.9h4.8v-16c0-0.9,0.1-1.6,0.3-2.3c0.9-2.6,3.3-4.8,6.5-4.8
			c4.6,0,6.1,3.6,6.1,7.9v15.2h4.8v-15.8C976.1,496.4,970.4,494.2,966.9,494.2z"/>
	</g>
	<!-- Neptune -->
	<g>
		<circle class="st12" cx="332.5" cy="762" r="82.5"/>
		<path class="st8" d="M345.1,809.4c23.1,0,42.8,2.1,50.6,5.1c-2.2,2.7-4.7,5.2-7.2,7.6c-9.9,1.9-25.6,3.2-43.4,3.2
			c-29.9,0-54.2-3.5-54.2-7.9C290.9,813,315.1,809.4,345.1,809.4z M306.1,749.4c0-4.7-15.3-8.4-34.2-8.4c-7.3,0-14.1,0.6-19.7,1.5
			c-0.1,0.5-0.2,1-0.3,1.5c-0.8,3.9-1.4,7.9-1.7,11.9c5.9,1.2,13.5,1.9,21.7,1.9C290.8,757.8,306.1,754.1,306.1,749.4z M361.6,793.8
			c-1.3-2.4-3-5.5-7-6.7c-4.1-1.2-8.8-0.3-10.8,0c-21.4,3.8-56.3,0.9-57.4-2.4c-0.1-0.2,0-0.4,0.2-0.6c1.3-1.9,6.9-8.6,17-10.6
			c16.5-3.3,33.2,8.2,41,4.6c2.2-1,4.1-3.8,4.7-6.7c1.6-7.6-29.5-4-47.7-4c-19.8,0-37.7,1.8-50.9,4.7c1.2,9.1,3.8,17.7,7.7,25.7
			c12.1,2,27.1,3.2,43.2,3.2C326.4,800.9,366,802.1,361.6,793.8z M383.8,751.5c-15.8,0-28.7,3.4-28.7,7.6c0,4.2,12.8,7.6,28.7,7.6
			s28.7-3.4,28.7-7.6C412.5,754.9,399.6,751.5,383.8,751.5z M296.1,738.9c5.7,4.8,26.2-1.6,60.3-6.8c29.4-4.5,43.6-4.3,49.3-7.2
			c-4-7.9-9.3-15.1-15.6-21.2c-1.8-1.1-3.6-2.1-5.3-3.1c-2.7-1.6-14.3-8.2-33.4-13.7c-1.6-0.5-18.9-5.3-30.9-6.1
			c-3.9,0.6-7.6,1.4-11.3,2.4c-0.6,1.4,0.4,3-1.8,5.5c-3.5,4-9.8,4-10.3,6.1c-0.7,2.6,8,6.3,17.6,8.3c21.9,4.6,42.6-0.7,50.1,3.8
			c4.9,2.9,6.1,6.7,6.1,6.7c0.2,0.7,0.3,1,0.2,1.2c-2.2,3-28.2-7.1-43.8-1c-5.1,2-7.3,5-14.3,5.6c-5.6,0.5-8-1.7-10.9-0.1
			c-4.1,2.4-5.8,8.4-7.1,13.1C293.9,735.8,294.8,737.7,296.1,738.9z"/>
		<path d="M298.6,865.6c-2.2-2-5.6-3.1-10.4-3.1c-3.8,0-6.9,0.3-9.2,0.7v36.5h4.8v-14.8c1.1,0.3,2.4,0.3,3.8,0.3
			c4.7,0,8.8-1.4,11.3-4.1c1.9-1.9,2.9-4.6,2.9-7.9C301.9,870,300.6,867.3,298.6,865.6z M287.8,881.4c-1.6,0-2.9-0.1-3.9-0.4v-14.4
			c0.8-0.2,2.4-0.4,4.5-0.4c5.3,0,8.7,2.4,8.7,7.2C297.1,878.6,293.6,881.4,287.8,881.4z M307.8,860.8h4.8v38.9h-4.8V860.8z
			 M343,892.5c0,2.7,0.1,5.2,0.2,7.2h-4.3l-0.3-4.3h-0.1c-1.3,2.1-4.1,4.9-8.8,4.9c-4.2,0-9.2-2.3-9.2-11.6v-15.5h4.8v14.7
			c0,5,1.5,8.4,5.9,8.4c3.2,0,5.5-2.2,6.4-4.4c0.3-0.7,0.4-1.6,0.4-2.5v-16.3h4.8V892.5z M356.8,873.2h6.9v3.7h-6.9v14.3
			c0,3.3,0.9,5.2,3.6,5.2c1.3,0,2.2-0.2,2.8-0.3l0.2,3.6c-0.9,0.4-2.4,0.7-4.3,0.7c-2.2,0-4.1-0.7-5.2-2c-1.4-1.4-1.9-3.8-1.9-6.9
			v-14.5H348v-3.7h4.1v-6.4l4.7-1.3V873.2z M380,872.6c-7.3,0-13.2,5.2-13.2,14.1c0,8.4,5.5,13.7,12.7,13.7
			c6.4,0,13.2-4.3,13.2-14.1C392.8,878.1,387.7,872.6,380,872.6z M379.8,896.7c-4.7,0-8.1-4.4-8.1-10.2c0-5,2.5-10.3,8.2-10.3
			s8,5.7,8,10.2C387.9,892.4,384.4,896.7,379.8,896.7z"/>
	</g>
	<!-- Pluto -->
	<g>
		<ellipse class="st10" cx="414.6" cy="1041.6" rx="90.5" ry="91.9"/>
		<path class="st9" d="M397.2,995.9c0,6.9-12.6,12.6-28.1,12.6s-28.1-5.6-28.1-12.6c0-6.9,12.6-12.6,28.1-12.6
			S397.2,988.9,397.2,995.9z M417.1,968.4c0-3-2-5.5-4.5-5.5s-4.5,2.5-4.5,5.5c0,3,2,5.5,4.5,5.5S417.1,971.5,417.1,968.4z
			 M491.7,1059.7c-4.6-10.4-22.4-12.7-39.9-5.1c-17.5,7.6-27.9,22.3-23.3,32.7c4.6,10.4,22.4,12.7,39.9,5.1
			C485.8,1084.8,496.2,1070.2,491.7,1059.7z M406.2,1106.8c-1.8,0-3.2,1.6-3.2,3.5c0,2,1.4,3.5,3.2,3.5c1.8,0,3.2-1.6,3.2-3.5
			C409.4,1108.4,408,1106.8,406.2,1106.8z M380.7,1074.2c-5.9,0-10.6,3.5-10.6,7.7s4.8,7.7,10.6,7.7c5.9,0,10.6-3.5,10.6-7.7
			S386.6,1074.2,380.7,1074.2z M462.9,1009.1c7.1,0,12.9-2,12.9-4.5c0-2.5-5.8-4.5-12.9-4.5c-7.1,0-12.9,2-12.9,4.5
			C450,1007.1,455.8,1009.1,462.9,1009.1z M354,1026.8c-5.2,0-9.4,4.2-9.4,9.4c0,5.2,4.2,9.4,9.4,9.4c5.2,0,9.4-4.2,9.4-9.4
			C363.3,1031,359.1,1026.8,354,1026.8z M418.5,1024.2c-3.4,0-6.1,5.1-6.1,11.3s2.7,11.3,6.1,11.3c3.4,0,6.1-5.1,6.1-11.3
			S421.8,1024.2,418.5,1024.2z"/>
		<path d="M338.3,1174.1h4.5v37h-4.8l-11.7-18.8c-2.6-4.1-5-8.3-6.9-12.3l-0.2,0.1c0.3,4.7,0.4,9.1,0.4,15.2v15.8H315v-37h5.2
			l11.8,18.7c2.7,4.3,4.9,8.2,6.6,12l0.1-0.1c-0.4-4.9-0.5-9.4-0.5-15.2V1174.1z M372.4,1196.4c0,1-0.1,1.8-0.2,2.2h-18.6
			c0.1,6.5,4.3,9.2,9.1,9.2c3.5,0,5.5-0.6,7.3-1.4l0.8,3.5c-1.7,0.8-4.6,1.6-8.8,1.6c-8.2,0-13.1-5.4-13.1-13.4
			c0-8,4.7-14.3,12.4-14.3C370.1,1183.9,372.4,1191.5,372.4,1196.4z M367.8,1195.2c0.1-3.1-1.3-7.8-6.7-7.8c-4.9,0-7,4.5-7.4,7.8
			H367.8z M403.5,1197.4c0,9.5-5.8,14.3-12.1,14.3c-3.5,0-6.6-1.5-8.2-4.2h-0.1v14.4h-4.8v-28.7c0-3.4-0.1-6.1-0.2-8.7h4.3l0.2,4.6
			h0.1c2-3.2,5.1-5.2,9.4-5.2C398.7,1183.9,403.5,1189.3,403.5,1197.4z M398.7,1197.6c0-5.3-2.8-9.9-7.9-9.9c-3.3,0-6.4,2.4-7.3,6
			c-0.2,0.6-0.3,1.3-0.3,2v4.6c0,0.7,0.1,1.4,0.2,2c0.9,3.3,3.8,5.6,7.2,5.6C395.7,1207.9,398.7,1203.7,398.7,1197.6z M415.4,1176.9
			l-4.7,1.3v6.4h-4.1v3.7h4.1v14.5c0,3.1,0.5,5.5,1.9,6.9c1.2,1.3,3,2,5.2,2c1.9,0,3.3-0.3,4.3-0.7l-0.2-3.6
			c-0.6,0.2-1.5,0.3-2.8,0.3c-2.7,0-3.6-1.9-3.6-5.2v-14.3h6.9v-3.7h-6.9V1176.9z M449.9,1184.5h-4.8v16.3c0,0.9-0.2,1.8-0.4,2.5
			c-0.9,2.1-3.1,4.4-6.4,4.4c-4.4,0-5.9-3.4-5.9-8.4v-14.7h-4.8v15.5c0,9.3,5,11.6,9.2,11.6c4.7,0,7.5-2.8,8.8-4.9h0.1l0.3,4.3h4.3
			c-0.2-2.1-0.2-4.5-0.2-7.2V1184.5z M471.2,1183.9c-4.4,0-7.5,2.5-8.8,5h-0.1l-0.3-4.4h-4.3c0.2,2.2,0.2,4.4,0.2,7.2v19.4h4.8v-16
			c0-0.8,0.1-1.6,0.3-2.2c0.8-2.7,3.3-4.9,6.5-4.9c4.6,0,6.1,3.6,6.1,7.8v15.3h4.8v-15.8C480.5,1186.1,474.8,1183.9,471.2,1183.9z
			 M509.7,1198.6h-18.6c0.1,6.5,4.3,9.2,9.1,9.2c3.5,0,5.5-0.6,7.3-1.4l0.8,3.5c-1.7,0.8-4.6,1.6-8.8,1.6c-8.2,0-13.1-5.4-13.1-13.4
			c0-8,4.7-14.3,12.4-14.3c8.7,0,11,7.6,11,12.5C509.9,1197.4,509.8,1198.2,509.7,1198.6z M505.2,1195.2c0.1-3.1-1.3-7.8-6.7-7.8
			c-4.9,0-7,4.5-7.4,7.8H505.2z"/>
	</g>
	<!-- Sun -->
	<g>
		<g>
			<polygon class="st13" points="609,597 636.4,655.4 697.4,627.1 678.3,688.4 744.4,703.5 687.8,738.9 728,790.3 660.4,783.3 
				656,847 609,800.8 562,847 557.6,783.3 490,790.3 530.2,738.9 473.6,703.5 539.7,688.4 520.7,627.1 581.7,655.4 			"/>
			<ellipse class="st14" cx="609" cy="722" rx="66.4" ry="64.3"/>
		</g>
		<path d="M589.2,888.7c0,6.6-5.1,12.4-15.5,12.4c-4.3,0-8.9-1.2-11.3-2.7l1.4-4.6c2.6,1.5,6.3,2.8,10.3,2.8c5.9,0,9.3-3,9.3-7.3
			c0-4-2.4-6.3-8.4-8.5c-7.2-2.5-11.7-6.1-11.7-12.2c0-6.7,5.7-11.7,14.3-11.7c4.5,0,7.8,1,9.8,2.1l-1.6,4.5c-1.4-0.8-4.4-2-8.4-2
			c-6.1,0-8.4,3.5-8.4,6.4c0,4,2.7,6,8.8,8.3C585.4,878.9,589.2,882.4,589.2,888.7z M623.5,869.6h-5.8v18.9c0,1-0.2,2-0.5,2.9
			c-1.1,2.5-3.7,5.1-7.6,5.1c-5.3,0-7.1-3.9-7.1-9.8v-17.1h-5.8v18c0,10.8,6,13.5,11,13.5c5.7,0,9-3.2,10.5-5.7h0.1l0.3,5h5.1
			c-0.2-2.4-0.3-5.2-0.3-8.4V869.6z M649,868.9c-5.3,0-8.9,2.9-10.5,5.8h-0.1l-0.3-5.1h-5.1c0.2,2.5,0.3,5.2,0.3,8.3v22.5h5.8v-18.5
			c0-1,0.1-1.9,0.4-2.6c1-3.1,3.9-5.7,7.8-5.7c5.5,0,7.4,4.1,7.4,9.1v17.8h5.8V882C660.2,871.5,653.4,868.9,649,868.9z"/>
	</g>
	<!-- Moon -->
	<g>
		<g>
			<path class="st15" d="M1004.2,726.3c0-57-46.2-103.2-103.2-103.2c-21.7,0-41.9,6.7-58.6,18.2c-1.6-3-3.8-5.2-5.6-5.2
				c-1.3,0-3.2,2.8-6.8,8.5c-4.5,7-4.6,8.2-4.2,9.2c0.2,0.4,0.4,0.8,0.6,1.1c-17.8,18.5-28.7,43.7-28.7,71.4
				c0,13.7,2.7,26.8,7.6,38.8c-2.6,1-5.1,3.7-5,6.7c0.1,4.8,6.4,6.9,7.1,7.1c1.4,0.4,3.4,0.8,5.1,0.7c18.1,29.9,50.9,49.8,88.3,49.8
				c33.1,0,62.5-15.6,81.4-39.8c2.5,0.5,5.6,0.5,6.8-1.3c1.1-1.5,0.6-4.5-0.8-7.3C998.4,765.2,1004.2,746.4,1004.2,726.3z"/>
			<path class="st16" d="M886.8,787.9c1.4,0,2.6,0.2,3.3,0.5c-0.3,0.2-0.6,0.5-0.9,0.7c-1.8,1.4-4.6,3.6-5.9,7.2
				c-1.1,3-0.6,5.4-0.3,7c0.1,0.3,0.1,0.6,0.2,0.8c-1,0.2-3.6-0.1-6.3-1.5c-2.1-1.1-3.6-2.6-3.6-3.7c0-1,1.5-2.9,3.9-5.7
				c2-2.4,3-3.5,4.4-4.2C883.2,788.2,885.1,787.9,886.8,787.9z M950.3,769.3c0.5,0,1.2,0,1.6,0c-0.6-1.5-3.2-4.8-7.9-8
				c-6.4-4.5-12.8-6.2-16.9-4.6c-1.5,0.6-3,1.7-4.4,2.7c-2.8,2-5.9,4.4-9.5,3.1c-1.5-0.5-2.4-1.5-2.9-2.1c-0.4-0.5-0.5-0.6-0.7-0.6
				c-0.1,0-0.2,0-0.3,0c-0.8,0-2.1,0.5-3.5,1.7c-2.4,2-5,5.6-5,9c0,3.4,3,7.4,7.7,10.5c5.8,3.8,12.8,5.2,17,3.4
				c2.1-0.9,3.1-2.4,4.5-4.5c1.6-2.5,3.7-5.5,8.3-7.9C943.2,769.3,947.4,769.3,950.3,769.3z M850.8,747.2c-0.1,0-0.1,0-0.2,0
				c-0.3,0-0.6,0-0.8,0c-0.9,1.2-2,2.8-2.1,4.8c-0.1,3.3,2.7,4.2,4.9,8.8c1.6,3.4,2.4,7.8,1.8,10.9c1.8-1.7,3.9-4.2,6.7-7.7
				c2.6-3.2,3.9-4.8,3.9-6.1v0c0.1-1.7-0.9-3.7-2.6-5.6C859.4,749.2,854.9,747.2,850.8,747.2z M920.4,672c0.1-0.1,0.2-0.2,0.2-0.4
				c0.4-0.7,1.1-1.7,2.4-2.3c0.7-0.3,1.3-0.5,2-0.5c2.4,0,4.4,2,6.1,3.7c1.1,1.1,2.1,2.1,3.2,2.7c2.9,1.5,6.9-0.8,9-2.3
				c4.8-3.5,8.2-8.6,8.7-10.6c-0.2,0-0.5,0-0.7,0c-1.2,0-2.8,0-4.6-0.5c-1.4,1.6-3.8,2.4-4.1,2.5c-1.8,0.6-5.1,1-6.2-0.6
				c-1.1-1.5,0-5.1,2.1-7.4c-1.3-1.7-2.2-3.4-3-5c-1-2-1.8-3.6-3.2-4.4c-2.1-1.2-5.3-0.8-8.6,1.1c-5.2,3-8.9,8.4-9,13.1
				c0,3.6,2,7.5,4,9.6C919.5,671.6,920.1,671.9,920.4,672z M844.3,707.3c0.3,0.5,0.6,1.1,0.9,1.5c1-0.9,2.9-5,1.9-8.7
				c-0.4-1.5-1.4-2.7-3.6-5.1c-3-3.4-4.4-5-5.7-5.2c-1.7-0.3-4.2,1.2-6.3,3.6c-1.9,2.2-2.5,4.1-2.5,4.9c0.3,0,0.9,0,1.3,0.1
				c1.8,0,4.5,0.1,7.5,1.7C841.5,702.1,843.2,705.2,844.3,707.3z M902.3,711.5c-0.3-0.4-0.5-0.9-0.6-1.4c-0.3-0.6-0.7-0.7-0.7-0.8
				c-0.1,0-0.3-0.1-0.5-0.1c-0.7,0-1.8,0.3-3.1,1.2c-1.7,1.2-3.8,3.6-3.8,6.3c0,2.7,2,5.1,3.8,6.3c1.5,1.1,2.9,1.4,3.6,1.1
				c1.2-0.4,2.1-4.1,1.9-8.1C902.8,714,902.6,712.5,902.3,711.5z M966.1,695.5c-2.4,0-4.9,1.5-6.8,4.2c-1.9,2.7-2.8,6-2.2,7.9
				c0.5,1.4,2,2.6,3.4,3.6c1.7,1.3,3.9,2.9,3.1,5.4c-0.5,1.6-1.8,2.2-2.8,2.6c1.1,0.9,3.2,2,5.3,2c4.9,0,8.9-5.8,8.9-12.9
				C975.1,701.3,971.1,695.5,966.1,695.5z M1004.9,726.3c0,57-46.2,103.2-103.2,103.2c-57,0-103.2-46.2-103.2-103.2
				c0-57,46.2-103.2,103.2-103.2C958.8,623.1,1004.9,669.3,1004.9,726.3z M910.2,661.1c-0.1,5.6,3.3,11.4,6.6,13.9
				c2.1,1.6,3.8,1.5,4.9,1.2c1.4-0.4,2.1-1.5,2.6-2.2c0.3-0.4,0.4-0.6,0.6-0.7c0.5-0.2,2.2,1.5,3.1,2.4c1.2,1.2,2.6,2.6,4.2,3.5
				c1.3,0.7,2.7,1,4.2,1c3.3,0,7-1.6,10.8-4.7c4.5-3.6,10.2-10.7,9-14.9c-0.8-2.7-3.3-2.7-5-2.7c-1.2,0-2.6,0-4.1-0.5
				c-0.9-1.8-2.9-3.1-4.6-3.1c0,0-0.1,0-0.1,0c-1.4-1.5-2.2-3.2-3-4.8c-1.2-2.3-2.4-4.8-5-6.3c-3.5-2-8.2-1.6-13,1.1
				C915.9,647.4,910.3,653.8,910.2,661.1z M909.4,673.3l-2.3,1.8c2.1,2.8,4.5,5.3,7.1,7.5c1.5,1.3,3.3,2.6,5.5,2.6
				c1.9,0.1,3.6-0.8,5-1.5c1.1-0.6,2.1-1.1,3.1-1.2c1.9-0.2,3.8,1,5.8,2.3c0.4,0.3,0.8,0.5,1.2,0.8c1.7,1,3.8,1.9,5.8,1.9
				c1.5,0,2.9-0.4,4.1-1.6l-2.1-2.1c-1.4,1.4-4.1,0.6-6.3-0.7c-0.4-0.2-0.7-0.5-1.1-0.7c-2.2-1.5-4.8-3.1-7.8-2.8
				c-1.6,0.2-2.9,0.9-4.2,1.5c-1.2,0.6-2.4,1.3-3.6,1.2c-1.3-0.1-2.6-1-3.7-2C913.6,678.3,911.4,675.9,909.4,673.3z M907.2,713.9
				c2.4-0.3,4.3-2.4,4.3-4.9c0-2.7-2.2-4.9-4.9-4.9c-1.3,0-2.5,0.5-3.4,1.4c-0.2-0.1-0.4-0.2-0.6-0.3c-2.1-0.8-5-0.2-7.6,1.6
				c-2.7,1.9-5.7,5.5-5.7,10c0,4.4,2.9,8,5.7,9.9c1.9,1.3,3.9,2,5.6,2c0.7,0,1.4-0.1,2-0.3c4.7-1.7,4.9-9.2,4.8-12.4v0
				C907.3,715.5,907.3,714.7,907.2,713.9z M868,631c1.6,5.8,7.9,8.7,13.5,9.1c3,0.2,6-0.1,8.9-0.5c2.2-0.3,4.5-0.5,6.7-0.5
				c3.5,0,6.9,0.6,10.2,1.8l1-2.8c-3.6-1.4-7.3-2-11.2-2c0,0,0,0,0,0c-2.4,0-4.7,0.3-7,0.5c-2.9,0.3-5.6,0.6-8.4,0.5
				c-4.5-0.3-9.6-2.6-10.8-7L868,631z M877.6,670.5c-4-0.1-7.3,6.2-5.7,8.3c1,1.4,4.1,1,5.7,0.5c0.5-0.1,4.7-1.4,4.7-4.4
				C882.4,672.6,879.8,670.6,877.6,670.5z M826.8,687.6l5.3-2.5c1.6-0.7,3.2-1.5,4.9-1.7c3.8-0.4,7.4,2.2,10.7,4.9l1.8-2.3
				c-3.9-3-8-6-12.9-5.5c-2.1,0.2-4.1,1.1-5.8,1.9l-5.3,2.5c-4.4,2-8.5,4.5-9.3,9l2.9,0.5C819.8,691.3,823.2,689.3,826.8,687.6z
				 M830.1,702.7c1.6,0,3.4,0.1,5.5,1.2c2.6,1.4,3.8,3.6,4.8,5.5c1,1.8,2.2,3.9,4.6,3.9c0.1,0,0.2,0,0.3,0c1.5-0.1,2.9-1,4-2.6
				c1.8-2.6,3.3-7.4,2-11.8c-0.7-2.5-2.1-4-4.5-6.8c-3.5-4-5.4-6.2-8.4-6.6c-4.6-0.7-9,3.1-11.5,6.5c-1.1,1.6-3.5,5.6-1.9,8.6
				C826.2,702.6,828.4,702.7,830.1,702.7z M858.2,800.7c0-4.1-3.3-7.4-7.4-7.4c-4.1,0-7.4,3.3-7.4,7.4c0,4.1,3.3,7.4,7.4,7.4
				C854.9,808.1,858.2,804.8,858.2,800.7z M864.5,766.8c3-3.7,4.8-5.9,4.9-8.7c0.1-2.9-1.2-6-3.8-8.8c-3.8-4-9.4-6.5-14.7-6.6
				c-8.3-0.1-17.7,5.4-19.1,14.9c-0.8,5.2,1.1,10.7,5.3,15c3.6,3.7,8.3,5.9,12.4,5.9c0.5,0,0.9,0,1.4-0.1
				C855.5,777.8,858.5,774.2,864.5,766.8z M894.9,787.2c-0.2-0.8-0.9-2-2.8-2.8c-2.9-1.3-8.2-1.5-12.4,0.6c-2.2,1.1-3.5,2.6-5.8,5.3
				c-3.3,3.8-5.1,6-5,8.7c0.1,3,2.6,5.8,6.7,7.8c2,0.9,4.5,1.7,6.7,1.7c1.4,0,2.8-0.3,3.8-1.1c1.9-1.5,1.5-3.6,1.2-5.1
				c-0.3-1.4-0.6-2.7,0.1-4.6c0.9-2.4,2.8-3.9,4.4-5.2C893.6,791.2,895.6,789.7,894.9,787.2z M933.7,782.3c1.5-2.3,3.1-4.6,6.7-6.5
				c3.9-2.1,7.4-2.1,9.9-2.1c2.3,0,5,0,5.9-2.5h0c1.1-2.9-1.7-6.7-4.3-9.3c-5.7-5.7-17.4-12.9-26.3-9.5c-2,0.8-3.8,2.1-5.4,3.3
				c-2.5,1.9-4.1,2.9-5.5,2.5c-0.4-0.2-0.7-0.4-1.1-0.9c-0.6-0.6-1.4-1.6-3-2c-2.2-0.5-4.9,0.4-7.6,2.5c-3.1,2.5-6.7,7.2-6.6,12.4
				c0.1,5,3.6,10.2,9.7,14.1c4.9,3.2,10.3,4.9,15,4.9c2.2,0,4.3-0.4,6.1-1.1C930.5,787,932.1,784.6,933.7,782.3z M960.2,740.7
				c1.4-0.1,3-3.4,3-7.1c0-4.8-2.7-6.9-3-7.1c-1.1-0.8-3-1.4-3.7,0.8C955.6,730.7,957.7,740.9,960.2,740.7z M970.8,779.8
				c-6.1-0.7-12.4-1.1-17.3,2.4c-0.9,0.6-1.7,1.4-2.4,2.1c-0.8,0.7-1.5,1.4-2.3,2c-3.5,2.4-8.2,2.1-13.1,1.5l-0.3,2.9
				c2,0.2,4,0.4,5.9,0.4c3.3,0,6.5-0.6,9.2-2.4c1-0.7,1.9-1.5,2.7-2.3c0.7-0.7,1.4-1.3,2.1-1.8c4-2.9,9.5-2.5,15.2-1.9L970.8,779.8z
				 M979.5,708.4c0-9.5-6-17.3-13.3-17.3c-3.9,0-7.7,2.2-10.4,6.1c-2.8,3.9-3.9,8.6-2.8,11.9c0.9,2.7,3.2,4.5,4.9,5.7
				c0.2,0.2,0.5,0.3,0.7,0.5c-1,0.3-2.5,1-2.8,2.6c-0.2,0.8-0.1,2,1,3.4c1.7,2.1,5.5,4.3,9.4,4.3
				C973.5,725.7,979.5,717.9,979.5,708.4z"/>
		</g>
		<path d="M874.3,847.6l2.7,44h-5.6l-1.1-19.3c-0.3-6.1-0.7-13.5-0.7-19h-0.2c-1.5,5.2-3.3,10.6-5.6,16.7l-7.8,21.4h-4.3l-7.1-21
			c-2.1-6.2-3.9-11.9-5.1-17.1h-0.1c-0.1,5.5-0.5,12.9-0.8,19.5l-1.2,18.9h-5.4l3.1-44h7.3l7.5,21.3c1.8,5.4,3.3,10.3,4.4,14.8h0.2
			c1.1-4.4,2.7-9.3,4.6-14.8l7.8-21.3H874.3z M914.6,875.6c0,11.7-8.1,16.8-15.7,16.8c-8.6,0-15.2-6.3-15.2-16.3
			c0-10.6,6.9-16.8,15.7-16.8C908.5,859.3,914.6,865.9,914.6,875.6z M908.7,875.8c0-5.4-2.7-12.2-9.5-12.2s-9.7,6.3-9.7,12.3
			c0,6.9,4,12.2,9.6,12.2C904.6,888,908.7,882.9,908.7,875.8z M950.5,875.6c0,11.7-8.1,16.8-15.7,16.8c-8.6,0-15.2-6.3-15.2-16.3
			c0-10.6,6.9-16.8,15.7-16.8C944.3,859.3,950.5,865.9,950.5,875.6z M944.6,875.8c0-5.4-2.7-12.2-9.5-12.2s-9.7,6.3-9.7,12.3
			c0,6.9,4,12.2,9.6,12.2C940.5,888,944.6,882.9,944.6,875.8z M973.5,859.3c-5.2,0-8.9,2.9-10.5,5.9h-0.1l-0.3-5.2h-5.1
			c0.2,2.6,0.3,5.3,0.3,8.6v23.1h5.7v-19c0-1,0.1-2,0.4-2.7c1-3.2,3.9-5.9,7.7-5.9c5.4,0,7.3,4.2,7.3,9.3v18.2h5.7v-18.9
			C984.6,861.9,977.8,859.3,973.5,859.3z"/>
	</g>
</g>
</svg>
