<svg width="350" height="350" xmlns="http://www.w3.org/2000/svg" xml:space="preserve" version="1.1">

 <g>
  <title>Layer 1</title>
  <g stroke="null" id="svg_1">
   <path stroke="null" id="svg_2" fill="#5C6AB1" class="st7"/>
   <g stroke="null" id="svg_3">
    <ellipse stroke="null" id="svg_4" fill="#243E90" ry="174.16824" rx="169.0077" cy="175.70669" cx="175.16153" class="st10"/>
    <path stroke="null" id="svg_5" fill="#166734" d="m99.96508,101.24747c-0.18431,1.47444 -0.36861,2.94888 -0.55292,4.42332c-7.55651,-1.10583 -14.92871,-2.21166 -23.95965,-3.5018c10.32108,-10.874 16.21884,4.97624 24.51257,-0.92153zm72.24756,-97.86596c-0.55292,-0.73722 -1.10583,-1.47444 -1.47444,-1.84305c-58.7933,1.29014 -110.2144,33.72782 -139.51889,81.83143c0.36861,1.29014 0.73722,2.58027 0.92153,3.87041c0.18431,-0.36861 0.36861,-0.55292 0.55292,-0.92153c0.92153,5.52915 0.36861,11.42691 2.76458,15.48162c2.58027,4.42332 7.74081,7.1879 10.68969,10.874c4.60763,8.29373 7.92512,17.50898 14.00718,24.32826c4.60763,5.34485 5.71346,9.39956 3.31749,15.11301c-1.29014,3.13319 -3.5018,5.71346 -5.34485,8.47803c-9.03095,12.90135 -8.66234,27.27714 0.92153,39.25697c2.39597,2.94888 5.52915,5.52915 7.74081,8.66234c1.84305,2.58027 2.39597,6.08207 4.05471,8.84664c7.3722,13.08566 -1.29014,26.72423 1.65875,39.99419c0.73722,3.13319 -1.10583,6.63498 -0.92153,9.95247c0.18431,14.5601 0.73722,29.12019 11.24261,40.73141c2.94888,3.31749 7.00359,5.71346 11.97983,7.55651c-0.55292,-3.31749 -0.92153,-6.63498 -1.84305,-9.76817c-3.31749,-11.79552 0.92153,-21.74799 10.32108,-27.83006c10.68969,-7.1879 18.06189,-16.58745 25.06548,-26.90853c1.65875,-2.39597 4.42332,-4.79193 7.00359,-5.34485c10.13678,-2.39597 15.11301,-9.95247 19.53633,-18.4305c3.13319,-5.89776 6.08207,-11.79552 9.95247,-17.14037c6.08207,-8.47803 5.34485,-15.29732 -3.13319,-21.01077c-2.39597,-1.47444 -4.97624,-3.31749 -7.55651,-3.6861c-10.50539,-1.65875 -13.82288,-9.95247 -18.2462,-17.87759c-2.58027,-4.60763 -5.52915,-9.95247 -9.58386,-12.90135c-12.71705,-8.47803 -26.17131,-15.85023 -39.62558,-23.22243c-1.47444,-0.73722 -4.60763,1.65875 -7.00359,2.39597c-3.5018,1.29014 -8.10942,4.23902 -10.50539,3.13319c-3.87041,-1.84305 -7.00359,-6.08207 -9.03095,-10.13678c-2.02736,-4.05471 -2.39597,-8.84664 -2.76458,-13.45427c-0.18431,-1.47444 1.84305,-3.31749 2.76458,-4.97624c1.10583,-2.02736 2.21166,-4.23902 3.31749,-6.26637c-2.02736,-0.55292 -4.23902,-1.65875 -6.08207,-1.47444c-6.26637,0.73722 -8.47803,-2.39597 -8.10942,-8.10942c0.55292,-13.08566 19.16772,-24.14396 30.77894,-18.06189c2.39597,1.29014 3.87041,4.42332 5.34485,7.00359c1.65875,2.94888 2.58027,6.08207 4.05471,9.58386c1.47444,-1.10583 1.84305,-1.29014 1.84305,-1.47444c-0.18431,-13.63857 7.1879,-21.74799 19.16772,-25.98701c9.03095,-3.13319 18.4305,-5.16054 27.64575,-7.92512c4.23902,-1.29014 8.10942,-3.31749 12.34844,-4.42332c2.39597,-0.55292 5.16054,0.73722 7.55651,0.18431c2.94888,-0.55292 6.81929,-1.47444 8.47803,-3.6861c1.84305,-2.76458 4.79193,-7.3722 -2.02736,-9.58386c5.34485,-5.71346 3.5018,-10.32108 -1.84305,-14.00718c-0.92153,-0.73722 -2.58027,-1.84305 -3.31749,-1.47444c-5.34485,2.39597 -10.50539,5.16054 -15.66593,7.74081c-3.5018,1.84305 -7.1879,3.5018 -10.874,4.97624c-0.18431,0 -2.02736,-2.76458 -2.21166,-4.42332c-0.73722,-4.60763 1.29014,-7.55651 5.34485,-10.13678c10.13678,-6.63498 22.85382,-7.1879 31.14755,-0.55292c0.18431,0.18431 8.66234,-7.00359 9.21525,-7.55651c0.36861,-0.18431 0.55292,-0.55292 0.73722,-0.73722c0.18431,-0.36861 0,-0.73722 0,-1.10583c-1.84305,-2.39597 -3.13319,-5.16054 -4.79193,-7.55651zm93.25834,25.6184c-0.18431,0.18431 -0.36861,0.55292 -0.73722,0.92153c-0.55292,0.55292 -1.47444,0.92153 -2.39597,1.10583c-4.23902,0.92153 -4.42332,0.36861 -5.16054,4.05471c-0.36861,2.02736 -0.18431,4.97624 0.18431,7.00359c0.92153,5.52915 4.42332,7.74081 9.39956,9.03095c3.6861,0.73722 6.81929,4.97624 11.0583,8.29373c0.18431,1.65875 0.55292,4.79193 1.10583,8.10942c0.73722,4.97624 -5.71346,11.61122 -12.16413,12.71705c-4.42332,0.92153 -8.66234,2.21166 -13.82288,3.6861c5.52915,7.92512 6.63498,17.87759 18.06189,17.50898c9.39956,-0.36861 10.13678,-7.00359 9.58386,-14.7444c5.52915,1.84305 10.13678,3.5018 15.11301,5.34485c2.02736,9.21525 2.21166,9.39956 9.58386,4.79193c1.29014,2.39597 2.58027,4.79193 4.05471,7.74081c1.84305,-1.29014 3.31749,-2.39597 4.79193,-3.5018c1.84305,10.50539 20.27355,5.71346 17.69328,19.90494c-8.84664,0.92153 -16.03454,-1.84305 -23.95965,-7.00359c-15.11301,-9.95247 -32.43768,-11.61122 -49.20944,-4.23902c-7.3722,3.31749 -13.45427,9.76817 -19.72064,15.29732c-2.02736,1.65875 -3.31749,4.79193 -3.6861,7.3722c-1.47444,8.29373 -2.02736,16.95606 -3.87041,25.24979c-2.21166,9.95247 -0.92153,17.69328 7.55651,24.88118c10.13678,8.47803 20.08925,15.29732 34.09643,12.53274c3.31749,-0.73722 7.00359,0.92153 10.50539,1.65875c2.76458,0.55292 5.34485,1.29014 9.95247,2.39597c-0.55292,3.87041 -0.36861,9.21525 -2.02736,13.63857c-2.58027,7.1879 -3.31749,14.00718 -0.18431,21.19508c3.13319,6.81929 1.29014,12.71705 -3.6861,17.87759c-7.74081,7.74081 -10.874,16.21884 -8.10942,27.64575c1.10583,4.05471 -1.84305,9.21525 -3.31749,13.82288c-2.21166,7.1879 -6.81929,11.97983 -5.89776,19.90494c0.18431,0.92153 0.18431,2.02736 1.10583,2.76458c0.73722,0.55292 1.84305,0.55292 2.58027,0.18431c1.29014,-0.55292 2.58027,-1.47444 3.87041,-2.39597c39.80988,-31.88477 65.42828,-81.64712 65.42828,-137.67584c0.18431,-61.92648 -30.96324,-116.11216 -77.77672,-147.0754zm-9.76817,37.78253c1.65875,1.47444 4.97624,2.21166 7.1879,1.47444c1.65875,-0.55292 3.6861,-4.05471 3.13319,-5.71346c-2.39597,-7.74081 -8.47803,-11.97983 -15.48162,-15.85023c-0.55292,3.13319 -0.73722,5.16054 -1.29014,7.1879c-0.36861,1.65875 -1.29014,3.31749 -1.84305,4.79193c2.02736,0.36861 3.87041,0.73722 6.08207,1.29014c0.55292,2.21166 0.55292,5.34485 2.21166,6.81929zm-55.1072,-33.72782c3.6861,1.47444 7.3722,2.76458 12.53274,4.79193c0.55292,-4.23902 0.92153,-7.1879 1.47444,-10.13678c-4.60763,0.73722 -9.21525,1.29014 -13.63857,2.02736c-0.36861,1.10583 -0.36861,2.21166 -0.36861,3.31749zm-21.56369,-6.45068c0.73722,5.71346 4.05471,8.47803 8.47803,11.42691c3.13319,-3.87041 6.26637,-8.10942 9.76817,-11.79552c2.58027,-2.58027 6.26637,-3.87041 9.21525,-6.08207c3.87041,-2.94888 6.63498,-9.39956 11.42691,-10.68969c0.36861,0 0.73722,-0.18431 0.92153,-0.36861c0.18431,-0.18431 0.18431,-0.36861 0.36861,-0.73722c0,-0.18431 0,-0.36861 0,-0.73722c-11.42691,-3.31749 -23.40674,-5.34485 -35.57087,-5.89776c-5.52915,4.79193 -5.52915,18.06189 -4.60763,24.88118z" class="st11"/>
   </g>
  </g>
 </g>
</svg>