<svg width="350" height="350" xmlns="http://www.w3.org/2000/svg" xml:space="preserve" version="1.1">

 <g>
  <title>Layer 1</title>
  <g stroke="null" id="svg_1">
   <g stroke="null" id="svg_2">
    <circle stroke="null" id="svg_3" fill="#B5B2A4" r="173.7916" cy="175.79162" cx="175.20835" class="st2"/>
    <path stroke="null" id="svg_4" fill="#E95924" d="m314.19996,278.73293c-6.2515,8.54371 -13.33653,16.25389 -21.04671,23.5473c-20.21317,12.91976 -62.72335,36.0503 -118.36167,36.67545c-34.8,0.41677 -61.26467,-8.12695 -67.30778,-10.21078c-22.92215,-7.71018 -40.21796,-18.33772 -51.88742,-26.46467c-7.71018,-7.29341 -14.79521,-15.00359 -21.04671,-23.5473c17.29581,-4.16766 42.09341,-7.29341 68.3497,1.04192c23.33892,7.29341 26.0479,22.08862 46.88623,27.08982c24.38084,5.83473 39.8012,-7.29341 71.68383,-17.50419c20.42156,-6.66826 51.26227,-13.33653 92.73054,-10.62754zm33.96647,-113.36048c-23.13054,17.29581 -58.55569,38.34251 -105.23353,49.17844c-120.4455,28.13174 -219.8443,-34.38323 -241.93293,-49.17844c0.41677,4.16766 0.62515,8.7521 0.62515,13.33653c0,4.58443 0,8.96048 -0.20838,13.12814c49.17844,24.38084 108.77604,38.75928 172.95808,38.75928c64.39042,0 123.98802,-14.37844 172.95808,-38.75928c0.62515,-5.41796 0.83353,-11.04431 0.83353,-16.67066c0.20838,-3.12575 0.20838,-6.45988 0,-9.79401zm-23.75569,-78.14371c-2.08383,-3.54251 -4.37605,-7.08503 -6.66826,-10.41916c-48.97006,-10.83593 -86.06227,-7.71018 -110.65149,-3.12575c-42.92694,8.12695 -65.43233,24.38084 -107.52574,22.08862c-29.7988,-1.45868 -53.55449,-11.46108 -68.14132,-18.96287c-2.29222,3.33413 -4.58443,6.87665 -6.66826,10.41916c44.17724,17.92096 95.43952,28.34012 149.82754,28.34012s105.6503,-10.21078 149.82754,-28.34012z" class="st5"/>
    <path stroke="null" id="svg_5" fill="#BE1E2D" d="m270.02272,251.22634c31.0491,-6.45988 55.63832,-21.67186 74.18443,-37.09221c-0.62515,3.33413 -1.45868,6.45988 -2.5006,9.58563c-1.04192,3.33413 -1.87545,6.45988 -2.91737,9.37725c-15.21198,15.42036 -37.3006,25.63114 -69.6,32.71617c-32.09102,7.08503 -43.13533,13.33653 -95.85628,11.04431c-63.3485,-2.91737 -80.43593,-5.62635 -117.73652,-20.42156c-21.88024,-8.7521 -36.67545,-13.75329 -45.42754,-23.13054c-2.08383,-6.2515 -3.95928,-12.50299 -5.41796,-18.96287c17.71257,8.7521 42.09341,20.21317 77.93533,24.58922c18.96287,2.29222 26.88144,5.41796 89.18802,9.58563c70.8503,4.37605 78.35209,6.87665 98.1485,2.70898zm76.47664,-101.48263c-0.62515,-4.79281 -1.66707,-9.79401 -2.91737,-15.00359c-3.95928,-16.25389 -10.00239,-29.59042 -15.83713,-40.00958c-72.72575,61.88982 -121.27904,67.93293 -153.16167,60.22275c-23.75569,-5.62635 -41.46826,-19.58802 -85.22874,-28.75689c-32.50778,-6.87665 -60.63952,-7.08503 -79.81078,-6.04311c-3.12575,9.58563 -5.62635,19.37964 -7.08503,29.59042c38.75928,13.12814 98.56527,28.34012 172.33293,28.34012c73.55928,0 132.9485,-15.21198 171.70778,-28.34012zm-61.05629,-108.35928c-6.45988,-5.41796 -13.33653,-10.21078 -20.42156,-14.58683c-46.26108,21.67186 -73.55928,18.12934 -90.43832,9.79401c-14.17006,-7.08503 -22.08862,-18.33772 -40.63473,-21.46347c-19.37964,-3.33413 -37.3006,4.37605 -49.80359,11.66946c-7.08503,4.37605 -13.96168,9.16886 -20.42156,14.58683c34.38323,9.58563 71.68383,15.00359 110.85988,15.00359c39.17605,0 76.47664,-5.41796 110.85988,-15.00359z" class="st4"/>
   </g>
  </g>
 </g>
</svg>