<svg width="350" height="350" xmlns="http://www.w3.org/2000/svg" version="1.1" xml:space="preserve">
 <g>
  <title>Layer 1</title>
  <g stroke="null" id="svg_1">
   <!-- Earth -->
   <g stroke="null" id="svg_2">
    <ellipse stroke="null" class="st3" cx="175.99978" cy="174.63937" rx="172.99979" ry="172.63937" fill="#ED1C24" id="svg_3"/>
    <path stroke="null" class="st4" d="m191.31747,248.7049c52.80098,0 101.45717,0.72083 141.10295,1.80208c-2.34271,5.04583 -5.04583,10.09165 -7.92916,14.77707c-38.20412,0.90104 -83.97698,1.44166 -133.354,1.44166c-63.61346,0 -121.46027,-0.90104 -164.3498,-2.34271c-2.52291,-4.14479 -4.86562,-8.46978 -6.84791,-12.97498c43.79057,-1.62187 104.3405,-2.70312 171.37791,-2.70312zm55.32389,-84.5176c0,5.58645 29.91455,10.09165 67.03742,10.09165c12.97498,0 25.04893,-0.54062 35.32079,-1.62187c-0.18021,-5.94687 -0.54062,-11.71353 -1.26146,-17.29998c-9.91145,-0.90104 -21.62497,-1.44166 -34.05933,-1.44166c-37.12287,0 -67.03742,4.68541 -67.03742,10.27186zm-10.63228,-118.39673c18.74164,0 36.04162,-0.90104 49.91765,-2.1625c-9.37082,-7.74895 -19.46248,-14.41665 -30.27496,-20.0031c-6.30728,-0.18021 -12.79478,-0.36042 -19.64268,-0.36042c-46.13328,0 -83.43636,5.04583 -83.43636,11.35311c0,6.12708 37.30308,11.1729 83.43636,11.1729zm-122.1811,247.96636c-24.32809,0 -46.31348,1.26146 -61.99159,3.06354c5.40624,5.58645 11.1729,10.81249 17.29998,15.67811c12.97498,0.90104 28.29267,1.44166 44.69161,1.44166c47.39473,0 85.77906,-4.5052 85.77906,-10.09165s-38.38433,-10.09165 -85.77906,-10.09165zm50.45827,-153.3571c0,-18.74164 -46.31348,-33.87912 -103.43946,-33.87912c-15.85831,0 -30.81559,1.08125 -44.3312,3.24375c-7.74895,18.20102 -12.25415,38.02391 -13.3354,58.74784c16.39894,3.60416 36.22183,5.76666 57.6666,5.76666c57.30618,0 103.43946,-15.13748 103.43946,-33.87912zm-42.1687,-51.89994c36.40204,0 65.77596,-3.60416 65.77596,-7.92916s-29.37392,-7.92916 -65.77596,-7.92916s-65.77596,3.60416 -65.77596,7.92916s29.37392,7.92916 65.77596,7.92916zm16.39894,115.15298c0,8.64999 28.47288,15.85831 63.43326,15.85831s63.43326,-7.02812 63.43326,-15.85831c0,-8.64999 -28.47288,-15.85831 -63.43326,-15.85831s-63.43326,7.02812 -63.43326,15.85831zm96.41134,-98.21342c0,4.32499 14.23644,7.92916 31.71663,7.92916c17.48019,0 31.71663,-3.60416 31.71663,-7.92916c0,-4.32499 -14.23644,-7.92916 -31.71663,-7.92916c-17.66039,0.18021 -31.71663,3.60416 -31.71663,7.92916z" fill="#BE1E2D" id="svg_4"/>
   </g>
  </g>
 </g>
</svg>