<svg width="350" height="350" xmlns="http://www.w3.org/2000/svg" version="1.1" xml:space="preserve">
 <g>
  <title>Layer 1</title>
  <g stroke="null" id="svg_1">
   <g stroke="null" id="svg_2">
    <g stroke="null" id="svg_3">
     <circle stroke="null" class="st0" cx="173.6" cy="173.59999" r="173.6" fill="#754A1E" id="svg_4"/>
     <path stroke="null" class="st1" d="m108.5739,134.19023c0,-10.24654 9.06425,-18.71964 20.49308,-18.71964c11.23178,0 20.49308,8.4731 20.49308,18.71964c0,10.24654 -9.06425,18.71964 -20.49308,18.71964c-11.23178,0 -20.49308,-8.27605 -20.49308,-18.71964zm68.17889,-88.47491c-7.48785,0 -13.59637,4.53212 -13.59637,10.24654s6.10851,10.24654 13.59637,10.24654c7.48785,0 13.59637,-4.53212 13.59637,-10.24654s-6.10851,-10.24654 -13.59637,-10.24654zm96.94801,37.43927c-8.4731,0 -15.36981,5.32032 -15.36981,11.82293c0,6.50261 6.89671,11.82293 15.36981,11.82293c8.4731,0 15.36981,-5.32032 15.36981,-11.82293c0,-6.50261 -6.89671,-11.82293 -15.36981,-11.82293zm-100.29784,112.31782c-6.50261,0 -11.82293,4.53212 -11.82293,10.24654c0,5.71442 5.32032,10.24654 11.82293,10.24654c6.50261,0 11.82293,-4.53212 11.82293,-10.24654c0,-5.71442 -5.32032,-10.24654 -11.82293,-10.24654zm74.87855,54.58252c-9.45834,0 -16.9462,7.6849 -16.9462,16.9462c0,9.45834 7.6849,16.9462 16.9462,16.9462c9.45834,0 16.9462,-7.6849 16.9462,-16.9462c0,-9.45834 -7.48785,-16.9462 -16.9462,-16.9462zm-194.09308,-57.93235c-8.4731,0 -15.36981,4.53212 -15.36981,10.24654c0,5.71442 6.89671,10.24654 15.36981,10.24654c8.4731,0 15.36981,-4.53212 15.36981,-10.24654c0,-5.71442 -6.89671,-10.24654 -15.36981,-10.24654zm240.00545,-32.316c-4.72917,0 -8.4731,6.89671 -8.4731,15.36981c0,8.4731 3.74393,15.36981 8.4731,15.36981c4.72917,0 8.4731,-6.89671 8.4731,-15.36981c0,-8.67015 -3.74393,-15.36981 -8.4731,-15.36981zm-167.29444,126.30829c-15.96095,0 -28.96617,13.39932 -28.96617,29.75437c0,4.33507 0.98524,8.67015 2.56163,12.41407c11.82293,6.30556 24.43405,11.42883 37.83337,14.97571c10.24654,-4.53212 17.53734,-15.17276 17.53734,-27.38978c0,-16.35505 -13.00522,-29.75437 -28.96617,-29.75437z" fill="#513315" id="svg_5"/>
    </g>
   </g>
  </g>
 </g>

</svg>