<svg width="350" height="350" xmlns="http://www.w3.org/2000/svg" xml:space="preserve" version="1.1">

 <g>
  <title>Layer 1</title>
  <g stroke="null" id="svg_1">
   <g stroke="null" id="svg_2">
    <g stroke="null" id="svg_3">
     <path stroke="null" id="svg_4" fill="#F7941D" d="m347.02701,173.92975c0,-95.51351 -77.41621,-172.92973 -172.92973,-172.92973c-36.36216,0 -70.21081,11.22703 -98.19459,30.4973c-2.68108,-5.02703 -6.36757,-8.71351 -9.38378,-8.71351c-2.17838,0 -5.36216,4.69189 -11.39459,14.24324c-7.54054,11.72973 -7.70811,13.74054 -7.03784,15.41622c0.33514,0.67027 0.67027,1.34054 1.00541,1.84324c-29.82703,31 -48.09189,73.22703 -48.09189,119.64324c0,22.95676 4.52432,44.90811 12.73513,65.01621c-4.35676,1.67568 -8.54595,6.2 -8.37838,11.22703c0.16757,8.04324 10.72432,11.56216 11.8973,11.8973c2.34595,0.67027 5.6973,1.34054 8.54595,1.17297c30.32973,50.1027 85.29189,83.44865 147.96216,83.44865c55.46486,0 104.72973,-26.14054 136.4,-66.69189c4.18919,0.83784 9.38378,0.83784 11.39459,-2.17838c1.84324,-2.51351 1.00541,-7.54054 -1.34054,-12.23243c17.09189,-26.47567 26.81081,-57.97838 26.81081,-91.65946z" class="st15"/>
     <path stroke="null" id="svg_5" fill="#F2BB72" d="m150.30269,277.15137c2.34595,0 4.35676,0.33514 5.52973,0.83784c-0.5027,0.33514 -1.00541,0.83784 -1.50811,1.17297c-3.01622,2.34595 -7.70811,6.03243 -9.88649,12.06486c-1.84324,5.02703 -1.00541,9.04865 -0.5027,11.72973c0.16757,0.5027 0.16757,1.00541 0.33514,1.34054c-1.67568,0.33514 -6.03243,-0.16757 -10.55676,-2.51351c-3.51892,-1.84324 -6.03243,-4.35676 -6.03243,-6.2c0,-1.67568 2.51351,-4.85946 6.53513,-9.55135c3.35135,-4.02162 5.02703,-5.86486 7.37297,-7.03784c2.68108,-1.34054 5.86486,-1.84324 8.71351,-1.84324zm106.4054,-31.16757c0.83784,0 2.01081,0 2.68108,0c-1.00541,-2.51351 -5.36216,-8.04324 -13.23784,-13.40541c-10.72432,-7.54054 -21.44865,-10.38919 -28.31892,-7.70811c-2.51351,1.00541 -5.02703,2.84865 -7.37297,4.52432c-4.69189,3.35135 -9.88649,7.37297 -15.91892,5.19459c-2.51351,-0.83784 -4.02162,-2.51351 -4.85946,-3.51892c-0.67027,-0.83784 -0.83784,-1.00541 -1.17297,-1.00541c-0.16757,0 -0.33514,0 -0.5027,0c-1.34054,0 -3.51892,0.83784 -5.86486,2.84865c-4.02162,3.35135 -8.37838,9.38378 -8.37838,15.08108c0,5.6973 5.02703,12.4 12.9027,17.59459c9.71892,6.36757 21.44865,8.71351 28.48649,5.6973c3.51892,-1.50811 5.19459,-4.02162 7.54054,-7.54054c2.68108,-4.18919 6.2,-9.21622 13.90811,-13.23784c8.21081,-4.52432 15.24865,-4.52432 20.10811,-4.52432zm-166.72973,-37.03243c-0.16757,0 -0.16757,0 -0.33514,0c-0.5027,0 -1.00541,0 -1.34054,0c-1.50811,2.01081 -3.35135,4.69189 -3.51892,8.04324c-0.16757,5.52973 4.52432,7.03784 8.21081,14.74595c2.68108,5.6973 4.02162,13.07027 3.01622,18.26486c3.01622,-2.84865 6.53513,-7.03784 11.22703,-12.9027c4.35676,-5.36216 6.53513,-8.04324 6.53513,-10.22162l0,0c0.16757,-2.84865 -1.50811,-6.2 -4.35676,-9.38378c-5.02703,-5.19459 -12.56757,-8.54595 -19.43784,-8.54595zm116.62702,-126.01081c0.16757,-0.16757 0.33514,-0.33514 0.33514,-0.67027c0.67027,-1.17297 1.84324,-2.84865 4.02162,-3.85405c1.17297,-0.5027 2.17838,-0.83784 3.35135,-0.83784c4.02162,0 7.37297,3.35135 10.22162,6.2c1.84324,1.84324 3.51892,3.51892 5.36216,4.52432c4.85946,2.51351 11.56216,-1.34054 15.08108,-3.85405c8.04324,-5.86486 13.74054,-14.41081 14.57838,-17.76216c-0.33514,0 -0.83784,0 -1.17297,0c-2.01081,0 -4.69189,0 -7.70811,-0.83784c-2.34595,2.68108 -6.36757,4.02162 -6.87027,4.18919c-3.01622,1.00541 -8.54595,1.67568 -10.38919,-1.00541c-1.84324,-2.51351 0,-8.54595 3.51892,-12.4c-2.17838,-2.84865 -3.68649,-5.6973 -5.02703,-8.37838c-1.67568,-3.35135 -3.01622,-6.03243 -5.36216,-7.37297c-3.51892,-2.01081 -8.88108,-1.34054 -14.41081,1.84324c-8.71351,5.02703 -14.91351,14.07568 -15.08108,21.95135c0,6.03243 3.35135,12.56757 6.7027,16.08649c1.34054,1.50811 2.34595,2.01081 2.84865,2.17838zm-127.51892,59.15135c0.5027,0.83784 1.00541,1.84324 1.50811,2.51351c1.67568,-1.50811 4.85946,-8.37838 3.18378,-14.57838c-0.67027,-2.51351 -2.34595,-4.52432 -6.03243,-8.54595c-5.02703,-5.6973 -7.37297,-8.37838 -9.55135,-8.71351c-2.84865,-0.5027 -7.03784,2.01081 -10.55676,6.03243c-3.18378,3.68649 -4.18919,6.87027 -4.18919,8.21081c0.5027,0 1.50811,0 2.17838,0.16757c3.01622,0 7.54054,0.16757 12.56757,2.84865c6.2,3.35135 9.04865,8.54595 10.89189,12.06486zm97.18919,7.03784c-0.5027,-0.67027 -0.83784,-1.50811 -1.00541,-2.34595c-0.5027,-1.00541 -1.17297,-1.17297 -1.17297,-1.34054c-0.16757,0 -0.5027,-0.16757 -0.83784,-0.16757c-1.17297,0 -3.01622,0.5027 -5.19459,2.01081c-2.84865,2.01081 -6.36757,6.03243 -6.36757,10.55676c0,4.52432 3.35135,8.54595 6.36757,10.55676c2.51351,1.84324 4.85946,2.34595 6.03243,1.84324c2.01081,-0.67027 3.51892,-6.87027 3.18378,-13.57297c-0.16757,-3.35135 -0.5027,-5.86486 -1.00541,-7.54054zm106.90811,-26.81081c-4.02162,0 -8.21081,2.51351 -11.39459,7.03784c-3.18378,4.52432 -4.69189,10.05405 -3.68649,13.23784c0.83784,2.34595 3.35135,4.35676 5.6973,6.03243c2.84865,2.17838 6.53513,4.85946 5.19459,9.04865c-0.83784,2.68108 -3.01622,3.68649 -4.69189,4.35676c1.84324,1.50811 5.36216,3.35135 8.88108,3.35135c8.21081,0 14.91351,-9.71892 14.91351,-21.61622c0.16757,-11.72973 -6.53513,-21.44865 -14.91351,-21.44865zm65.01621,51.61081c0,95.51351 -77.41621,172.92973 -172.92973,172.92973c-95.51351,0 -172.92973,-77.41621 -172.92973,-172.92973c0,-95.51351 77.41621,-172.92973 172.92973,-172.92973c95.68108,0 172.92973,77.41621 172.92973,172.92973zm-158.68648,-109.25405c-0.16757,9.38378 5.52973,19.1027 11.05946,23.29189c3.51892,2.68108 6.36757,2.51351 8.21081,2.01081c2.34595,-0.67027 3.51892,-2.51351 4.35676,-3.68649c0.5027,-0.67027 0.67027,-1.00541 1.00541,-1.17297c0.83784,-0.33514 3.68649,2.51351 5.19459,4.02162c2.01081,2.01081 4.35676,4.35676 7.03784,5.86486c2.17838,1.17297 4.52432,1.67568 7.03784,1.67568c5.52973,0 11.72973,-2.68108 18.0973,-7.87568c7.54054,-6.03243 17.09189,-17.92973 15.08108,-24.96757c-1.34054,-4.52432 -5.52973,-4.52432 -8.37838,-4.52432c-2.01081,0 -4.35676,0 -6.87027,-0.83784c-1.50811,-3.01622 -4.85946,-5.19459 -7.70811,-5.19459c0,0 -0.16757,0 -0.16757,0c-2.34595,-2.51351 -3.68649,-5.36216 -5.02703,-8.04324c-2.01081,-3.85405 -4.02162,-8.04324 -8.37838,-10.55676c-5.86486,-3.35135 -13.74054,-2.68108 -21.78378,1.84324c-9.21622,5.19459 -18.6,15.91892 -18.76757,28.15135zm-1.34054,20.44324l-3.85405,3.01622c3.51892,4.69189 7.54054,8.88108 11.8973,12.56757c2.51351,2.17838 5.52973,4.35676 9.21622,4.35676c3.18378,0.16757 6.03243,-1.34054 8.37838,-2.51351c1.84324,-1.00541 3.51892,-1.84324 5.19459,-2.01081c3.18378,-0.33514 6.36757,1.67568 9.71892,3.85405c0.67027,0.5027 1.34054,0.83784 2.01081,1.34054c2.84865,1.67568 6.36757,3.18378 9.71892,3.18378c2.51351,0 4.85946,-0.67027 6.87027,-2.68108l-3.51892,-3.51892c-2.34595,2.34595 -6.87027,1.00541 -10.55676,-1.17297c-0.67027,-0.33514 -1.17297,-0.83784 -1.84324,-1.17297c-3.68649,-2.51351 -8.04324,-5.19459 -13.07027,-4.69189c-2.68108,0.33514 -4.85946,1.50811 -7.03784,2.51351c-2.01081,1.00541 -4.02162,2.17838 -6.03243,2.01081c-2.17838,-0.16757 -4.35676,-1.67568 -6.2,-3.35135c-3.85405,-3.35135 -7.54054,-7.37297 -10.89189,-11.72973zm-3.68649,68.03243c4.02162,-0.5027 7.20541,-4.02162 7.20541,-8.21081c0,-4.52432 -3.68649,-8.21081 -8.21081,-8.21081c-2.17838,0 -4.18919,0.83784 -5.6973,2.34595c-0.33514,-0.16757 -0.67027,-0.33514 -1.00541,-0.5027c-3.51892,-1.34054 -8.37838,-0.33514 -12.73513,2.68108c-4.52432,3.18378 -9.55135,9.21622 -9.55135,16.75676c0,7.37297 4.85946,13.40541 9.55135,16.58919c3.18378,2.17838 6.53513,3.35135 9.38378,3.35135c1.17297,0 2.34595,-0.16757 3.35135,-0.5027c7.87568,-2.84865 8.21081,-15.41622 8.04324,-20.77838l0,0c-0.16757,-0.83784 -0.16757,-2.17838 -0.33514,-3.51892zm-65.68648,-138.91351c2.68108,9.71892 13.23784,14.57838 22.62162,15.24865c5.02703,0.33514 10.05405,-0.16757 14.91351,-0.83784c3.68649,-0.5027 7.54054,-0.83784 11.22703,-0.83784c5.86486,0 11.56216,1.00541 17.09189,3.01622l1.67568,-4.69189c-6.03243,-2.34595 -12.23243,-3.35135 -18.76757,-3.35135c0,0 0,0 0,0c-4.02162,0 -7.87568,0.5027 -11.72973,0.83784c-4.85946,0.5027 -9.38378,1.00541 -14.07568,0.83784c-7.54054,-0.5027 -16.08649,-4.35676 -18.0973,-11.72973l-4.85946,1.50811zm16.08649,66.18919c-6.7027,-0.16757 -12.23243,10.38919 -9.55135,13.90811c1.67568,2.34595 6.87027,1.67568 9.55135,0.83784c0.83784,-0.16757 7.87568,-2.34595 7.87568,-7.37297c0.16757,-3.85405 -4.18919,-7.20541 -7.87568,-7.37297zm-85.12432,28.65405l8.88108,-4.18919c2.68108,-1.17297 5.36216,-2.51351 8.21081,-2.84865c6.36757,-0.67027 12.4,3.68649 17.92973,8.21081l3.01622,-3.85405c-6.53513,-5.02703 -13.40541,-10.05405 -21.61622,-9.21622c-3.51892,0.33514 -6.87027,1.84324 -9.71892,3.18378l-8.88108,4.18919c-7.37297,3.35135 -14.24324,7.54054 -15.58378,15.08108l4.85946,0.83784c1.17297,-5.19459 6.87027,-8.54595 12.9027,-11.39459zm5.52973,25.3027c2.68108,0 5.6973,0.16757 9.21622,2.01081c4.35676,2.34595 6.36757,6.03243 8.04324,9.21622c1.67568,3.01622 3.68649,6.53513 7.70811,6.53513c0.16757,0 0.33514,0 0.5027,0c2.51351,-0.16757 4.85946,-1.67568 6.7027,-4.35676c3.01622,-4.35676 5.52973,-12.4 3.35135,-19.77297c-1.17297,-4.18919 -3.51892,-6.7027 -7.54054,-11.39459c-5.86486,-6.7027 -9.04865,-10.38919 -14.07568,-11.05946c-7.70811,-1.17297 -15.08108,5.19459 -19.27027,10.89189c-1.84324,2.68108 -5.86486,9.38378 -3.18378,14.41081c2.01081,3.35135 5.6973,3.51892 8.54595,3.51892zm47.08649,164.21621c0,-6.87027 -5.52973,-12.4 -12.4,-12.4c-6.87027,0 -12.4,5.52973 -12.4,12.4c0,6.87027 5.52973,12.4 12.4,12.4c6.87027,0 12.4,-5.52973 12.4,-12.4zm10.55676,-56.8054c5.02703,-6.2 8.04324,-9.88649 8.21081,-14.57838c0.16757,-4.85946 -2.01081,-10.05405 -6.36757,-14.74595c-6.36757,-6.7027 -15.75135,-10.89189 -24.63243,-11.05946c-13.90811,-0.16757 -29.65946,9.04865 -32.0054,24.96757c-1.34054,8.71351 1.84324,17.92973 8.88108,25.13513c6.03243,6.2 13.90811,9.88649 20.77838,9.88649c0.83784,0 1.50811,0 2.34595,-0.16757c7.70811,-1.00541 12.73513,-7.03784 22.78919,-19.43784zm50.94054,34.18378c-0.33514,-1.34054 -1.50811,-3.35135 -4.69189,-4.69189c-4.85946,-2.17838 -13.74054,-2.51351 -20.77838,1.00541c-3.68649,1.84324 -5.86486,4.35676 -9.71892,8.88108c-5.52973,6.36757 -8.54595,10.05405 -8.37838,14.57838c0.16757,5.02703 4.35676,9.71892 11.22703,13.07027c3.35135,1.50811 7.54054,2.84865 11.22703,2.84865c2.34595,0 4.69189,-0.5027 6.36757,-1.84324c3.18378,-2.51351 2.51351,-6.03243 2.01081,-8.54595c-0.5027,-2.34595 -1.00541,-4.52432 0.16757,-7.70811c1.50811,-4.02162 4.69189,-6.53513 7.37297,-8.71351c3.01622,-2.17838 6.36757,-4.69189 5.19459,-8.88108zm65.01621,-8.21081c2.51351,-3.85405 5.19459,-7.70811 11.22703,-10.89189c6.53513,-3.51892 12.4,-3.51892 16.58919,-3.51892c3.85405,0 8.37838,0 9.88649,-4.18919l0,0c1.84324,-4.85946 -2.84865,-11.22703 -7.20541,-15.58378c-9.55135,-9.55135 -29.15676,-21.61622 -44.07027,-15.91892c-3.35135,1.34054 -6.36757,3.51892 -9.04865,5.52973c-4.18919,3.18378 -6.87027,4.85946 -9.21622,4.18919c-0.67027,-0.33514 -1.17297,-0.67027 -1.84324,-1.50811c-1.00541,-1.00541 -2.34595,-2.68108 -5.02703,-3.35135c-3.68649,-0.83784 -8.21081,0.67027 -12.73513,4.18919c-5.19459,4.18919 -11.22703,12.06486 -11.05946,20.77838c0.16757,8.37838 6.03243,17.09189 16.25405,23.62703c8.21081,5.36216 17.25946,8.21081 25.13513,8.21081c3.68649,0 7.20541,-0.67027 10.22162,-1.84324c5.52973,-1.84324 8.21081,-5.86486 10.89189,-9.71892zm44.4054,-69.70811c2.34595,-0.16757 5.02703,-5.6973 5.02703,-11.8973c0,-8.04324 -4.52432,-11.56216 -5.02703,-11.8973c-1.84324,-1.34054 -5.02703,-2.34595 -6.2,1.34054c-1.50811,5.6973 2.01081,22.78919 6.2,22.45405zm17.76216,65.51892c-10.22162,-1.17297 -20.77838,-1.84324 -28.98919,4.02162c-1.50811,1.00541 -2.84865,2.34595 -4.02162,3.51892c-1.34054,1.17297 -2.51351,2.34595 -3.85405,3.35135c-5.86486,4.02162 -13.74054,3.51892 -21.95135,2.51351l-0.5027,4.85946c3.35135,0.33514 6.7027,0.67027 9.88649,0.67027c5.52973,0 10.89189,-1.00541 15.41622,-4.02162c1.67568,-1.17297 3.18378,-2.51351 4.52432,-3.85405c1.17297,-1.17297 2.34595,-2.17838 3.51892,-3.01622c6.7027,-4.85946 15.91892,-4.18919 25.47027,-3.18378l0.5027,-4.85946zm14.57838,-119.64324c0,-15.91892 -10.05405,-28.98919 -22.28649,-28.98919c-6.53513,0 -12.9027,3.68649 -17.42703,10.22162c-4.69189,6.53513 -6.53513,14.41081 -4.69189,19.94054c1.50811,4.52432 5.36216,7.54054 8.21081,9.55135c0.33514,0.33514 0.83784,0.5027 1.17297,0.83784c-1.67568,0.5027 -4.18919,1.67568 -4.69189,4.35676c-0.33514,1.34054 -0.16757,3.35135 1.67568,5.6973c2.84865,3.51892 9.21622,7.20541 15.75135,7.20541c12.23243,0.16757 22.28649,-12.9027 22.28649,-28.82162z" class="st16"/>
    </g>
   </g>
  </g>
 </g>
</svg>