<svg width="350" height="350" xmlns="http://www.w3.org/2000/svg" version="1.1" xml:space="preserve">
 <g>
  <title>Layer 1</title>
  <g id="svg_1" stroke="null">
   <g id="svg_2" stroke="null">
    <ellipse class="st10" cx="175" cy="174.66083" rx="172" ry="174.66078" fill="#243E90" id="svg_3" stroke="null"/>
    <path class="st9" d="m141.93038,87.80558c0,13.11381 -23.94696,23.94696 -53.40553,23.94696s-53.40553,-10.64309 -53.40553,-23.94696c0,-13.11381 23.94696,-23.94696 53.40553,-23.94696s53.40553,10.64309 53.40553,23.94696zm37.82099,-52.26519c0,-5.70166 -3.80111,-10.45304 -8.55249,-10.45304s-8.55249,4.75138 -8.55249,10.45304c0,5.70166 3.80111,10.45304 8.55249,10.45304s8.55249,-4.56133 8.55249,-10.45304zm141.78122,173.52044c-8.74254,-19.76575 -42.57238,-24.13702 -75.83205,-9.69282c-33.25967,14.4442 -53.02542,42.38232 -44.28287,62.14807c8.74254,19.76575 42.57238,24.13702 75.83205,9.69282c33.06961,-14.4442 52.83536,-42.19227 44.28287,-62.14807zm-162.49724,89.51602c-3.42099,0 -6.08177,3.04088 -6.08177,6.65193c0,3.80111 2.66077,6.65193 6.08177,6.65193c3.42099,0 6.08177,-3.04088 6.08177,-6.65193c0,-3.61105 -2.66077,-6.65193 -6.08177,-6.65193zm-48.46409,-61.95801c-11.21326,0 -20.14586,6.65193 -20.14586,14.63425s9.12265,14.63425 20.14586,14.63425c11.21326,0 20.14586,-6.65193 20.14586,-14.63425s-8.9326,-14.63425 -20.14586,-14.63425zm156.22542,-123.72597c13.49392,0 24.51713,-3.80111 24.51713,-8.55249c0,-4.75138 -11.0232,-8.55249 -24.51713,-8.55249c-13.49392,0 -24.51713,3.80111 -24.51713,8.55249c0,4.75138 11.0232,8.55249 24.51713,8.55249zm-206.97017,33.63978c-9.88287,0 -17.86519,7.98232 -17.86519,17.86519c0,9.88287 7.98232,17.86519 17.86519,17.86519c9.88287,0 17.86519,-7.98232 17.86519,-17.86519c-0.19006,-9.88287 -8.17238,-17.86519 -17.86519,-17.86519zm122.58564,-4.94144c-6.46188,0 -11.59337,9.69282 -11.59337,21.47624s5.13149,21.47624 11.59337,21.47624c6.46188,0 11.59337,-9.69282 11.59337,-21.47624s-5.32155,-21.47624 -11.59337,-21.47624z" fill="#2798BA" id="svg_4" stroke="null"/>
   </g>
  </g>
 </g>

</svg>