<svg width="350" height="350" xmlns="http://www.w3.org/2000/svg" xml:space="preserve" version="1.1">

 <g>
  <title>Layer 1</title>
  <g stroke="null" id="svg_1">
   <g stroke="null" id="svg_2">
    <circle stroke="null" id="svg_3" fill="#636464" r="174.49999" cy="174.49999" cx="174.49999" class="st12"/>
    <path stroke="null" id="svg_4" fill="#8E90A0" d="m201.1509,274.75817c48.86,0 90.52848,4.44182 107.02666,10.78727c-4.65333,5.71091 -9.94121,10.99879 -15.22909,16.07515c-20.94,4.01879 -54.14788,6.76848 -91.79757,6.76848c-63.24303,0 -114.64121,-7.40303 -114.64121,-16.7097c0,-9.30667 51.18666,-16.92121 114.64121,-16.92121zm-82.4909,-126.90908c0,-9.94121 -32.36182,-17.76727 -72.33818,-17.76727c-15.44061,0 -29.82363,1.26909 -41.66848,3.17273c-0.21152,1.05758 -0.42303,2.11515 -0.63455,3.17273c-1.69212,8.24909 -2.96121,16.7097 -3.59576,25.1703c12.47939,2.53818 28.55454,4.01879 45.89879,4.01879c39.97636,0 72.33818,-7.82606 72.33818,-17.76727zm117.3909,93.91272c-2.7497,-5.07636 -6.34545,-11.63333 -14.80606,-14.17151c-8.67212,-2.53818 -18.61333,-0.63455 -22.84364,0c-45.26424,8.03758 -119.08302,1.90364 -121.40969,-5.07636c-0.21152,-0.42303 0,-0.84606 0.42303,-1.26909c2.7497,-4.01879 14.59454,-18.1903 35.95757,-22.4206c34.9,-6.98 70.22303,17.34424 86.72121,9.7297c4.65333,-2.11515 8.67212,-8.03758 9.94121,-14.17151c3.38424,-16.07515 -62.39697,-8.46061 -100.89272,-8.46061c-41.88,0 -79.74121,3.80727 -107.66121,9.94121c2.53818,19.24788 8.03758,37.43818 16.28667,54.35939c25.59333,4.2303 57.3206,6.76848 91.37454,6.76848c52.45575,-0.21152 136.21575,2.32667 126.90908,-15.22909zm46.95636,-89.4709c-33.41939,0 -60.70485,7.19151 -60.70485,16.07515c0,8.88364 27.07394,16.07515 60.70485,16.07515s60.70485,-7.19151 60.70485,-16.07515c0,-8.88364 -27.28545,-16.07515 -60.70485,-16.07515zm-185.49878,-26.65091c12.05636,10.15273 55.41697,-3.38424 127.54363,-14.38303c62.18545,-9.51818 92.2206,-9.09515 104.27696,-15.22909c-8.46061,-16.7097 -19.67091,-31.93879 -32.99636,-44.84121c-3.80727,-2.32667 -7.61455,-4.44182 -11.2103,-6.55697c-5.71091,-3.38424 -30.24667,-17.34424 -70.64606,-28.97757c-3.38424,-1.05758 -39.97636,-11.2103 -65.35818,-12.90242c-8.24909,1.26909 -16.07515,2.96121 -23.90121,5.07636c-1.26909,2.96121 0.84606,6.34545 -3.80727,11.63333c-7.40303,8.46061 -20.72848,8.46061 -21.78606,12.90242c-1.48061,5.49939 16.92121,13.32545 37.22666,17.55576c46.32182,9.7297 90.10545,-1.48061 105.96909,8.03758c10.36424,6.13394 12.90242,14.17151 12.90242,14.17151c0.42303,1.48061 0.63455,2.11515 0.42303,2.53818c-4.65333,6.34545 -59.64727,-15.01757 -92.64363,-2.11515c-10.78727,4.2303 -15.44061,10.57576 -30.24667,11.84485c-11.84485,1.05758 -16.92121,-3.59576 -23.05515,-0.21152c-8.67212,5.07636 -12.26788,17.76727 -15.01757,27.70848c-2.32667,7.19151 -0.42303,11.2103 2.32667,13.74848z" class="st8"/>
   </g>
  </g>
 </g>
</svg>