<svg width="350" height="350" xmlns="http://www.w3.org/2000/svg" version="1.1" xml:space="preserve">
 <g>
  <title>Layer 1</title>
  <g id="svg_1" stroke="null">
   <g id="svg_2" stroke="null">
    <g id="svg_3" stroke="null">
     <circle class="st2" cx="171.54931" cy="177.59936" r="107.59934" fill="#B5B2A4" id="svg_4" stroke="null"/>
     <path class="st0" d="m171.18579,256.36014c31.1408,0 60.58521,-5.45267 86.51568,-15.02513c-3.87745,5.21033 -8.23959,10.17832 -12.96524,14.54045c-22.5377,6.90671 -47.37764,10.663 -73.42928,10.663c-26.05164,0 -50.89158,-3.75628 -73.42928,-10.663c-4.72565,-4.48331 -9.08778,-9.33012 -12.96524,-14.54045c25.68813,9.69363 55.13254,15.02513 86.27334,15.02513l0.00002,0zm-104.93359,-55.49605c0.84819,3.99862 2.0599,7.99725 3.39277,11.75353c29.32324,13.44992 64.22033,21.32599 101.66199,21.32599s72.33874,-7.87608 101.66199,-21.32599c1.33287,-3.87745 2.42341,-7.75491 3.39277,-11.75353c-30.05027,14.41928 -66.15905,22.90121 -105.05476,22.90121s-75.12566,-8.36076 -105.05476,-22.90121zm212.41176,-29.68675c-30.53495,15.1463 -67.49193,24.11291 -107.47817,24.11291c-39.98624,0 -76.94322,-8.96661 -107.47817,-24.11291c-0.12117,2.0599 -0.12117,4.11979 -0.12117,6.17969c0,3.51394 0.12117,6.90671 0.48468,10.29949c30.41378,15.1463 67.37076,23.99174 107.11466,23.99174s76.70088,-8.84544 107.11466,-23.99174c0.36351,-3.39277 0.48468,-6.78554 0.48468,-10.29949c0,-2.0599 0,-4.11979 -0.12117,-6.17969zm-0.96936,-9.69363c-0.96936,-6.30086 -2.42341,-12.35938 -4.36214,-18.29673c-29.44441,13.57109 -64.46267,21.56834 -102.14667,21.56834c-37.684,0 -72.70226,-7.87608 -102.14667,-21.56834c-1.93873,5.93735 -3.39277,11.99587 -4.36214,18.29673c30.29261,14.90396 67.00725,23.62823 106.5088,23.62823c39.50156,0 76.2162,-8.72427 106.5088,-23.62823l0.00002,0zm-13.69226,-38.65337c-1.33287,-2.18107 -2.66575,-4.36214 -4.11979,-6.5432c-26.41515,10.17832 -56.58659,15.87333 -88.69675,15.87333s-62.2816,-5.69501 -88.69675,-15.87333c-1.45405,2.0599 -2.78692,4.24096 -4.11979,6.5432c27.38452,11.14768 59.01,17.44854 92.81655,17.44854s65.43203,-6.30086 92.81655,-17.44854l-0.00002,0zm-24.23409,-28.47505c-3.99862,-3.2716 -8.23959,-6.30086 -12.72289,-9.08778c-17.69088,3.87745 -36.4723,6.05852 -55.98074,6.05852c-19.50844,0 -38.28985,-2.18107 -55.98074,-6.05852c-4.48331,2.66575 -8.72427,5.69501 -12.72289,9.08778c21.20482,5.93735 44.34838,9.20895 68.58246,9.20895s47.61998,-3.2716 68.8248,-9.20895z" fill="#754A1E" id="svg_5" stroke="null"/>
    </g>
    <path class="st6" d="m266.54692,125.49608c2.18107,3.99862 4.11979,7.99725 5.69501,12.23821c26.53632,-5.93735 43.62135,-7.27023 45.19657,-2.54458c1.69639,5.08916 -13.32875,15.50981 -38.77454,28.47505c-24.5976,12.60172 -59.25234,27.38452 -98.02687,41.56146s-74.64098,25.08228 -101.41965,31.38314c-27.62686,6.42203 -45.56008,7.87608 -47.37764,2.90809c-1.57522,-4.96799 12.60172,-15.02513 36.83581,-27.50569c-1.33287,-4.48331 -2.18107,-8.84544 -2.78692,-13.32875c-43.0155,21.93185 -69.18831,41.92497 -65.5532,52.34562c3.51394,10.78417 37.92634,8.96661 87.00037,-2.66575c28.59622,-6.78554 62.16043,-16.96386 97.54219,-29.9291c35.38176,-12.96524 67.73427,-26.89983 94.14942,-40.22858c45.43891,-22.78004 73.42928,-43.74252 69.79417,-54.52669c-3.2716,-10.42066 -35.74528,-8.96661 -82.27472,1.81756l0,0.00001z" fill="#EDE782" id="svg_6" stroke="null"/>
   </g>
  </g>
 </g>

</svg>