<svg width="350" height="350" xmlns="http://www.w3.org/2000/svg" version="1.1" xml:space="preserve">
 <g>
  <title>Layer 1</title>
  <g id="svg_1" stroke="null">
   <path class="st7" d="m785.35202,-373.75206" fill="#5C6AB1" id="svg_2" stroke="null"/>
   <g id="svg_3" stroke="null">
    <circle class="st8" cx="176.91483" cy="173.58836" r="157.26096" fill="#8E90A0" id="svg_4" stroke="null"/>
    <path class="st9" d="m120.87932,308.61586c0,2.16912 -2.34988,3.97671 -5.24203,3.97671s-5.24203,-1.8076 -5.24203,-3.97671c0,-2.16912 2.34988,-3.97671 5.24203,-3.97671s5.24203,1.8076 5.24203,3.97671zm127.97788,-254.50968c2.89216,0 5.24203,-1.8076 5.24203,-3.97671c0,-2.16912 -2.34988,-3.97671 -5.24203,-3.97671s-5.24203,1.8076 -5.24203,3.97671c0,2.16912 2.34988,3.97671 5.24203,3.97671zm14.46078,179.31364c0,-2.16912 -2.34988,-3.97671 -5.24203,-3.97671c-2.89216,0 -5.24203,1.8076 -5.24203,3.97671c0,2.16912 2.34988,3.97671 5.24203,3.97671c2.89216,0 5.24203,-1.8076 5.24203,-3.97671zm-140.26954,-118.57837c0.18076,-1.44608 -1.26532,-2.34988 -5.06127,-6.14583c-4.51899,-4.51899 -4.33823,-5.24203 -6.14583,-5.78431c-3.25367,-0.9038 -7.23039,1.08456 -9.39951,3.79595c-2.53064,3.25367 -1.98836,7.04963 -1.98836,8.13419c0.72304,5.96507 5.78431,11.38786 11.2071,11.93014c0.54228,0 4.51899,0.36152 5.96507,-1.98836c1.26532,-1.8076 -0.36152,-3.43443 0.9038,-5.78431c1.26532,-2.7114 4.15747,-2.34988 4.51899,-4.15747l0.00001,0zm127.61636,62.72362c1.08456,1.62684 3.25367,1.62684 5.96507,1.98836c8.13419,1.08456 8.13419,3.25367 13.19546,3.25367c1.08456,0 9.58026,-0.18076 11.74938,-5.24203c2.16912,-4.69975 -2.34988,-11.02634 -6.50735,-14.09926c-3.43443,-2.34988 -4.15747,-0.72304 -9.21875,-3.79595c-3.43443,-2.16912 -6.14583,-4.69975 -9.39951,-3.79595c-1.62684,0.54228 -1.62684,1.26532 -6.14583,5.78431c-3.79595,3.79595 -5.42279,4.69975 -5.06127,6.14583c0.36152,1.8076 3.07292,1.44608 4.51899,4.15747c1.26532,2.16912 -0.36152,3.79595 0.9038,5.60355l0.00001,0zm39.9479,78.26896c-12.47242,3.97671 -44.10537,-12.83394 -81.88415,-3.97671c-22.05269,5.24203 -35.4289,22.23344 -47.5398,21.14889c-6.86887,-0.54228 -33.98283,-34.34435 -78.81124,-32.89827c-18.43749,0.54228 -32.89827,6.14583 -41.75549,10.48406c0.36152,2.16912 1.26532,5.24203 2.53064,8.67647c3.97671,6.32659 8.49571,12.47242 13.37622,18.07597c31.99447,26.75244 102.67152,21.87193 156.71867,18.07597c18.97977,-1.26532 44.28613,-3.79595 74.29224,-9.39951c11.38786,-11.38786 20.96813,-24.40256 28.37928,-38.86334c-7.77267,-0.54228 -15.54534,5.60355 -25.30636,8.67647l-0.00001,0zm15.00306,-63.62742c-40.12866,-3.07292 -54.95095,3.61519 -92.36821,1.44608c-15.90685,-0.9038 -45.91297,-2.7114 -50.61272,-11.56862c-4.15747,-8.13419 15.18382,-18.79901 28.01776,-23.86028c31.09067,-12.29166 77.1844,-13.73774 111.52874,-8.31495c8.85723,1.44608 20.96813,3.79595 30.00611,4.88051c-0.72304,-5.78431 -1.8076,-11.56862 -3.25367,-17.17217c-30.90991,-7.41115 -97.24873,-1.98836 -121.47053,-1.08456c-82.60719,3.07292 -153.82652,14.28002 -188.35162,28.01776c-0.18076,3.43443 -0.36152,6.86887 -0.36152,10.3033c0,7.77267 0.54228,15.36458 1.62684,22.77572c38.68258,11.56862 118.57837,18.25673 189.97846,15.54534c47.72056,-1.8076 101.76772,-7.23039 120.92825,-12.1109c0.36152,-1.98836 0.72304,-3.97671 0.9038,-6.14583c-7.77267,-1.26532 -20.42585,-2.34988 -26.57168,-2.7114l-0.00001,0zm17.35293,-73.38844c0,0 0,0 0,0c-3.97671,-10.48406 -9.21875,-20.42585 -15.18382,-29.82535c0,0 -0.18076,-0.18076 -0.18076,-0.18076c-0.72304,-1.08456 -1.44608,-2.16912 -2.16912,-3.25367c0,-0.18076 -0.18076,-0.18076 -0.18076,-0.36152c-0.72304,-1.08456 -1.44608,-1.98836 -2.16912,-3.07292c0,-0.18076 -0.18076,-0.18076 -0.18076,-0.36152c-0.72304,-1.08456 -1.44608,-1.98836 -2.34988,-3.07292c0,0 -0.18076,-0.18076 -0.18076,-0.18076c-4.15747,-5.42279 -8.85723,-10.66482 -13.73774,-15.54534c-87.30694,12.47242 -122.55509,2.34988 -138.10042,-10.48406c-3.25367,-2.7114 -13.0147,-11.38786 -27.65624,-13.19546c-16.62989,-1.98836 -31.27143,6.14583 -40.8517,13.19546c-7.77267,5.24203 -18.07597,13.37622 -28.01776,25.30636c0,0 0,0.18076 -0.18076,0.18076c-6.68811,8.67647 -12.65318,18.07597 -17.53369,28.01776c37.95954,-13.0147 81.88415,-20.42585 128.70092,-20.42585c60.5545,0.18076 116.04774,12.47242 159.97235,33.25979l0.00002,0z" fill="#2798BA" id="svg_5" stroke="null"/>
   </g>
  </g>
 </g>

</svg>