<svg width="350" height="350" xmlns="http://www.w3.org/2000/svg" xml:space="preserve" version="1.1">

 <g>
  <title>Layer 1</title>
  <g stroke="null" id="svg_1">
   <g stroke="null" id="svg_2">
    <circle stroke="null" id="svg_3" fill="#B5B2A4" r="174.39033" cy="174.39034" cx="174.78531" class="st2"/>
    <path stroke="null" id="svg_4" fill="#754A1E" d="m174.19282,302.17124c50.55937,0 98.15627,-8.88739 140.22325,-24.48969c-6.31992,8.49239 -13.42983,16.3923 -21.13224,23.6997c-36.53704,11.05986 -27.25466,37.52453 -69.51913,37.52453c-42.26447,0 -131.92835,-26.46467 -168.66289,-37.52453c-7.7024,-7.30741 -14.81232,-15.20731 -21.13224,-23.6997c42.06697,15.60231 89.66388,24.48969 140.22325,24.48969zm-170.24287,-89.86138c1.38248,6.51742 3.35746,12.83734 5.33243,19.15726c79.9865,83.34396 104.0812,34.56207 164.71294,34.56207s117.70853,42.26447 164.71294,-34.56207c2.17247,-6.12242 3.94995,-12.63984 5.33243,-19.15726c-48.58439,23.50221 -107.24116,37.12954 -170.24287,37.12954c-62.60672,0 -121.06599,-13.82483 -169.84788,-37.12954zm344.4357,-48.1894c-39.49951,19.74975 -85.71393,32.78459 -135.68081,37.32703c-2.56747,-2.17247 -14.21982,-6.91241 -38.31452,-14.81232c-60.82924,-19.94725 123.43596,-14.21982 172.41535,-38.31452c-1.57998,-10.26987 -3.94995,-20.14475 -7.10991,-29.62463c-74.25907,-23.50221 -119.28851,9.67738 -165.50293,34.95706c-53.52183,29.22964 -117.70853,-12.83734 -165.50293,-34.95706c-3.15996,9.47988 -5.52993,19.35476 -7.10991,29.62463c38.51202,17.57728 163.72546,48.78189 201.05249,53.91683c-9.28238,0.59249 -18.76227,0.98749 -28.43965,0.98749c-64.77919,0 -124.62094,-14.41732 -173.99533,-39.10451c-0.1975,3.35746 -0.1975,6.51742 -0.1975,9.87488c0,5.72743 0.1975,11.25736 0.78999,16.78729c49.37438,24.48969 121.85598,64.58169 173.60033,38.90701c57.66928,-28.63714 124.22595,-14.41732 173.60033,-38.90701c0.59249,-5.52993 0.78999,-11.05986 0.78999,-16.78729c-0.1975,-3.35746 -0.395,-6.71492 -0.395,-9.87488zm-174.19283,-50.16437c43.84445,-32.58709 106.05618,-10.26987 150.29562,-28.43965c-2.17247,-3.55496 -4.34495,-7.10991 -6.71492,-10.46737c-42.85697,16.3923 -86.10893,10.66487 -138.05078,10.66487c-51.94185,0 -106.25367,5.72743 -149.11064,-10.66487c-2.36997,3.35746 -4.54244,6.91241 -6.71492,10.46737c44.23945,18.16977 69.91413,88.2814 150.29562,28.43965zm111.19111,-74.25907c-6.51742,-5.33243 -13.23233,-10.26987 -20.53974,-14.61482c-28.63714,6.31992 -59.05176,9.87488 -90.65137,9.87488s-62.01423,-3.35746 -90.65137,-9.87488c-7.10991,4.34495 -14.02232,9.28238 -20.53974,14.61482c34.36457,9.67738 71.8891,15.00981 111.19111,15.00981c39.30201,0 143.58071,20.34225 111.19111,-15.00981z" class="st0"/>
   </g>
  </g>
 </g>
</svg>