<?xml version="1.0" encoding="utf-8"?>
<!-- Generator: Adobe Illustrator 23.0.1, SVG Export Plug-In . SVG Version: 6.00 Build 0)  -->
<svg version="1.1" id="Layer_1" xmlns="http://www.w3.org/2000/svg" xmlns:xlink="http://www.w3.org/1999/xlink"
	 viewBox="0 0 1500 1500" style="enable-background:new 0 0 1500 1500;" xml:space="preserve">
<style type="text/css">
	.st0{fill:#754A1E;}
	.st1{fill:#513315;}
	.st2{fill:#B5B2A4;}
	.st3{fill:#ED1C24;}
	.st4{fill:#BE1E2D;}
	.st5{fill:#E95924;}
	.st6{fill:#EDE782;}
	.st7{fill:#5C6AB1;}
	.st8{fill:#8E90A0;}
	.st9{fill:#2798BA;}
	.st10{fill:#243E90;}
	.st11{fill:#166734;}
	.st12{fill:#636464;}
	.st13{fill:#F5EB26;}
	.st14{fill:#F19D1F;}
	.st15{fill:#F7941D;}
	.st16{fill:#F2BB72;}
</style>
<g>
	<path class="st7"/>
	<g>
		<ellipse class="st10" cx="919.4" cy="372.6" rx="91.7" ry="94.5"/>
		<path class="st11" d="M878.6,332.2c-0.1,0.8-0.2,1.6-0.3,2.4c-4.1-0.6-8.1-1.2-13-1.9C870.9,326.8,874.1,335.4,878.6,332.2z
			 M917.8,279.1c-0.3-0.4-0.6-0.8-0.8-1c-31.9,0.7-59.8,18.3-75.7,44.4c0.2,0.7,0.4,1.4,0.5,2.1c0.1-0.2,0.2-0.3,0.3-0.5
			c0.5,3,0.2,6.2,1.5,8.4c1.4,2.4,4.2,3.9,5.8,5.9c2.5,4.5,4.3,9.5,7.6,13.2c2.5,2.9,3.1,5.1,1.8,8.2c-0.7,1.7-1.9,3.1-2.9,4.6
			c-4.9,7-4.7,14.8,0.5,21.3c1.3,1.6,3,3,4.2,4.7c1,1.4,1.3,3.3,2.2,4.8c4,7.1-0.7,14.5,0.9,21.7c0.4,1.7-0.6,3.6-0.5,5.4
			c0.1,7.9,0.4,15.8,6.1,22.1c1.6,1.8,3.8,3.1,6.5,4.1c-0.3-1.8-0.5-3.6-1-5.3c-1.8-6.4,0.5-11.8,5.6-15.1c5.8-3.9,9.8-9,13.6-14.6
			c0.9-1.3,2.4-2.6,3.8-2.9c5.5-1.3,8.2-5.4,10.6-10c1.7-3.2,3.3-6.4,5.4-9.3c3.3-4.6,2.9-8.3-1.7-11.4c-1.3-0.8-2.7-1.8-4.1-2
			c-5.7-0.9-7.5-5.4-9.9-9.7c-1.4-2.5-3-5.4-5.2-7c-6.9-4.6-14.2-8.6-21.5-12.6c-0.8-0.4-2.5,0.9-3.8,1.3c-1.9,0.7-4.4,2.3-5.7,1.7
			c-2.1-1-3.8-3.3-4.9-5.5c-1.1-2.2-1.3-4.8-1.5-7.3c-0.1-0.8,1-1.8,1.5-2.7c0.6-1.1,1.2-2.3,1.8-3.4c-1.1-0.3-2.3-0.9-3.3-0.8
			c-3.4,0.4-4.6-1.3-4.4-4.4c0.3-7.1,10.4-13.1,16.7-9.8c1.3,0.7,2.1,2.4,2.9,3.8c0.9,1.6,1.4,3.3,2.2,5.2c0.8-0.6,1-0.7,1-0.8
			c-0.1-7.4,3.9-11.8,10.4-14.1c4.9-1.7,10-2.8,15-4.3c2.3-0.7,4.4-1.8,6.7-2.4c1.3-0.3,2.8,0.4,4.1,0.1c1.6-0.3,3.7-0.8,4.6-2
			c1-1.5,2.6-4-1.1-5.2c2.9-3.1,1.9-5.6-1-7.6c-0.5-0.4-1.4-1-1.8-0.8c-2.9,1.3-5.7,2.8-8.5,4.2c-1.9,1-3.9,1.9-5.9,2.7
			c-0.1,0-1.1-1.5-1.2-2.4c-0.4-2.5,0.7-4.1,2.9-5.5c5.5-3.6,12.4-3.9,16.9-0.3c0.1,0.1,4.7-3.8,5-4.1c0.2-0.1,0.3-0.3,0.4-0.4
			c0.1-0.2,0-0.4,0-0.6C919.4,281.9,918.7,280.4,917.8,279.1z M968.4,293c-0.1,0.1-0.2,0.3-0.4,0.5c-0.3,0.3-0.8,0.5-1.3,0.6
			c-2.3,0.5-2.4,0.2-2.8,2.2c-0.2,1.1-0.1,2.7,0.1,3.8c0.5,3,2.4,4.2,5.1,4.9c2,0.4,3.7,2.7,6,4.5c0.1,0.9,0.3,2.6,0.6,4.4
			c0.4,2.7-3.1,6.3-6.6,6.9c-2.4,0.5-4.7,1.2-7.5,2c3,4.3,3.6,9.7,9.8,9.5c5.1-0.2,5.5-3.8,5.2-8c3,1,5.5,1.9,8.2,2.9
			c1.1,5,1.2,5.1,5.2,2.6c0.7,1.3,1.4,2.6,2.2,4.2c1-0.7,1.8-1.3,2.6-1.9c1,5.7,11,3.1,9.6,10.8c-4.8,0.5-8.7-1-13-3.8
			c-8.2-5.4-17.6-6.3-26.7-2.3c-4,1.8-7.3,5.3-10.7,8.3c-1.1,0.9-1.8,2.6-2,4c-0.8,4.5-1.1,9.2-2.1,13.7c-1.2,5.4-0.5,9.6,4.1,13.5
			c5.5,4.6,10.9,8.3,18.5,6.8c1.8-0.4,3.8,0.5,5.7,0.9c1.5,0.3,2.9,0.7,5.4,1.3c-0.3,2.1-0.2,5-1.1,7.4c-1.4,3.9-1.8,7.6-0.1,11.5
			c1.7,3.7,0.7,6.9-2,9.7c-4.2,4.2-5.9,8.8-4.4,15c0.6,2.2-1,5-1.8,7.5c-1.2,3.9-3.7,6.5-3.2,10.8c0.1,0.5,0.1,1.1,0.6,1.5
			c0.4,0.3,1,0.3,1.4,0.1c0.7-0.3,1.4-0.8,2.1-1.3c21.6-17.3,35.5-44.3,35.5-74.7C1010.7,339.2,993.8,309.8,968.4,293z M963.1,313.5
			c0.9,0.8,2.7,1.2,3.9,0.8c0.9-0.3,2-2.2,1.7-3.1c-1.3-4.2-4.6-6.5-8.4-8.6c-0.3,1.7-0.4,2.8-0.7,3.9c-0.2,0.9-0.7,1.8-1,2.6
			c1.1,0.2,2.1,0.4,3.3,0.7C962.2,311,962.2,312.7,963.1,313.5z M933.2,295.2c2,0.8,4,1.5,6.8,2.6c0.3-2.3,0.5-3.9,0.8-5.5
			c-2.5,0.4-5,0.7-7.4,1.1C933.2,294,933.2,294.6,933.2,295.2z M921.5,291.7c0.4,3.1,2.2,4.6,4.6,6.2c1.7-2.1,3.4-4.4,5.3-6.4
			c1.4-1.4,3.4-2.1,5-3.3c2.1-1.6,3.6-5.1,6.2-5.8c0.2,0,0.4-0.1,0.5-0.2c0.1-0.1,0.1-0.2,0.2-0.4c0-0.1,0-0.2,0-0.4
			c-6.2-1.8-12.7-2.9-19.3-3.2C921,280.8,921,288,921.5,291.7z"/>
	</g>
</g>
</svg>
