<?xml version="1.0" encoding="utf-8"?>
<!-- Generator: Adobe Illustrator 23.0.1, SVG Export Plug-In . SVG Version: 6.00 Build 0)  -->
<svg version="1.1" id="Layer_1" xmlns="http://www.w3.org/2000/svg" xmlns:xlink="http://www.w3.org/1999/xlink" x="0px" y="0px"
	 viewBox="0 0 1500 1500" style="enable-background:new 0 0 1500 1500;" xml:space="preserve">
<style type="text/css">
	.st0{fill:#754A1E;}
	.st1{fill:#513315;}
	.st2{fill:#B5B2A4;}
	.st3{fill:#ED1C24;}
	.st4{fill:#BE1E2D;}
	.st5{fill:#E95924;}
	.st6{fill:#EDE782;}
	.st7{fill:#5C6AB1;}
	.st8{fill:#8E90A0;}
	.st9{fill:#2798BA;}
	.st10{fill:#243E90;}
	.st11{fill:#166734;}
	.st12{fill:#636464;}
	.st13{fill:#F5EB26;}
	.st14{fill:#F19D1F;}
	.st15{fill:#F7941D;}
	.st16{fill:#F2BB72;}
</style>
<g>
	<!-- Earth -->
	<g>
		<ellipse class="st3" cx="1154" cy="533.5" rx="96" ry="95.8"/>
		<path class="st4" d="M1162.5,574.6c29.3,0,56.3,0.4,78.3,1c-1.3,2.8-2.8,5.6-4.4,8.2c-21.2,0.5-46.6,0.8-74,0.8
			c-35.3,0-67.4-0.5-91.2-1.3c-1.4-2.3-2.7-4.7-3.8-7.2C1091.7,575.2,1125.3,574.6,1162.5,574.6z M1193.2,527.7
			c0,3.1,16.6,5.6,37.2,5.6c7.2,0,13.9-0.3,19.6-0.9c-0.1-3.3-0.3-6.5-0.7-9.6c-5.5-0.5-12-0.8-18.9-0.8
			C1209.8,522,1193.2,524.6,1193.2,527.7z M1187.3,462c10.4,0,20-0.5,27.7-1.2c-5.2-4.3-10.8-8-16.8-11.1c-3.5-0.1-7.1-0.2-10.9-0.2
			c-25.6,0-46.3,2.8-46.3,6.3C1141,459.2,1161.7,462,1187.3,462z M1119.5,599.6c-13.5,0-25.7,0.7-34.4,1.7c3,3.1,6.2,6,9.6,8.7
			c7.2,0.5,15.7,0.8,24.8,0.8c26.3,0,47.6-2.5,47.6-5.6S1145.8,599.6,1119.5,599.6z M1147.5,514.5c0-10.4-25.7-18.8-57.4-18.8
			c-8.8,0-17.1,0.6-24.6,1.8c-4.3,10.1-6.8,21.1-7.4,32.6c9.1,2,20.1,3.2,32,3.2C1121.9,533.3,1147.5,524.9,1147.5,514.5z
			 M1124.1,485.7c20.2,0,36.5-2,36.5-4.4s-16.3-4.4-36.5-4.4s-36.5,2-36.5,4.4S1103.9,485.7,1124.1,485.7z M1133.2,549.6
			c0,4.8,15.8,8.8,35.2,8.8s35.2-3.9,35.2-8.8c0-4.8-15.8-8.8-35.2-8.8S1133.2,544.7,1133.2,549.6z M1186.7,495.1
			c0,2.4,7.9,4.4,17.6,4.4c9.7,0,17.6-2,17.6-4.4c0-2.4-7.9-4.4-17.6-4.4C1194.5,490.8,1186.7,492.7,1186.7,495.1z"/>
		<path d="M1138.6,650.8l2.3,37h-4.7l-0.9-16.2c-0.3-5.2-0.6-11.4-0.5-16h-0.2c-1.3,4.3-2.8,8.9-4.7,14l-6.5,17.9h-3.6l-6-17.6
			c-1.8-5.2-3.2-10-4.3-14.4h-0.1c-0.1,4.6-0.4,10.8-0.7,16.3l-1,15.8h-4.6l2.6-37h6.1l6.3,17.9c1.5,4.6,2.8,8.6,3.7,12.4h0.2
			c0.9-3.7,2.2-7.8,3.9-12.4l6.6-17.9H1138.6z M1167,681.4c0,2.3,0.1,4.6,0.4,6.4h-4.4l-0.4-3.3h-0.2c-1.5,2.1-4.3,3.9-8.1,3.9
			c-5.4,0-8.1-3.8-8.1-7.6c0-6.4,5.7-9.9,16-9.9v-0.5c0-2.2-0.6-6.1-6-6.1c-2.5,0-5,0.8-6.9,2l-1.1-3.2c2.2-1.4,5.4-2.4,8.7-2.4
			c8.1,0,10.1,5.5,10.1,10.9V681.4z M1162.4,674.3c-5.3-0.1-11.2,0.8-11.2,6c0,3.1,2.1,4.6,4.6,4.6c3.5,0,5.6-2.2,6.4-4.4
			c0.2-0.5,0.3-1,0.3-1.5V674.3z M1179.2,666.5h-0.2l-0.2-5.2h-4.2c0.2,2.5,0.2,5.2,0.2,8.3v18.3h4.8v-14.1c0-0.8,0.1-1.6,0.2-2.2
			c0.7-3.6,3.1-6.2,6.5-6.2c0.7,0,1.2,0.1,1.6,0.2v-4.6c-0.4-0.1-0.8-0.2-1.4-0.2C1183.3,660.7,1180.4,662.9,1179.2,666.5z
			 M1201.3,672.4c-3.5-1.3-5-2.3-5-4.5c0-2,1.6-3.6,4.4-3.6c2.5,0,4.4,0.9,5.4,1.5l1.2-3.5c-1.5-0.9-3.8-1.6-6.5-1.6
			c-5.7,0-9.2,3.5-9.2,7.8c0,3.2,2.2,5.8,7,7.5c3.6,1.3,4.9,2.6,4.9,4.9c0,2.2-1.6,3.9-5.2,3.9c-2.4,0-4.9-1-6.4-1.9l-1.2,3.7
			c1.9,1.1,4.6,1.8,7.5,1.8c6.3,0,9.9-3.3,9.9-8C1208.3,676.5,1205.9,674.2,1201.3,672.4z"/>
	</g>
</g>
</svg>
