<?xml version="1.0" encoding="utf-8"?>
<!-- Generator: Adobe Illustrator 23.0.1, SVG Export Plug-In . SVG Version: 6.00 Build 0)  -->
<svg version="1.1" id="Layer_1" xmlns="http://www.w3.org/2000/svg" xmlns:xlink="http://www.w3.org/1999/xlink" x="0px" y="0px"
	 viewBox="0 0 1500 1500" style="enable-background:new 0 0 1500 1500;" xml:space="preserve">
<style type="text/css">
	.st0{fill:#754A1E;}
	.st1{fill:#513315;}
	.st2{fill:#B5B2A4;}
	.st3{fill:#ED1C24;}
	.st4{fill:#BE1E2D;}
	.st5{fill:#E95924;}
	.st6{fill:#EDE782;}
	.st7{fill:#5C6AB1;}
	.st8{fill:#8E90A0;}
	.st9{fill:#2798BA;}
	.st10{fill:#243E90;}
	.st11{fill:#166734;}
	.st12{fill:#636464;}
	.st13{fill:#F5EB26;}
	.st14{fill:#F19D1F;}
	.st15{fill:#F7941D;}
	.st16{fill:#F2BB72;}
</style>
<g>
	<g>
		<g>
			<circle class="st0" cx="384.7" cy="460" r="88.1"/>
			<path class="st1" d="M351.7,440c0-5.2,4.6-9.5,10.4-9.5c5.7,0,10.4,4.3,10.4,9.5c0,5.2-4.6,9.5-10.4,9.5
				C356.4,449.5,351.7,445.3,351.7,440z M386.3,395.1c-3.8,0-6.9,2.3-6.9,5.2s3.1,5.2,6.9,5.2c3.8,0,6.9-2.3,6.9-5.2
				S390.1,395.1,386.3,395.1z M435.5,414.1c-4.3,0-7.8,2.7-7.8,6c0,3.3,3.5,6,7.8,6c4.3,0,7.8-2.7,7.8-6
				C443.3,416.8,439.8,414.1,435.5,414.1z M384.6,471.1c-3.3,0-6,2.3-6,5.2c0,2.9,2.7,5.2,6,5.2c3.3,0,6-2.3,6-5.2
				C390.6,473.4,387.9,471.1,384.6,471.1z M422.6,498.8c-4.8,0-8.6,3.9-8.6,8.6c0,4.8,3.9,8.6,8.6,8.6c4.8,0,8.6-3.9,8.6-8.6
				C431.2,502.6,427.4,498.8,422.6,498.8z M324.1,469.4c-4.3,0-7.8,2.3-7.8,5.2c0,2.9,3.5,5.2,7.8,5.2c4.3,0,7.8-2.3,7.8-5.2
				C331.9,471.7,328.4,469.4,324.1,469.4z M445.9,453c-2.4,0-4.3,3.5-4.3,7.8c0,4.3,1.9,7.8,4.3,7.8c2.4,0,4.3-3.5,4.3-7.8
				C450.2,456.4,448.3,453,445.9,453z M361,517.1c-8.1,0-14.7,6.8-14.7,15.1c0,2.2,0.5,4.4,1.3,6.3c6,3.2,12.4,5.8,19.2,7.6
				c5.2-2.3,8.9-7.7,8.9-13.9C375.7,523.9,369.1,517.1,361,517.1z"/>
		</g>
		<path d="M326.1,571.1l2.3,37h-4.7l-0.9-16.2c-0.3-5.2-0.6-11.4-0.5-16h-0.2c-1.3,4.3-2.8,8.9-4.7,14l-6.5,17.9h-3.6l-6-17.6
			c-1.8-5.2-3.2-10-4.3-14.4H297c-0.1,4.6-0.4,10.8-0.7,16.3l-1,15.8h-4.6l2.6-37h6.1l6.3,17.9c1.5,4.6,2.8,8.6,3.7,12.4h0.2
			c0.9-3.7,2.2-7.8,3.9-12.4l6.6-17.9H326.1z M357.4,593.4c0,1-0.1,1.8-0.2,2.2h-18.6c0.1,6.5,4.3,9.2,9.1,9.2
			c3.5,0,5.5-0.6,7.3-1.4l0.8,3.5c-1.7,0.8-4.6,1.6-8.8,1.6c-8.2,0-13.1-5.4-13.1-13.4s4.7-14.3,12.4-14.3
			C355.1,580.9,357.4,588.5,357.4,593.4z M352.8,592.2c0.1-3.1-1.3-7.8-6.7-7.8c-4.9,0-7,4.5-7.4,7.8H352.8z M367.8,586.7h-0.2
			l-0.2-5.2h-4.2c0.2,2.5,0.2,5.2,0.2,8.3V608h4.8v-14.1c0-0.8,0.1-1.6,0.2-2.2c0.7-3.6,3.1-6.2,6.5-6.2c0.7,0,1.2,0.1,1.6,0.2V581
			c-0.4-0.1-0.8-0.2-1.4-0.2C371.9,580.9,369,583.1,367.8,586.7z M393.1,584.8c2.6,0,4.4,0.6,5.6,1.3l1.1-3.7
			c-1.3-0.7-3.8-1.4-6.7-1.4c-8.7,0-14.3,5.9-14.3,14.1c0,8.1,5.2,13.5,13.2,13.5c3.6,0,6.4-0.9,7.6-1.5l-0.8-3.6
			c-1.4,0.6-3.2,1.3-5.9,1.3c-5.3,0-9.2-3.8-9.2-9.9C383.8,589.3,387.1,584.8,393.1,584.8z M427.6,581.5h-4.8v16.3
			c0,0.9-0.2,1.8-0.4,2.5c-0.9,2.1-3.1,4.4-6.4,4.4c-4.4,0-5.9-3.4-5.9-8.4v-14.7h-4.8V597c0,9.3,5,11.6,9.2,11.6
			c4.7,0,7.5-2.8,8.8-4.9h0.1l0.3,4.3h4.3c-0.2-2.1-0.2-4.5-0.2-7.2V581.5z M440,586.7h-0.2l-0.2-5.2h-4.2c0.2,2.5,0.2,5.2,0.2,8.3
			V608h4.8v-14.1c0-0.8,0.1-1.6,0.2-2.2c0.7-3.6,3.1-6.2,6.5-6.2c0.7,0,1.2,0.1,1.6,0.2V581c-0.4-0.1-0.8-0.2-1.4-0.2
			C444.1,580.9,441.2,583.1,440,586.7z M471.2,581.5l-5.3,15.6c-0.7,1.9-1.2,3.9-1.7,5.5h-0.1c-0.4-1.6-1.1-3.7-1.7-5.4l-5.8-15.7
			h-5.3l9.8,24.5c0.2,0.6,0.3,1,0.3,1.3s-0.2,0.7-0.4,1.2c-1.1,2.5-2.7,4.3-4.1,5.4c-1.4,1.2-3,2-4.2,2.4l1.2,4.1
			c1.2-0.2,3.6-1,5.9-3.1c3.3-2.9,5.6-7.5,9.1-16.6l7.2-18.9H471.2z"/>
	</g>
</g>
</svg>
