<?xml version="1.0" encoding="utf-8"?>
<!-- Generator: Adobe Illustrator 23.0.1, SVG Export Plug-In . SVG Version: 6.00 Build 0)  -->
<svg version="1.1" id="Layer_1" xmlns="http://www.w3.org/2000/svg" xmlns:xlink="http://www.w3.org/1999/xlink" x="0px" y="0px"
	 viewBox="0 0 1500 1500" style="enable-background:new 0 0 1500 1500;" xml:space="preserve">
<style type="text/css">
	.st0{fill:#754A1E;}
	.st1{fill:#513315;}
	.st2{fill:#B5B2A4;}
	.st3{fill:#ED1C24;}
	.st4{fill:#BE1E2D;}
	.st5{fill:#E95924;}
	.st6{fill:#EDE782;}
	.st7{fill:#5C6AB1;}
	.st8{fill:#8E90A0;}
	.st9{fill:#2798BA;}
	.st10{fill:#243E90;}
	.st11{fill:#166734;}
	.st12{fill:#636464;}
	.st13{fill:#F5EB26;}
	.st14{fill:#F19D1F;}
	.st15{fill:#F7941D;}
	.st16{fill:#F2BB72;}
</style>
<g>
	<g>
		<ellipse class="st10" cx="414.6" cy="1041.6" rx="90.5" ry="91.9"/>
		<path class="st9" d="M397.2,995.9c0,6.9-12.6,12.6-28.1,12.6s-28.1-5.6-28.1-12.6c0-6.9,12.6-12.6,28.1-12.6
			S397.2,988.9,397.2,995.9z M417.1,968.4c0-3-2-5.5-4.5-5.5s-4.5,2.5-4.5,5.5c0,3,2,5.5,4.5,5.5S417.1,971.5,417.1,968.4z
			 M491.7,1059.7c-4.6-10.4-22.4-12.7-39.9-5.1c-17.5,7.6-27.9,22.3-23.3,32.7c4.6,10.4,22.4,12.7,39.9,5.1
			C485.8,1084.8,496.2,1070.2,491.7,1059.7z M406.2,1106.8c-1.8,0-3.2,1.6-3.2,3.5c0,2,1.4,3.5,3.2,3.5c1.8,0,3.2-1.6,3.2-3.5
			C409.4,1108.4,408,1106.8,406.2,1106.8z M380.7,1074.2c-5.9,0-10.6,3.5-10.6,7.7s4.8,7.7,10.6,7.7c5.9,0,10.6-3.5,10.6-7.7
			S386.6,1074.2,380.7,1074.2z M462.9,1009.1c7.1,0,12.9-2,12.9-4.5c0-2.5-5.8-4.5-12.9-4.5c-7.1,0-12.9,2-12.9,4.5
			C450,1007.1,455.8,1009.1,462.9,1009.1z M354,1026.8c-5.2,0-9.4,4.2-9.4,9.4c0,5.2,4.2,9.4,9.4,9.4c5.2,0,9.4-4.2,9.4-9.4
			C363.3,1031,359.1,1026.8,354,1026.8z M418.5,1024.2c-3.4,0-6.1,5.1-6.1,11.3s2.7,11.3,6.1,11.3c3.4,0,6.1-5.1,6.1-11.3
			S421.8,1024.2,418.5,1024.2z"/>
		<path d="M338.3,1174.1h4.5v37h-4.8l-11.7-18.8c-2.6-4.1-5-8.3-6.9-12.3l-0.2,0.1c0.3,4.7,0.4,9.1,0.4,15.2v15.8H315v-37h5.2
			l11.8,18.7c2.7,4.3,4.9,8.2,6.6,12l0.1-0.1c-0.4-4.9-0.5-9.4-0.5-15.2V1174.1z M372.4,1196.4c0,1-0.1,1.8-0.2,2.2h-18.6
			c0.1,6.5,4.3,9.2,9.1,9.2c3.5,0,5.5-0.6,7.3-1.4l0.8,3.5c-1.7,0.8-4.6,1.6-8.8,1.6c-8.2,0-13.1-5.4-13.1-13.4
			c0-8,4.7-14.3,12.4-14.3C370.1,1183.9,372.4,1191.5,372.4,1196.4z M367.8,1195.2c0.1-3.1-1.3-7.8-6.7-7.8c-4.9,0-7,4.5-7.4,7.8
			H367.8z M403.5,1197.4c0,9.5-5.8,14.3-12.1,14.3c-3.5,0-6.6-1.5-8.2-4.2h-0.1v14.4h-4.8v-28.7c0-3.4-0.1-6.1-0.2-8.7h4.3l0.2,4.6
			h0.1c2-3.2,5.1-5.2,9.4-5.2C398.7,1183.9,403.5,1189.3,403.5,1197.4z M398.7,1197.6c0-5.3-2.8-9.9-7.9-9.9c-3.3,0-6.4,2.4-7.3,6
			c-0.2,0.6-0.3,1.3-0.3,2v4.6c0,0.7,0.1,1.4,0.2,2c0.9,3.3,3.8,5.6,7.2,5.6C395.7,1207.9,398.7,1203.7,398.7,1197.6z M415.4,1176.9
			l-4.7,1.3v6.4h-4.1v3.7h4.1v14.5c0,3.1,0.5,5.5,1.9,6.9c1.2,1.3,3,2,5.2,2c1.9,0,3.3-0.3,4.3-0.7l-0.2-3.6
			c-0.6,0.2-1.5,0.3-2.8,0.3c-2.7,0-3.6-1.9-3.6-5.2v-14.3h6.9v-3.7h-6.9V1176.9z M449.9,1184.5h-4.8v16.3c0,0.9-0.2,1.8-0.4,2.5
			c-0.9,2.1-3.1,4.4-6.4,4.4c-4.4,0-5.9-3.4-5.9-8.4v-14.7h-4.8v15.5c0,9.3,5,11.6,9.2,11.6c4.7,0,7.5-2.8,8.8-4.9h0.1l0.3,4.3h4.3
			c-0.2-2.1-0.2-4.5-0.2-7.2V1184.5z M471.2,1183.9c-4.4,0-7.5,2.5-8.8,5h-0.1l-0.3-4.4h-4.3c0.2,2.2,0.2,4.4,0.2,7.2v19.4h4.8v-16
			c0-0.8,0.1-1.6,0.3-2.2c0.8-2.7,3.3-4.9,6.5-4.9c4.6,0,6.1,3.6,6.1,7.8v15.3h4.8v-15.8C480.5,1186.1,474.8,1183.9,471.2,1183.9z
			 M509.7,1198.6h-18.6c0.1,6.5,4.3,9.2,9.1,9.2c3.5,0,5.5-0.6,7.3-1.4l0.8,3.5c-1.7,0.8-4.6,1.6-8.8,1.6c-8.2,0-13.1-5.4-13.1-13.4
			c0-8,4.7-14.3,12.4-14.3c8.7,0,11,7.6,11,12.5C509.9,1197.4,509.8,1198.2,509.7,1198.6z M505.2,1195.2c0.1-3.1-1.3-7.8-6.7-7.8
			c-4.9,0-7,4.5-7.4,7.8H505.2z"/>
	</g>
</g>
</svg>
