<?xml version="1.0" encoding="utf-8"?>
<!-- Generator: Adobe Illustrator 23.0.1, SVG Export Plug-In . SVG Version: 6.00 Build 0)  -->
<svg version="1.1" id="Layer_1" xmlns="http://www.w3.org/2000/svg" xmlns:xlink="http://www.w3.org/1999/xlink" x="0px" y="0px"
	 viewBox="0 0 1500 1500" style="enable-background:new 0 0 1500 1500;" xml:space="preserve">
<style type="text/css">
	.st0{fill:#754A1E;}
	.st1{fill:#513315;}
	.st2{fill:#B5B2A4;}
	.st3{fill:#ED1C24;}
	.st4{fill:#BE1E2D;}
	.st5{fill:#E95924;}
	.st6{fill:#EDE782;}
	.st7{fill:#5C6AB1;}
	.st8{fill:#8E90A0;}
	.st9{fill:#2798BA;}
	.st10{fill:#243E90;}
	.st11{fill:#166734;}
	.st12{fill:#636464;}
	.st13{fill:#F5EB26;}
	.st14{fill:#F19D1F;}
	.st15{fill:#F7941D;}
	.st16{fill:#F2BB72;}
</style>
<g>
	<g>
		<circle class="st12" cx="332.5" cy="762" r="82.5"/>
		<path class="st8" d="M345.1,809.4c23.1,0,42.8,2.1,50.6,5.1c-2.2,2.7-4.7,5.2-7.2,7.6c-9.9,1.9-25.6,3.2-43.4,3.2
			c-29.9,0-54.2-3.5-54.2-7.9C290.9,813,315.1,809.4,345.1,809.4z M306.1,749.4c0-4.7-15.3-8.4-34.2-8.4c-7.3,0-14.1,0.6-19.7,1.5
			c-0.1,0.5-0.2,1-0.3,1.5c-0.8,3.9-1.4,7.9-1.7,11.9c5.9,1.2,13.5,1.9,21.7,1.9C290.8,757.8,306.1,754.1,306.1,749.4z M361.6,793.8
			c-1.3-2.4-3-5.5-7-6.7c-4.1-1.2-8.8-0.3-10.8,0c-21.4,3.8-56.3,0.9-57.4-2.4c-0.1-0.2,0-0.4,0.2-0.6c1.3-1.9,6.9-8.6,17-10.6
			c16.5-3.3,33.2,8.2,41,4.6c2.2-1,4.1-3.8,4.7-6.7c1.6-7.6-29.5-4-47.7-4c-19.8,0-37.7,1.8-50.9,4.7c1.2,9.1,3.8,17.7,7.7,25.7
			c12.1,2,27.1,3.2,43.2,3.2C326.4,800.9,366,802.1,361.6,793.8z M383.8,751.5c-15.8,0-28.7,3.4-28.7,7.6c0,4.2,12.8,7.6,28.7,7.6
			s28.7-3.4,28.7-7.6C412.5,754.9,399.6,751.5,383.8,751.5z M296.1,738.9c5.7,4.8,26.2-1.6,60.3-6.8c29.4-4.5,43.6-4.3,49.3-7.2
			c-4-7.9-9.3-15.1-15.6-21.2c-1.8-1.1-3.6-2.1-5.3-3.1c-2.7-1.6-14.3-8.2-33.4-13.7c-1.6-0.5-18.9-5.3-30.9-6.1
			c-3.9,0.6-7.6,1.4-11.3,2.4c-0.6,1.4,0.4,3-1.8,5.5c-3.5,4-9.8,4-10.3,6.1c-0.7,2.6,8,6.3,17.6,8.3c21.9,4.6,42.6-0.7,50.1,3.8
			c4.9,2.9,6.1,6.7,6.1,6.7c0.2,0.7,0.3,1,0.2,1.2c-2.2,3-28.2-7.1-43.8-1c-5.1,2-7.3,5-14.3,5.6c-5.6,0.5-8-1.7-10.9-0.1
			c-4.1,2.4-5.8,8.4-7.1,13.1C293.9,735.8,294.8,737.7,296.1,738.9z"/>
		<path d="M298.6,865.6c-2.2-2-5.6-3.1-10.4-3.1c-3.8,0-6.9,0.3-9.2,0.7v36.5h4.8v-14.8c1.1,0.3,2.4,0.3,3.8,0.3
			c4.7,0,8.8-1.4,11.3-4.1c1.9-1.9,2.9-4.6,2.9-7.9C301.9,870,300.6,867.3,298.6,865.6z M287.8,881.4c-1.6,0-2.9-0.1-3.9-0.4v-14.4
			c0.8-0.2,2.4-0.4,4.5-0.4c5.3,0,8.7,2.4,8.7,7.2C297.1,878.6,293.6,881.4,287.8,881.4z M307.8,860.8h4.8v38.9h-4.8V860.8z
			 M343,892.5c0,2.7,0.1,5.2,0.2,7.2h-4.3l-0.3-4.3h-0.1c-1.3,2.1-4.1,4.9-8.8,4.9c-4.2,0-9.2-2.3-9.2-11.6v-15.5h4.8v14.7
			c0,5,1.5,8.4,5.9,8.4c3.2,0,5.5-2.2,6.4-4.4c0.3-0.7,0.4-1.6,0.4-2.5v-16.3h4.8V892.5z M356.8,873.2h6.9v3.7h-6.9v14.3
			c0,3.3,0.9,5.2,3.6,5.2c1.3,0,2.2-0.2,2.8-0.3l0.2,3.6c-0.9,0.4-2.4,0.7-4.3,0.7c-2.2,0-4.1-0.7-5.2-2c-1.4-1.4-1.9-3.8-1.9-6.9
			v-14.5H348v-3.7h4.1v-6.4l4.7-1.3V873.2z M380,872.6c-7.3,0-13.2,5.2-13.2,14.1c0,8.4,5.5,13.7,12.7,13.7
			c6.4,0,13.2-4.3,13.2-14.1C392.8,878.1,387.7,872.6,380,872.6z M379.8,896.7c-4.7,0-8.1-4.4-8.1-10.2c0-5,2.5-10.3,8.2-10.3
			s8,5.7,8,10.2C387.9,892.4,384.4,896.7,379.8,896.7z"/>
	</g>
</g>
</svg>
