<?xml version="1.0" encoding="utf-8"?>
<!-- Generator: Adobe Illustrator 23.0.1, SVG Export Plug-In . SVG Version: 6.00 Build 0)  -->
<svg version="1.1" id="Layer_1" xmlns="http://www.w3.org/2000/svg" xmlns:xlink="http://www.w3.org/1999/xlink" x="0px" y="0px"
	 viewBox="0 0 1500 1500" style="enable-background:new 0 0 1500 1500;" xml:space="preserve">
<style type="text/css">
	.st0{fill:#754A1E;}
	.st1{fill:#513315;}
	.st2{fill:#B5B2A4;}
	.st3{fill:#ED1C24;}
	.st4{fill:#BE1E2D;}
	.st5{fill:#E95924;}
	.st6{fill:#EDE782;}
	.st7{fill:#5C6AB1;}
	.st8{fill:#8E90A0;}
	.st9{fill:#2798BA;}
	.st10{fill:#243E90;}
	.st11{fill:#166734;}
	.st12{fill:#636464;}
	.st13{fill:#F5EB26;}
	.st14{fill:#F19D1F;}
	.st15{fill:#F7941D;}
	.st16{fill:#F2BB72;}
</style>
<g>
	<g>
		<g>
			<circle class="st2" cx="1011.4" cy="1067.4" r="88.8"/>
			<path class="st0" d="M1011.1,1132.4c25.7,0,50-4.5,71.4-12.4c-3.2,4.3-6.8,8.4-10.7,12c-18.6,5.7-39.1,8.8-60.6,8.8
				c-21.5,0-42-3.1-60.6-8.8c-3.9-3.7-7.5-7.7-10.7-12C961.1,1128,985.4,1132.4,1011.1,1132.4z M924.5,1086.6
				c0.7,3.3,1.7,6.6,2.8,9.7c24.2,11.1,53,17.6,83.9,17.6s59.7-6.5,83.9-17.6c1.1-3.2,2-6.4,2.8-9.7c-24.8,11.9-54.6,18.9-86.7,18.9
				S949.2,1098.6,924.5,1086.6z M1099.8,1062.1c-25.2,12.5-55.7,19.9-88.7,19.9c-33,0-63.5-7.4-88.7-19.9c-0.1,1.7-0.1,3.4-0.1,5.1
				c0,2.9,0.1,5.7,0.4,8.5c25.1,12.5,55.6,19.8,88.4,19.8s63.3-7.3,88.4-19.8c0.3-2.8,0.4-5.6,0.4-8.5
				C1099.9,1065.5,1099.9,1063.8,1099.8,1062.1z M1099,1054.1c-0.8-5.2-2-10.2-3.6-15.1c-24.3,11.2-53.2,17.8-84.3,17.8
				c-31.1,0-60-6.5-84.3-17.8c-1.6,4.9-2.8,9.9-3.6,15.1c25,12.3,55.3,19.5,87.9,19.5C1043.7,1073.6,1074,1066.4,1099,1054.1z
				 M1087.7,1022.2c-1.1-1.8-2.2-3.6-3.4-5.4c-21.8,8.4-46.7,13.1-73.2,13.1s-51.4-4.7-73.2-13.1c-1.2,1.7-2.3,3.5-3.4,5.4
				c22.6,9.2,48.7,14.4,76.6,14.4S1065.1,1031.4,1087.7,1022.2z M1067.7,998.7c-3.3-2.7-6.8-5.2-10.5-7.5c-14.6,3.2-30.1,5-46.2,5
				c-16.1,0-31.6-1.8-46.2-5c-3.7,2.2-7.2,4.7-10.5,7.5c17.5,4.9,36.6,7.6,56.6,7.6S1050.2,1003.6,1067.7,998.7z"/>
		</g>
		<path class="st6" d="M1089.8,1024.4c1.8,3.3,3.4,6.6,4.7,10.1c21.9-4.9,36-6,37.3-2.1c1.4,4.2-11,12.8-32,23.5
			c-20.3,10.4-48.9,22.6-80.9,34.3s-61.6,20.7-83.7,25.9c-22.8,5.3-37.6,6.5-39.1,2.4c-1.3-4.1,10.4-12.4,30.4-22.7
			c-1.1-3.7-1.8-7.3-2.3-11c-35.5,18.1-57.1,34.6-54.1,43.2c2.9,8.9,31.3,7.4,71.8-2.2c23.6-5.6,51.3-14,80.5-24.7
			c29.2-10.7,55.9-22.2,77.7-33.2c37.5-18.8,60.6-36.1,57.6-45C1155,1014.3,1128.2,1015.5,1089.8,1024.4z"/>
		<path d="M964.4,1205.5c0,5.7-4.2,10.6-12.9,10.6c-3.6,0-7.5-1-9.4-2.4l1.2-4c2.1,1.3,5.3,2.4,8.6,2.4c4.9,0,7.7-2.6,7.7-6.3
			c0-3.5-2-5.4-7-7.3c-6-2.1-9.8-5.3-9.8-10.5c0-5.8,4.8-10,12-10c3.8,0,6.5,0.9,8.2,1.8l-1.3,3.9c-1.2-0.7-3.7-1.8-7-1.8
			c-5,0-7,3-7,5.5c0,3.5,2.2,5.2,7.3,7.1C961.2,1197,964.4,1200,964.4,1205.5z M989.6,1209.2c0,2.3,0.1,4.6,0.4,6.4h-4.4l-0.4-3.3
			h-0.2c-1.5,2.1-4.3,3.9-8.1,3.9c-5.4,0-8.1-3.8-8.1-7.6c0-6.4,5.7-9.9,16-9.9v-0.5c0-2.2-0.6-6.1-6-6.1c-2.5,0-5,0.8-6.9,2
			l-1.1-3.2c2.2-1.4,5.4-2.4,8.7-2.4c8.1,0,10.1,5.5,10.1,10.9V1209.2z M984.9,1202c-5.3-0.1-11.2,0.8-11.2,6c0,3.1,2.1,4.6,4.6,4.6
			c3.5,0,5.6-2.2,6.4-4.4c0.2-0.5,0.3-1,0.3-1.5V1202z M1003,1181.4l-4.7,1.3v6.4h-4.1v3.7h4.1v14.5c0,3.1,0.5,5.5,1.9,6.9
			c1.2,1.3,3,2,5.2,2c1.9,0,3.3-0.3,4.3-0.7l-0.2-3.6c-0.6,0.2-1.5,0.3-2.8,0.3c-2.7,0-3.6-1.9-3.6-5.2v-14.3h6.9v-3.7h-6.9V1181.4z
			 M1037.5,1189h-4.8v16.3c0,0.9-0.2,1.8-0.4,2.5c-0.9,2.1-3.1,4.4-6.4,4.4c-4.4,0-5.9-3.4-5.9-8.4V1189h-4.8v15.5
			c0,9.3,5,11.6,9.2,11.6c4.7,0,7.5-2.8,8.8-4.9h0.1l0.3,4.3h4.3c-0.2-2.1-0.2-4.5-0.2-7.2V1189z M1049.9,1194.2h-0.2l-0.2-5.2h-4.2
			c0.2,2.5,0.2,5.2,0.2,8.3v18.3h4.8v-14.1c0-0.8,0.1-1.6,0.2-2.2c0.7-3.6,3.1-6.2,6.5-6.2c0.7,0,1.2,0.1,1.6,0.2v-4.6
			c-0.4-0.1-0.8-0.2-1.4-0.2C1054,1188.4,1051.1,1190.7,1049.9,1194.2z M1076.9,1188.4c-4.4,0-7.5,2.5-8.8,5h-0.1l-0.3-4.4h-4.3
			c0.2,2.2,0.2,4.4,0.2,7.2v19.4h4.8v-16c0-0.8,0.1-1.6,0.3-2.2c0.8-2.7,3.3-4.9,6.5-4.9c4.6,0,6.1,3.6,6.1,7.8v15.3h4.8v-15.8
			C1086.2,1190.6,1080.5,1188.4,1076.9,1188.4z"/>
	</g>
</g>
</svg>
