<svg width="1500" height="1500" xmlns="http://www.w3.org/2000/svg" xml:space="preserve" version="1.1">

 <g>
  <title>Layer 1</title>
  <g id="svg_1">
   <!-- Earth -->
   <g id="svg_2">
    <ellipse id="svg_3" fill="#ED1C24" ry="95.8" rx="96" cy="110.42313" cx="115.53857" class="st3"/>
    <path id="svg_4" fill="#BE1E2D" d="m124.03857,151.52313c29.3,0 56.3,0.4 78.3,1c-1.3,2.8 -2.8,5.6 -4.4,8.2c-21.2,0.5 -46.6,0.8 -74,0.8c-35.3,0 -67.4,-0.5 -91.2,-1.3c-1.4,-2.3 -2.7,-4.7 -3.8,-7.2c24.3,-0.9 57.9,-1.5 95.1,-1.5zm30.7,-46.9c0,3.1 16.6,5.6 37.2,5.6c7.2,0 13.9,-0.3 19.6,-0.9c-0.1,-3.3 -0.3,-6.5 -0.7,-9.6c-5.5,-0.5 -12,-0.8 -18.9,-0.8c-20.6,0 -37.2,2.6 -37.2,5.7zm-5.9,-65.7c10.4,0 20,-0.5 27.7,-1.2c-5.2,-4.3 -10.8,-8 -16.8,-11.1c-3.5,-0.1 -7.1,-0.2 -10.9,-0.2c-25.6,0 -46.3,2.8 -46.3,6.3c0,3.4 20.7,6.2 46.3,6.2zm-67.8,137.6c-13.5,0 -25.7,0.7 -34.4,1.7c3,3.1 6.2,6 9.6,8.7c7.2,0.5 15.7,0.8 24.8,0.8c26.3,0 47.6,-2.5 47.6,-5.6s-21.3,-5.6 -47.6,-5.6zm28,-85.1c0,-10.4 -25.7,-18.8 -57.4,-18.8c-8.8,0 -17.1,0.6 -24.6,1.8c-4.3,10.1 -6.8,21.1 -7.4,32.6c9.1,2 20.1,3.2 32,3.2c31.8,0 57.4,-8.4 57.4,-18.8zm-23.4,-28.8c20.2,0 36.5,-2 36.5,-4.4s-16.3,-4.4 -36.5,-4.4s-36.5,2 -36.5,4.4s16.3,4.4 36.5,4.4zm9.1,63.9c0,4.8 15.8,8.8 35.2,8.8s35.2,-3.9 35.2,-8.8c0,-4.8 -15.8,-8.8 -35.2,-8.8s-35.2,3.9 -35.2,8.8zm53.5,-54.5c0,2.4 7.9,4.4 17.6,4.4c9.7,0 17.6,-2 17.6,-4.4c0,-2.4 -7.9,-4.4 -17.6,-4.4c-9.8,0.1 -17.6,2 -17.6,4.4z" class="st4"/>
    <path id="svg_5" d="m100.13857,227.72313l2.3,37l-4.7,0l-0.9,-16.2c-0.3,-5.2 -0.6,-11.4 -0.5,-16l-0.2,0c-1.3,4.3 -2.8,8.9 -4.7,14l-6.5,17.9l-3.6,0l-6,-17.6c-1.8,-5.2 -3.2,-10 -4.3,-14.4l-0.1,0c-0.1,4.6 -0.4,10.8 -0.7,16.3l-1,15.8l-4.6,0l2.6,-37l6.1,0l6.3,17.9c1.5,4.6 2.8,8.6 3.7,12.4l0.2,0c0.9,-3.7 2.2,-7.8 3.9,-12.4l6.6,-17.9l6.1,0l0,0.2zm28.4,30.6c0,2.3 0.1,4.6 0.4,6.4l-4.4,0l-0.4,-3.3l-0.2,0c-1.5,2.1 -4.3,3.9 -8.1,3.9c-5.4,0 -8.1,-3.8 -8.1,-7.6c0,-6.4 5.7,-9.9 16,-9.9l0,-0.5c0,-2.2 -0.6,-6.1 -6,-6.1c-2.5,0 -5,0.8 -6.9,2l-1.1,-3.2c2.2,-1.4 5.4,-2.4 8.7,-2.4c8.1,0 10.1,5.5 10.1,10.9l0,9.8zm-4.6,-7.1c-5.3,-0.1 -11.2,0.8 -11.2,6c0,3.1 2.1,4.6 4.6,4.6c3.5,0 5.6,-2.2 6.4,-4.4c0.2,-0.5 0.3,-1 0.3,-1.5l0,-4.7l-0.1,0zm16.8,-7.8l-0.2,0l-0.2,-5.2l-4.2,0c0.2,2.5 0.2,5.2 0.2,8.3l0,18.3l4.8,0l0,-14.1c0,-0.8 0.1,-1.6 0.2,-2.2c0.7,-3.6 3.1,-6.2 6.5,-6.2c0.7,0 1.2,0.1 1.6,0.2l0,-4.6c-0.4,-0.1 -0.8,-0.2 -1.4,-0.2c-3.2,-0.1 -6.1,2.1 -7.3,5.7zm22.1,5.9c-3.5,-1.3 -5,-2.3 -5,-4.5c0,-2 1.6,-3.6 4.4,-3.6c2.5,0 4.4,0.9 5.4,1.5l1.2,-3.5c-1.5,-0.9 -3.8,-1.6 -6.5,-1.6c-5.7,0 -9.2,3.5 -9.2,7.8c0,3.2 2.2,5.8 7,7.5c3.6,1.3 4.9,2.6 4.9,4.9c0,2.2 -1.6,3.9 -5.2,3.9c-2.4,0 -4.9,-1 -6.4,-1.9l-1.2,3.7c1.9,1.1 4.6,1.8 7.5,1.8c6.3,0 9.9,-3.3 9.9,-8c0.2,-3.9 -2.2,-6.2 -6.8,-8z"/>
   </g>
  </g>
 </g>
</svg>